<?xml version="1.0" encoding="utf-8"?>
<!-- Generator: Adobe Illustrator 19.2.1, SVG Export Plug-In . SVG Version: 6.00 Build 0)  -->
<svg version="1.1" id="Layer_1" xmlns="http://www.w3.org/2000/svg" xmlns:xlink="http://www.w3.org/1999/xlink" x="0px" y="0px"
	 viewBox="0 0 256 230" style="enable-background:new 0 0 256 230;" xml:space="preserve">
<style type="text/css">
	.st0{fill:#FFFFFF;}
	.st1{fill:#00D8FF;}
</style>
<path class="st0" d="M0.8,114.8c0,19.2,18.8,37.2,48.3,47.3c-5.9,29.7-1.1,53.7,15.1,63c16.6,9.6,41.4,3,65-17.6
	c22.9,19.7,46.1,27.5,62.3,18.1c16.6-9.6,21.7-35.2,15.6-65.9c30.8-10.2,48-25.5,48-44.9c0-18.8-18.8-35-48-45.1
	c6.5-31.9,1-55.3-15.9-65c-16.3-9.4-39.7-1.2-63,19.1C104.1,2.2,80.9-4.4,64,5.4c-16.2,9.4-20.9,33.8-15,64.1
	C20.5,79.5,0.8,96.1,0.8,114.8z"/>
<path class="st1" d="M201,79.7c-2.3-0.8-4.8-1.6-7.3-2.3c0.4-1.7,0.8-3.3,1.1-5c5.5-26.7,1.9-48.3-10.4-55.3
	c-11.8-6.8-31.1,0.3-50.5,17.2c-1.9,1.6-3.7,3.4-5.6,5.2c-1.3-1.2-2.5-2.4-3.7-3.5c-20.4-18.1-40.9-25.8-53.1-18.6
	c-11.8,6.8-15.3,27.1-10.3,52.4c0.5,2.4,1,4.9,1.7,7.5c-2.9,0.8-5.7,1.7-8.4,2.6c-23.9,8.3-39.2,21.4-39.2,35
	c0,14,16.4,28,41.3,36.6c2,0.7,4,1.3,6.1,1.9c-0.7,2.7-1.3,5.4-1.8,8.1c-4.7,24.9-1,44.7,10.7,51.4c12.1,7,32.5-0.2,52.3-17.5
	c1.6-1.4,3.1-2.8,4.7-4.3c2,2,4.1,3.8,6.1,5.6c19.2,16.5,38.2,23.2,49.9,16.4c12.1-7,16.1-28.2,10.9-54.1c-0.4-2-0.8-4-1.4-6
	c1.4-0.4,2.8-0.9,4.2-1.3c25.9-8.6,42.8-22.5,42.8-36.6C241.2,101.2,225.4,88.1,201,79.7L201,79.7L201,79.7z"/>
<path class="st0" d="M195.4,142.3c-1.2,0.4-2.5,0.8-3.8,1.2c-2.9-9.1-6.7-18.7-11.4-28.6c4.5-9.7,8.2-19.2,11-28.2
	c2.3,0.7,4.6,1.4,6.7,2.1c20.9,7.2,33.7,17.8,33.7,26C231.5,123.6,217.8,134.9,195.4,142.3L195.4,142.3L195.4,142.3z M186.1,160.7
	c2.3,11.4,2.6,21.7,1.1,29.8c-1.3,7.3-4.1,12.1-7.4,14c-7.1,4.1-22.3-1.2-38.8-15.4c-1.9-1.6-3.8-3.3-5.7-5.2
	c6.4-7,12.7-15.1,18.9-24c10.9-1,21.2-2.6,30.6-4.7C185.4,157.1,185.8,158.9,186.1,160.7L186.1,160.7L186.1,160.7z M92.3,203.9
	c-7,2.5-12.5,2.5-15.8,0.6c-7.1-4.1-10.1-20-6-41.3c0.5-2.4,1-4.9,1.6-7.5c9.3,2,19.5,3.5,30.5,4.4c6.3,8.8,12.8,16.9,19.4,24
	c-1.4,1.4-2.9,2.7-4.3,4C108.8,195.7,100,201.1,92.3,203.9L92.3,203.9L92.3,203.9z M59.7,142.3c-11-3.8-20.1-8.7-26.4-14
	c-5.6-4.8-8.4-9.6-8.4-13.4c0-8.2,12.3-18.7,32.7-25.9c2.5-0.9,5.1-1.7,7.8-2.4c2.8,9.2,6.5,18.8,11,28.5
	c-4.5,9.9-8.3,19.6-11.2,28.9C63.3,143.5,61.5,142.9,59.7,142.3L59.7,142.3L59.7,142.3z M70.6,67.9c-4.2-21.7-1.4-38.1,5.7-42.2
	c7.6-4.4,24.3,1.9,41.9,17.5c1.1,1,2.3,2,3.4,3.1c-6.6,7-13.1,15.1-19.2,23.8c-10.6,1-20.8,2.6-30.2,4.7
	C71.6,72.5,71.1,70.2,70.6,67.9L70.6,67.9L70.6,67.9z M168.1,92c-2.2-3.9-4.5-7.6-6.9-11.3c7.2,0.9,14.1,2.1,20.6,3.6
	c-1.9,6.2-4.4,12.8-7.2,19.5C172.5,99.8,170.4,95.9,168.1,92L168.1,92L168.1,92z M128.3,53.3c4.5,4.8,8.9,10.2,13.3,16.1
	c-4.4-0.2-8.9-0.3-13.4-0.3c-4.5,0-8.9,0.1-13.3,0.3C119.3,63.5,123.8,58.1,128.3,53.3L128.3,53.3L128.3,53.3z M88.3,92
	c-2.2,3.9-4.4,7.8-6.4,11.7c-2.8-6.7-5.2-13.2-7.2-19.6c6.4-1.4,13.3-2.6,20.5-3.5C92.9,84.4,90.6,88.2,88.3,92L88.3,92L88.3,92z
	 M95.5,149.7c-7.4-0.8-14.4-1.9-20.8-3.3c2-6.4,4.5-13.1,7.3-19.9c2,3.9,4.2,7.8,6.4,11.7h0C90.7,142.1,93,145.9,95.5,149.7
	L95.5,149.7L95.5,149.7z M128.6,177.1c-4.6-4.9-9.1-10.4-13.6-16.3c4.3,0.2,8.7,0.3,13.2,0.3c4.6,0,9.2-0.1,13.6-0.3
	C137.5,166.8,133,172.2,128.6,177.1L128.6,177.1L128.6,177.1z M174.7,126.1c3,6.9,5.6,13.5,7.6,19.9c-6.6,1.5-13.6,2.7-21.1,3.6
	c2.3-3.7,4.7-7.6,6.9-11.5C170.4,134.1,172.6,130.1,174.7,126.1L174.7,126.1L174.7,126.1z M159.8,133.2c-3.5,6.1-7.2,12-10.8,17.5
	c-6.7,0.5-13.6,0.7-20.7,0.7c-7,0-13.9-0.2-20.5-0.6c-3.8-5.6-7.5-11.5-11-17.5h0c-3.5-6-6.7-12.1-9.6-18.2
	c2.9-6.1,6.1-12.2,9.6-18.2l0,0c3.5-6.1,7.2-11.9,11-17.4c6.7-0.5,13.6-0.8,20.6-0.8h0c7,0,13.9,0.3,20.6,0.8
	c3.7,5.5,7.4,11.3,10.9,17.4c3.5,6.1,6.8,12.2,9.7,18.1C166.5,121,163.3,127.1,159.8,133.2L159.8,133.2L159.8,133.2z M179.7,25.4
	c7.6,4.4,10.5,22,5.8,45c-0.3,1.5-0.6,3-1,4.5c-9.4-2.2-19.6-3.8-30.2-4.8c-6.2-8.8-12.6-16.9-19.1-23.8c1.7-1.7,3.5-3.3,5.2-4.8
	C157,27.1,172.6,21.3,179.7,25.4L179.7,25.4L179.7,25.4z"/>
<path class="st1" d="M128.2,94.7c11.1,0,20.2,9,20.2,20.2c0,11.1-9,20.2-20.2,20.2s-20.2-9-20.2-20.2
	C108,103.7,117.1,94.7,128.2,94.7"/>
</svg>
