<?xml version="1.0" encoding="utf-8"?>
<!-- Generator: Adobe Illustrator 19.2.1, SVG Export Plug-In . SVG Version: 6.00 Build 0)  -->
<svg version="1.1" id="Layer_1" xmlns="http://www.w3.org/2000/svg" xmlns:xlink="http://www.w3.org/1999/xlink" x="0px" y="0px"
	 viewBox="0 0 320 450" style="enable-background:new 0 0 320 450;" xml:space="preserve">
<style type="text/css">
	.st0{fill:#131313;}
	.st1{fill:#1572B6;}
	.st2{fill:#33A9DC;}
	.st3{fill:#FFFFFF;}
	.st4{fill:#EBEBEB;}
</style>
<g>
	<path class="st0" d="M244.6,34.1h-24.7l25.7,27.9v13.3h-52.9V59.7h25.7l-25.7-27.9V18.5h51.9V34.1L244.6,34.1z M182.2,34.1h-24.7
		l25.7,27.9v13.3h-52.9V59.7H156l-25.7-27.9V18.5h51.9L182.2,34.1L182.2,34.1z M120.4,34.7H93.8V59h26.6v16.2H74.9V18.5h45.6V34.7z"
		/>
</g>
<polygon class="st1" points="38.6,404.7 11.5,101.1 308.9,101.1 281.8,404.7 160,438.4 "/>
<polygon class="st2" points="160.2,412.6 258.6,385.3 281.8,125.9 160.2,125.9 "/>
<g>
	<polygon class="st3" points="160.2,235.9 209.5,235.9 212.9,197.8 160.2,197.8 160.2,160.5 160.3,160.5 253.6,160.5 252.7,170.5 
		243.5,273.1 160.2,273.1 	"/>
	<polygon class="st4" points="160.4,332.6 160.3,332.7 118.8,321.5 116.2,291.8 96,291.8 78.8,291.8 84,350.2 160.3,371.4 
		160.4,371.4 	"/>
	<polygon class="st3" points="206.3,271.6 201.8,321.4 160.3,332.6 160.3,371.4 236.6,350.2 237.2,343.9 243.7,271.6 	"/>
	<polygon class="st4" points="160.3,160.5 160.3,183.7 160.3,197.7 160.3,197.8 70.5,197.8 70.5,197.8 70.4,197.8 69.7,189.4 
		68,170.5 67.1,160.5 	"/>
	<polygon class="st4" points="160.2,235.9 160.2,259 160.2,273.1 160.2,273.1 119.4,273.1 119.4,273.1 119.3,273.1 118.5,264.8 
		116.8,245.9 115.9,235.9 	"/>
</g>
</svg>
