<?xml version="1.0" encoding="UTF-8" standalone="no"?>
<svg width="391px" height="66px" viewBox="0 0 391 66" version="1.1" xmlns="http://www.w3.org/2000/svg" xmlns:xlink="http://www.w3.org/1999/xlink">
    <!-- Generator: Sketch 41.2 (35397) - http://www.bohemiancoding.com/sketch -->
    <title>checkbox002</title>
    <desc>Created with Sketch.</desc>
    <defs>
        <polygon id="path-1" points="0 0 30 0 30 30 23.6320371 30 0 30"></polygon>
        <mask id="mask-2" maskContentUnits="userSpaceOnUse" maskUnits="objectBoundingBox" x="0" y="0" width="30" height="30" fill="white">
            <use xlink:href="#path-1"></use>
        </mask>
        <polygon id="path-3" points="0 0 30 0 30 30 23.6320371 30 0 30"></polygon>
        <mask id="mask-4" maskContentUnits="userSpaceOnUse" maskUnits="objectBoundingBox" x="0" y="0" width="30" height="30" fill="white">
            <use xlink:href="#path-3"></use>
        </mask>
    </defs>
    <g id="UI-elements-section" stroke="none" stroke-width="1" fill="none" fill-rule="evenodd">
        <g id="Component-Checkbox" transform="translate(-248.000000, -760.000000)">
            <g id="checkbox002" transform="translate(248.000000, 758.000000)">
                <g id="Form-/-Checkbox-(Checked)-Large" transform="translate(0.500000, 38.000000)">
                    <polygon id="Rectangle-34" fill="#666666" points="12.5833333 21 8 16.4166667 9.83333333 14.5833333 12.5833333 17.3333333 19.9166667 10 21.75 11.8333333"></polygon>
                    <use id="Rectangle-12" stroke="#666666" mask="url(#mask-2)" stroke-width="4" xlink:href="#path-1"></use>
                    <text id="Check-Label" font-family="ArialMT, Arial" font-size="16" font-weight="normal" fill="#333333">
                        <tspan x="42" y="20">Sample text</tspan>
                    </text>
                </g>
                <text id="Screen-size-XS" font-family="Arial-BoldMT, Arial" font-size="16" font-weight="bold" line-spacing="17" fill="#333333">
                    <tspan x="0" y="14">Screen size XS</tspan>
                </text>
                <text id="Screen-size-S,-M,-L" font-family="Arial-BoldMT, Arial" font-size="16" font-weight="bold" line-spacing="17" fill="#333333">
                    <tspan x="247" y="14">Screen size S, M, L</tspan>
                </text>
                <g id="Form-/-Checkbox-(Checked)-Large" transform="translate(245.500000, 38.000000)">
                    <polygon id="Rectangle-34" fill="#666666" points="12.5833333 21 8 16.4166667 9.83333333 14.5833333 12.5833333 17.3333333 19.9166667 10 21.75 11.8333333"></polygon>
                    <use id="Rectangle-12" stroke="#666666" mask="url(#mask-4)" stroke-width="4" xlink:href="#path-3"></use>
                    <text id="Check-Label" font-family="ArialMT, Arial" font-size="16" font-weight="normal" fill="#333333">
                        <tspan x="47" y="20">Sample text</tspan>
                    </text>
                </g>
                <g id="10px" transform="translate(28.500000, 32.000000)">
                    <text font-family="ArialMT, Arial" font-size="13" font-weight="normal" line-spacing="17" fill="#666666">
                        <tspan x="0" y="12">10px</tspan>
                    </text>
                    <g id="Group" transform="translate(8.500000, 21.000000) rotate(90.000000) translate(-8.500000, -21.000000) translate(5.500000, 14.500000)" stroke="#979797" stroke-linecap="square">
                        <path d="M0,0.933333333 L6,0.933333333" id="Line"></path>
                        <path d="M0,12.0666667 L6,12.0666667" id="Line"></path>
                        <path d="M3,0.933333333 L3,10.9333333" id="Line"></path>
                    </g>
                </g>
                <g id="15px" transform="translate(272.500000, 32.000000)">
                    <text font-family="ArialMT, Arial" font-size="13" font-weight="normal" line-spacing="17" fill="#666666">
                        <tspan x="0" y="12">15px</tspan>
                    </text>
                    <g id="Group" transform="translate(12.000000, 21.000000) rotate(90.000000) translate(-12.000000, -21.000000) translate(9.000000, 12.000000)" stroke="#979797" stroke-linecap="square">
                        <path d="M0,0.933333333 L6,0.933333333" id="Line"></path>
                        <path d="M0,17.0666667 L6,17.0666667" id="Line"></path>
                        <path d="M3,0.933333333 L3,15.9333333" id="Line"></path>
                    </g>
                </g>
            </g>
        </g>
    </g>
</svg>