<?xml version="1.0" encoding="UTF-8" standalone="no"?>
<svg width="296px" height="34px" viewBox="0 0 296 34" version="1.1" xmlns="http://www.w3.org/2000/svg" xmlns:xlink="http://www.w3.org/1999/xlink">
    <!-- Generator: Sketch 41.2 (35397) - http://www.bohemiancoding.com/sketch -->
    <title>checkbox003</title>
    <desc>Created with Sketch.</desc>
    <defs>
        <polygon id="path-1" points="0 0 30 0 30 30 23.6320371 30 0 30"></polygon>
        <mask id="mask-2" maskContentUnits="userSpaceOnUse" maskUnits="objectBoundingBox" x="0" y="0" width="30" height="30" fill="white">
            <use xlink:href="#path-1"></use>
        </mask>
        <polygon id="path-3" points="0 0 30 0 30 30 23.6320371 30 0 30"></polygon>
        <mask id="mask-4" maskContentUnits="userSpaceOnUse" maskUnits="objectBoundingBox" x="0" y="0" width="30" height="30" fill="white">
            <use xlink:href="#path-3"></use>
        </mask>
    </defs>
    <g id="UI-elements-section" stroke="none" stroke-width="1" fill="none" fill-rule="evenodd">
        <g id="Component-Checkbox" transform="translate(-249.000000, -892.000000)">
            <g id="checkbox003" transform="translate(249.000000, 890.000000)">
                <g id="30px" transform="translate(130.000000, 0.000000)">
                    <text font-family="ArialMT, Arial" font-size="13" font-weight="normal" line-spacing="15" fill="#666666">
                        <tspan x="4" y="12">30px</tspan>
                    </text>
                    <g id="Group" transform="translate(17.000000, 18.000000) rotate(90.000000) translate(-17.000000, -18.000000) translate(14.000000, 1.000000)" stroke="#979797" stroke-linecap="square">
                        <path d="M0,0.933333333 L6,0.933333333" id="Line"></path>
                        <path d="M-3.55271368e-15,33.0666667 L6,33.0666667" id="Line"></path>
                        <path d="M3,1.93333333 L3,31.9333333" id="Line"></path>
                    </g>
                </g>
                <g id="Form-/-Checkbox-(Checked)-Large" transform="translate(164.000000, 6.000000)">
                    <text id="Check-Label" font-family="ArialMT, Arial" font-size="16" font-weight="normal" fill="#333333">
                        <tspan x="47" y="20">Sample text</tspan>
                    </text>
                    <polygon id="Rectangle-34" fill="#666666" points="12.5833333 21 8 16.4166667 9.83333333 14.5833333 12.5833333 17.3333333 19.9166667 10 21.75 11.8333333"></polygon>
                    <use id="Rectangle-12" stroke="#666666" mask="url(#mask-2)" stroke-width="4" xlink:href="#path-1"></use>
                </g>
                <g id="Form-/-Checkbox-(Checked)-Large" transform="translate(0.000000, 6.000000)">
                    <polygon id="Rectangle-34" fill="#666666" points="12.5833333 21 8 16.4166667 9.83333333 14.5833333 12.5833333 17.3333333 19.9166667 10 21.75 11.8333333"></polygon>
                    <use id="Rectangle-12" stroke="#666666" mask="url(#mask-4)" stroke-width="4" xlink:href="#path-3"></use>
                    <text id="Check-Label" font-family="ArialMT, Arial" font-size="16" font-weight="normal" fill="#333333">
                        <tspan x="47" y="20">Sample text</tspan>
                    </text>
                </g>
            </g>
        </g>
    </g>
</svg>