<?xml version="1.0" encoding="UTF-8" standalone="no"?>
<svg width="711px" height="209px" viewBox="0 0 711 209" version="1.1" xmlns="http://www.w3.org/2000/svg" xmlns:xlink="http://www.w3.org/1999/xlink">
    <!-- Generator: Sketch 41.2 (35397) - http://www.bohemiancoding.com/sketch -->
    <title>checkbox001</title>
    <desc>Created with Sketch.</desc>
    <defs>
        <rect id="path-1" x="0" y="0" width="20" height="20"></rect>
        <mask id="mask-2" maskContentUnits="userSpaceOnUse" maskUnits="objectBoundingBox" x="0" y="0" width="20" height="20" fill="white">
            <use xlink:href="#path-1"></use>
        </mask>
        <rect id="path-3" x="0" y="0" width="20" height="20"></rect>
        <mask id="mask-4" maskContentUnits="userSpaceOnUse" maskUnits="objectBoundingBox" x="0" y="0" width="20" height="20" fill="white">
            <use xlink:href="#path-3"></use>
        </mask>
        <rect id="path-5" x="0" y="0" width="20" height="20"></rect>
        <mask id="mask-6" maskContentUnits="userSpaceOnUse" maskUnits="objectBoundingBox" x="0" y="0" width="20" height="20" fill="white">
            <use xlink:href="#path-5"></use>
        </mask>
        <rect id="path-7" x="0" y="0" width="30" height="30"></rect>
        <mask id="mask-8" maskContentUnits="userSpaceOnUse" maskUnits="objectBoundingBox" x="0" y="0" width="30" height="30" fill="white">
            <use xlink:href="#path-7"></use>
        </mask>
        <polygon id="path-9" points="0 0 30 0 30 30 23.6320371 30 0 30"></polygon>
        <mask id="mask-10" maskContentUnits="userSpaceOnUse" maskUnits="objectBoundingBox" x="0" y="0" width="30" height="30" fill="white">
            <use xlink:href="#path-9"></use>
        </mask>
        <polygon id="path-11" points="0 0 30 0 30 30 23.6320371 30 0 30"></polygon>
        <mask id="mask-12" maskContentUnits="userSpaceOnUse" maskUnits="objectBoundingBox" x="0" y="0" width="30" height="30" fill="white">
            <use xlink:href="#path-11"></use>
        </mask>
    </defs>
    <g id="UI-elements-section" stroke="none" stroke-width="1" fill="none" fill-rule="evenodd">
        <g id="Component-Checkbox" transform="translate(-243.000000, -489.000000)">
            <g id="checkbox001" transform="translate(242.000000, 487.000000)">
                <g id="30px" transform="translate(319.000000, 0.000000)">
                    <text font-family="ArialMT, Arial" font-size="13" font-weight="normal" line-spacing="15" fill="#666666">
                        <tspan x="4" y="12">30px</tspan>
                    </text>
                    <g id="Group" transform="translate(17.000000, 18.000000) rotate(90.000000) translate(-17.000000, -18.000000) translate(14.000000, 1.000000)" stroke="#979797" stroke-linecap="square">
                        <path d="M0,0.933333333 L6,0.933333333" id="Line"></path>
                        <path d="M-3.55271368e-15,33.0666667 L6,33.0666667" id="Line"></path>
                        <path d="M3,1.93333333 L3,31.9333333" id="Line"></path>
                    </g>
                </g>
                <text id="30px" font-family="ArialMT, Arial" font-size="13" font-weight="normal" line-spacing="17" fill="#666666">
                    <tspan x="284" y="40">30px</tspan>
                </text>
                <g id="Group" transform="translate(314.000000, 21.000000)" stroke="#979797" stroke-linecap="square">
                    <path d="M0,0.875 L6,0.875" id="Line"></path>
                    <path d="M0,29.125 L6,29.125" id="Line"></path>
                    <path d="M3,0.875 L3,29" id="Line"></path>
                </g>
                <g id="20px" transform="translate(326.000000, 114.599976)">
                    <text font-family="ArialMT, Arial" font-size="13" font-weight="normal" line-spacing="17" fill="#666666">
                        <tspan x="3" y="12">20px</tspan>
                    </text>
                    <g id="Group" transform="translate(10.000000, 19.000000) rotate(90.000000) translate(-10.000000, -19.000000) translate(7.000000, 9.000000)" stroke="#979797" stroke-linecap="square">
                        <path d="M0,0.549019608 L6,0.549019608" id="Line"></path>
                        <path d="M0,19.4509804 L6,19.4509804" id="Line"></path>
                        <path d="M3,1.1372549 L3,18.7843137" id="Line"></path>
                    </g>
                </g>
                <text id="20px" font-family="ArialMT, Arial" font-size="13" font-weight="normal" line-spacing="17" fill="#666666">
                    <tspan x="289" y="148">20px</tspan>
                </text>
                <g id="Group" transform="translate(319.500000, 136.000000)" stroke="#979797" stroke-linecap="square">
                    <path d="M0,0.583333333 L6,0.583333333" id="Line"></path>
                    <path d="M0,19.4166667 L6,19.4166667" id="Line"></path>
                    <path d="M3,0.583333333 L3,19.3333333" id="Line"></path>
                </g>
                <g id="Form-/-Checkbox-(Checked)" transform="translate(81.000000, 137.000000)">
                    <polygon id="Rectangle-34" fill="#666666" points="7.58333333 15 3 10.4166667 4.83333333 8.58333333 7.58333333 11.3333333 14.9166667 4 16.75 5.83333333"></polygon>
                    <use id="Rectangle-12" stroke="#666666" mask="url(#mask-2)" stroke-width="4" xlink:href="#path-1"></use>
                </g>
                <g id="Form-/-Checkbox-(Checked)" opacity="0.4" transform="translate(551.000000, 137.000000)">
                    <polygon id="Rectangle-34" fill="#666666" points="7.58333333 15 3 10.4166667 4.83333333 8.58333333 7.58333333 11.3333333 14.9166667 4 16.75 5.83333333"></polygon>
                    <use id="Rectangle-12" stroke="#666666" mask="url(#mask-4)" stroke-width="4" xlink:href="#path-3"></use>
                </g>
                <g id="Form-/-Checkbox-Unchecked" transform="translate(326.000000, 136.000000)" stroke="#666666" stroke-width="4">
                    <use id="Rectangle-12" mask="url(#mask-6)" xlink:href="#path-5"></use>
                </g>
                <g id="Form-/-Checkbox-Unchecked-Large" transform="translate(321.000000, 21.000000)" stroke="#666666" stroke-width="4">
                    <use id="Rectangle-12" mask="url(#mask-8)" xlink:href="#path-7"></use>
                </g>
                <g id="sizes" transform="translate(0.000000, 21.000000)" font-size="16" font-family="ArialMT, Arial" line-spacing="28" fill="#333333" font-weight="normal">
                    <text id="Default-Small">
                        <tspan x="0.3046875" y="14">Default</tspan>
                        <tspan x="51" y="52"></tspan>
                        <tspan x="51" y="90"></tspan>
                        <tspan x="10.9921875" y="128">Small</tspan>
                    </text>
                </g>
                <text id="Disabled-state-is-40" font-family="ArialMT, Arial" font-size="14" font-weight="normal" line-spacing="10" fill="#666666">
                    <tspan x="492" y="83">Disabled state is 40% transparency</tspan>
                </text>
                <text id="Default-is-#666666-b" font-family="ArialMT, Arial" font-size="14" font-weight="normal" line-spacing="10" fill="#666666">
                    <tspan x="61" y="83">Default is #666666 but it should take the </tspan>
                    <tspan x="61" y="103">primary financial institution color</tspan>
                </text>
                <text id="Small-size-check-box" font-family="ArialMT, Arial" font-size="14" font-weight="normal" line-spacing="10" fill="#666666">
                    <tspan x="70.3037109" y="171"></tspan>
                    <tspan x="61" y="186.917969">Small size check box uses same check </tspan>
                    <tspan x="61" y="206.917969">mark image as the large check box</tspan>
                </text>
                <g id="Group-4" transform="translate(74.000000, 19.000000)">
                    <polygon id="Rectangle-34" fill="#666666" points="12.5833333 21 8 16.4166667 9.83333333 14.5833333 12.5833333 17.3333333 19.9166667 10 21.75 11.8333333"></polygon>
                    <use id="Rectangle-12" stroke="#666666" mask="url(#mask-10)" stroke-width="4" xlink:href="#path-9"></use>
                </g>
                <g id="Group-4" opacity="0.4" transform="translate(546.000000, 19.000000)">
                    <polygon id="Rectangle-34" fill="#666666" points="12.5833333 21 8 16.4166667 9.83333333 14.5833333 12.5833333 17.3333333 19.9166667 10 21.75 11.8333333"></polygon>
                    <use id="Rectangle-12" stroke="#666666" mask="url(#mask-12)" stroke-width="4" xlink:href="#path-11"></use>
                </g>
            </g>
        </g>
    </g>
</svg>