<?xml version="1.0" encoding="UTF-8" standalone="no"?>
<svg width="1007px" height="195px" viewBox="0 0 1007 195" version="1.1" xmlns="http://www.w3.org/2000/svg" xmlns:xlink="http://www.w3.org/1999/xlink">
    <!-- Generator: Sketch 41.2 (35397) - http://www.bohemiancoding.com/sketch -->
    <title>component-buttons100a</title>
    <desc>Created with Sketch.</desc>
    <defs>
        <linearGradient x1="50%" y1="0%" x2="50%" y2="100%" id="linearGradient-1">
            <stop stop-color="#999999" offset="0%"></stop>
            <stop stop-color="#666666" offset="100%"></stop>
        </linearGradient>
        <linearGradient x1="50%" y1="0%" x2="50%" y2="100%" id="linearGradient-2">
            <stop stop-color="#FFFFFF" offset="0%"></stop>
            <stop stop-color="#DDDDDD" offset="100%"></stop>
        </linearGradient>
        <rect id="path-3" x="0" y="0" width="130" height="42"></rect>
        <mask id="mask-4" maskContentUnits="userSpaceOnUse" maskUnits="objectBoundingBox" x="0" y="0" width="130" height="42" fill="white">
            <use xlink:href="#path-3"></use>
        </mask>
        <rect id="path-5" x="0" y="0" width="100" height="35"></rect>
        <mask id="mask-6" maskContentUnits="userSpaceOnUse" maskUnits="objectBoundingBox" x="0" y="0" width="100" height="35" fill="white">
            <use xlink:href="#path-5"></use>
        </mask>
        <rect id="path-7" x="0" y="0" width="120" height="35"></rect>
        <mask id="mask-8" maskContentUnits="userSpaceOnUse" maskUnits="objectBoundingBox" x="0" y="0" width="120" height="35" fill="white">
            <use xlink:href="#path-7"></use>
        </mask>
        <rect id="path-9" x="0" y="0" width="110" height="42"></rect>
        <mask id="mask-10" maskContentUnits="userSpaceOnUse" maskUnits="objectBoundingBox" x="0" y="0" width="110" height="42" fill="white">
            <use xlink:href="#path-9"></use>
        </mask>
        <rect id="path-11" x="0" y="0" width="110" height="35"></rect>
        <mask id="mask-12" maskContentUnits="userSpaceOnUse" maskUnits="objectBoundingBox" x="0" y="0" width="110" height="35" fill="white">
            <use xlink:href="#path-11"></use>
        </mask>
        <rect id="path-13" x="0" y="0" width="110" height="35"></rect>
        <mask id="mask-14" maskContentUnits="userSpaceOnUse" maskUnits="objectBoundingBox" x="0" y="0" width="110" height="35" fill="white">
            <use xlink:href="#path-13"></use>
        </mask>
        <rect id="path-15" x="0" y="0" width="45" height="35"></rect>
        <mask id="mask-16" maskContentUnits="userSpaceOnUse" maskUnits="objectBoundingBox" x="0" y="0" width="45" height="35" fill="white">
            <use xlink:href="#path-15"></use>
        </mask>
        <rect id="path-17" x="0" y="0" width="110" height="42"></rect>
        <mask id="mask-18" maskContentUnits="userSpaceOnUse" maskUnits="objectBoundingBox" x="0" y="0" width="110" height="42" fill="white">
            <use xlink:href="#path-17"></use>
        </mask>
        <rect id="path-19" x="0" y="0" width="52" height="42"></rect>
        <mask id="mask-20" maskContentUnits="userSpaceOnUse" maskUnits="objectBoundingBox" x="0" y="0" width="52" height="42" fill="white">
            <use xlink:href="#path-19"></use>
        </mask>
    </defs>
    <g id="UI-elements-section" stroke="none" stroke-width="1" fill="none" fill-rule="evenodd">
        <g id="Component-Buttons" transform="translate(-252.000000, -266.000000)">
            <g id="Sizes" transform="translate(247.000000, 139.000000)">
                <g id="component-buttons100a" transform="translate(4.000000, 125.000000)">
                    <text id="Primary" font-family="ArialMT, Arial" font-size="16" font-weight="normal" line-spacing="17" fill="#333333">
                        <tspan x="64" y="14">Primary</tspan>
                    </text>
                    <text id="Secondary" font-family="ArialMT, Arial" font-size="16" font-weight="normal" line-spacing="17" fill="#333333">
                        <tspan x="254" y="14">Secondary </tspan>
                    </text>
                    <text id="Tertiary" font-family="ArialMT, Arial" font-size="16" font-weight="normal" line-spacing="17" fill="#333333">
                        <tspan x="460" y="14">Tertiary</tspan>
                    </text>
                    <text id="Button-with-icon" font-family="ArialMT, Arial" font-size="16" font-weight="normal" line-spacing="17" fill="#333333">
                        <tspan x="640" y="14">Button with icon</tspan>
                    </text>
                    <text id="Button-in-a-field" font-family="ArialMT, Arial" font-size="16" font-weight="normal" line-spacing="17" fill="#333333">
                        <tspan x="829" y="14">Button in a field</tspan>
                    </text>
                    <text id="Default-Small" font-family="ArialMT, Arial" font-size="16" font-weight="normal" line-spacing="25" fill="#333333">
                        <tspan x="0.3046875" y="53">Default</tspan>
                        <tspan x="51" y="88"></tspan>
                        <tspan x="51" y="123"></tspan>
                        <tspan x="10.9921875" y="158">Small</tspan>
                    </text>
                    <text id="No-small-size-for-te" font-family="ArialMT, Arial" font-size="14" font-weight="normal" line-spacing="12" fill="#333333">
                        <tspan x="461" y="151">No small size for </tspan>
                        <tspan x="469.93457" y="173">tertiary button</tspan>
                    </text>
                    <g id="Group-9" transform="translate(65.000000, 30.000000)">
                        <text id="Text:-18px-#FFFFFF" font-family="ArialMT, Arial" font-size="13" font-weight="normal" line-spacing="17" fill="#666666">
                            <tspan x="0" y="62">Text: 18px #FFFFFF	</tspan>
                        </text>
                        <text id="42px" font-family="ArialMT, Arial" font-size="13" font-weight="normal" line-spacing="17" fill="#666666">
                            <tspan x="120" y="26">42px</tspan>
                        </text>
                        <g id="buttons-/-primary-(large)">
                            <rect id="Rectangle-26" fill="url(#linearGradient-1)" x="0" y="0" width="110" height="42"></rect>
                            <text id="Primary" font-family="ArialMT, Arial" font-size="18" font-weight="normal" fill="#FFFFFF">
                                <tspan x="24.5009766" y="27">Primary</tspan>
                            </text>
                        </g>
                        <g id="Group" transform="translate(112.000000, 0.000000)" stroke="#979797" stroke-linecap="square">
                            <path d="M0,0.933333333 L6,0.933333333" id="Line"></path>
                            <path d="M0,41.0666667 L6,41.0666667" id="Line"></path>
                            <path d="M3,0.933333333 L3,40.1333333" id="Line"></path>
                        </g>
                    </g>
                    <g id="Group-3" transform="translate(253.000000, 30.000000)">
                        <text id="Text:-18px-#333333" font-family="ArialMT, Arial" font-size="13" font-weight="normal" line-spacing="17" fill="#666666">
                            <tspan x="0" y="62">Text: 18px #333333	</tspan>
                        </text>
                        <text id="42px" font-family="ArialMT, Arial" font-size="13" font-weight="normal" line-spacing="17" fill="#666666">
                            <tspan x="140" y="26">42px</tspan>
                        </text>
                        <g id="buttons-/-secondary-(large)">
                            <use id="Rectangle-26" stroke="#ACACAC" mask="url(#mask-4)" stroke-width="2" fill="url(#linearGradient-2)" xlink:href="#path-3"></use>
                            <text id="Secondary-Label" font-family="ArialMT, Arial" font-size="18" font-weight="normal" fill="#333333">
                                <tspan x="22.4731445" y="27">Secondary </tspan>
                            </text>
                        </g>
                        <g id="Group" transform="translate(133.000000, 0.000000)" stroke="#979797" stroke-linecap="square">
                            <path d="M0,0.933333333 L6,0.933333333" id="Line"></path>
                            <path d="M0,41.0666667 L6,41.0666667" id="Line"></path>
                            <path d="M3,0.933333333 L3,40.1333333" id="Line"></path>
                        </g>
                    </g>
                    <g id="Group-6" transform="translate(461.000000, 34.000000)">
                        <text id="Text:-16px-#333333" font-family="ArialMT, Arial" font-size="13" font-weight="normal" line-spacing="17" fill="#666666">
                            <tspan x="0" y="58">Text: 16px #333333	</tspan>
                        </text>
                        <text id="35px" font-family="ArialMT, Arial" font-size="13" font-weight="normal" line-spacing="17" fill="#666666">
                            <tspan x="110" y="22">35px</tspan>
                        </text>
                        <g id="buttons-/-tertiary">
                            <use id="Rectangle-26" stroke="#ACACAC" mask="url(#mask-6)" stroke-width="2" fill="#FFFFFF" xlink:href="#path-5"></use>
                            <text id="Tertiary" font-family="ArialMT, Arial" font-size="16" font-weight="normal" fill="#333333">
                                <tspan x="24.2734375" y="23">Tertiary</tspan>
                            </text>
                        </g>
                        <g id="Group" transform="translate(103.000000, 0.000000)" stroke="#979797" stroke-linecap="square">
                            <path d="M0,0.777777778 L6,0.777777778" id="Line"></path>
                            <path d="M0,34.2222222 L6,34.2222222" id="Line"></path>
                            <path d="M3,0.777777778 L3,33.4444444" id="Line"></path>
                        </g>
                    </g>
                    <g id="Group-4" transform="translate(253.000000, 138.000000)">
                        <text id="35px" font-family="ArialMT, Arial" font-size="13" font-weight="normal" line-spacing="17" fill="#666666">
                            <tspan x="131" y="22">35px</tspan>
                        </text>
                        <text id="Text:-16px-#333333" font-family="ArialMT, Arial" font-size="13" font-weight="normal" line-spacing="17" fill="#666666">
                            <tspan x="0" y="55">Text: 16px #333333	</tspan>
                        </text>
                        <g id="buttons-/-secondary">
                            <use id="Rectangle-26" stroke="#ACACAC" mask="url(#mask-8)" stroke-width="2" fill="url(#linearGradient-2)" xlink:href="#path-7"></use>
                            <text id="Secondary" font-family="ArialMT, Arial" font-size="16" font-weight="normal" fill="#333333">
                                <tspan x="21.7539062" y="24">Secondary</tspan>
                            </text>
                        </g>
                        <g id="Group" transform="translate(123.000000, 0.000000)" stroke="#979797" stroke-linecap="square">
                            <path d="M0,0.777777778 L6,0.777777778" id="Line"></path>
                            <path d="M0,34.2222222 L6,34.2222222" id="Line"></path>
                            <path d="M3,0.777777778 L3,33.4444444" id="Line"></path>
                        </g>
                    </g>
                    <g id="Group-5" transform="translate(65.000000, 138.000000)">
                        <text id="35px" font-family="ArialMT, Arial" font-size="13" font-weight="normal" line-spacing="17" fill="#666666">
                            <tspan x="111" y="22">35px</tspan>
                        </text>
                        <text id="Text:-16px-#FFFFFF" font-family="ArialMT, Arial" font-size="13" font-weight="normal" line-spacing="17" fill="#666666">
                            <tspan x="0" y="55">Text: 16px #FFFFFF	</tspan>
                        </text>
                        <g id="buttons-/-primary-(large)">
                            <rect id="Rectangle-26" fill="url(#linearGradient-1)" x="0" y="0" width="100" height="35"></rect>
                            <text id="Primary" font-family="ArialMT, Arial" font-size="16" font-weight="normal" fill="#FFFFFF">
                                <tspan x="22.9453125" y="24">Primary</tspan>
                            </text>
                        </g>
                        <g id="Group" transform="translate(102.000000, 0.000000)" stroke="#979797" stroke-linecap="square">
                            <path d="M0,0.777777778 L6,0.777777778" id="Line"></path>
                            <path d="M0,34.2222222 L6,34.2222222" id="Line"></path>
                            <path d="M3,0.777777778 L3,33.4444444" id="Line"></path>
                        </g>
                    </g>
                    <g id="Group-10" transform="translate(639.000000, 30.000000)">
                        <g id="add" transform="translate(1.000000, 0.000000)">
                            <use id="Rectangle-26" stroke="#ACACAC" mask="url(#mask-10)" stroke-width="2" fill="url(#linearGradient-2)" transform="translate(55.000000, 21.000000) scale(-1, 1) translate(-55.000000, -21.000000) " xlink:href="#path-9"></use>
                            <g id="Group-12" transform="translate(23.000000, 11.000000)">
                                <text id="Add-" font-family="ArialMT, Arial" font-size="18" font-weight="normal" fill="#333333">
                                    <tspan x="31" y="16">Add </tspan>
                                </text>
                                <g id="icon-/-add" transform="translate(0.000000, 1.000000)" fill="#666666">
                                    <polygon id="Page-1" points="6.975 0 6.975 6.975 0 6.975 0 11.025 6.975 11.025 6.975 18 11.025 18 11.025 11.025 18 11.025 18 6.975 11.025 6.975 11.025 0"></polygon>
                                </g>
                            </g>
                        </g>
                        <text id="Text:-18px-#333333" font-family="ArialMT, Arial" font-size="13" font-weight="normal" line-spacing="17" fill="#666666">
                            <tspan x="0" y="62">Text: 18px #333333	</tspan>
                        </text>
                        <text id="42px" font-family="ArialMT, Arial" font-size="13" font-weight="normal" line-spacing="17" fill="#666666">
                            <tspan x="121" y="26">42px</tspan>
                        </text>
                        <g id="Group" transform="translate(114.000000, 0.000000)" stroke="#979797" stroke-linecap="square">
                            <path d="M0,0.933333333 L6,0.933333333" id="Line"></path>
                            <path d="M0,41.0666667 L6,41.0666667" id="Line"></path>
                            <path d="M3,0.933333333 L3,40.1333333" id="Line"></path>
                        </g>
                    </g>
                    <g id="Group-16" transform="translate(640.000000, 138.000000)">
                        <g id="add-s">
                            <use id="Rectangle-26" stroke="#ACACAC" mask="url(#mask-12)" stroke-width="2" fill="url(#linearGradient-2)" xlink:href="#path-11"></use>
                            <g id="Group-12" transform="translate(23.000000, 9.000000)">
                                <text id="Add-" font-family="ArialMT, Arial" font-size="16" font-weight="normal" fill="#333333">
                                    <tspan x="31" y="15">Add </tspan>
                                </text>
                                <g id="icon-/-add" fill="#666666">
                                    <polygon id="Page-1" points="6.975 0 6.975 6.975 0 6.975 0 11.025 6.975 11.025 6.975 18 11.025 18 11.025 11.025 18 11.025 18 6.975 11.025 6.975 11.025 0"></polygon>
                                </g>
                            </g>
                        </g>
                        <text id="35px" font-family="ArialMT, Arial" font-size="13" font-weight="normal" line-spacing="17" fill="#666666">
                            <tspan x="121" y="22">35px</tspan>
                        </text>
                        <text id="Text:-16px-#333333" font-family="ArialMT, Arial" font-size="13" font-weight="normal" line-spacing="17" fill="#666666">
                            <tspan x="0" y="55">Text: 16px #333333	</tspan>
                        </text>
                        <g id="Group" transform="translate(113.000000, 0.000000)" stroke="#979797" stroke-linecap="square">
                            <path d="M0,0.777777778 L6,0.777777778" id="Line"></path>
                            <path d="M0,34.2222222 L6,34.2222222" id="Line"></path>
                            <path d="M3,0.777777778 L3,33.4444444" id="Line"></path>
                        </g>
                    </g>
                    <g id="Group-8" transform="translate(828.000000, 138.000000)">
                        <g id="search">
                            <g id="Group-11">
                                <use id="Rectangle-26" stroke="#ACACAC" mask="url(#mask-14)" stroke-width="2" fill="#FFFFFF" xlink:href="#path-13"></use>
                                <text id="Search" font-family="ArialMT, Arial" font-size="16" font-weight="normal" fill="#666666">
                                    <tspan x="10" y="23">Search</tspan>
                                </text>
                            </g>
                            <g id="Group-15" transform="translate(89.000000, 0.000000)" stroke="#ACACAC" stroke-width="2" fill="#F2F2F2">
                                <use id="Rectangle-36" mask="url(#mask-16)" xlink:href="#path-15"></use>
                            </g>
                            <g id="ico-search" transform="translate(103.000000, 9.000000)" fill="#333333">
                                <path d="M6.6259,13.4223 C8.0209,13.4223 9.3279,12.9863 10.3739,12.2893 C10.3739,12.2893 10.3739,12.3763 10.4609,12.3763 L15.6899,17.6063 C15.9519,17.8673 16.3009,17.9543 16.6489,17.9543 C16.9979,17.9543 17.3459,17.7803 17.6079,17.6063 C18.1309,17.0833 18.1309,16.2983 17.6079,15.7753 L12.3779,10.5463 L12.2909,10.4593 C12.9889,9.4133 13.4239,8.1053 13.4239,6.7113 C13.4239,2.9633 10.3739,0.0003 6.7129,0.0003 C2.9649,0.0003 0.0019,3.0503 0.0019,6.7113 C-0.0851,10.4593 2.8779,13.4223 6.6259,13.4223 M6.6259,1.7433 C9.4149,1.7433 11.5939,4.0093 11.5939,6.7113 C11.5939,9.5003 9.3279,11.6793 6.6259,11.6793 C3.8369,11.6793 1.6579,9.4133 1.6579,6.7113 C1.6579,3.9223 3.8369,1.7433 6.6259,1.7433" id="Fill-1"></path>
                            </g>
                        </g>
                        <text id="35px" font-family="ArialMT, Arial" font-size="13" font-weight="normal" line-spacing="17" fill="#666666">
                            <tspan x="145" y="22">35px</tspan>
                        </text>
                        <g id="Group" transform="translate(137.000000, 0.000000)" stroke="#979797" stroke-linecap="square">
                            <path d="M0,0.777777778 L6,0.777777778" id="Line"></path>
                            <path d="M0,34.2222222 L6,34.2222222" id="Line"></path>
                            <path d="M3,0.777777778 L3,33.4444444" id="Line"></path>
                        </g>
                    </g>
                    <g id="Group-7" transform="translate(828.000000, 30.000000)">
                        <g id="search">
                            <g id="Group-11">
                                <use id="Rectangle-26" stroke="#ACACAC" mask="url(#mask-18)" stroke-width="2" fill="#FFFFFF" xlink:href="#path-17"></use>
                                <text id="Search" font-family="ArialMT, Arial" font-size="16" font-weight="normal" fill="#666666">
                                    <tspan x="10" y="27">Search</tspan>
                                </text>
                            </g>
                            <g id="ico-search" transform="translate(89.000000, 0.000000)">
                                <use id="Rectangle-36" stroke="#ACACAC" mask="url(#mask-20)" stroke-width="2" fill="#F2F2F2" xlink:href="#path-19"></use>
                                <path d="M23.6258679,25.422 C25.0208679,25.422 26.3278679,24.986 27.3738679,24.289 C27.3738679,24.289 27.3738679,24.376 27.4608679,24.376 L32.6898679,29.606 C32.9518679,29.867 33.3008679,29.954 33.6488679,29.954 C33.9978679,29.954 34.3458679,29.78 34.6078679,29.606 C35.1308679,29.083 35.1308679,28.298 34.6078679,27.775 L29.3778679,22.546 L29.2908679,22.459 C29.9888679,21.413 30.4238679,20.105 30.4238679,18.711 C30.4238679,14.963 27.3738679,12 23.7128679,12 C19.9648679,12 17.0018679,15.05 17.0018679,18.711 C16.9148679,22.459 19.8778679,25.422 23.6258679,25.422 M23.6258679,13.743 C26.4148679,13.743 28.5938679,16.009 28.5938679,18.711 C28.5938679,21.5 26.3278679,23.679 23.6258679,23.679 C20.8368679,23.679 18.6578679,21.413 18.6578679,18.711 C18.6578679,15.922 20.8368679,13.743 23.6258679,13.743" id="Fill-1" fill="#333333"></path>
                            </g>
                        </g>
                        <text id="Icon-is-centered-on" font-family="ArialMT, Arial" font-size="13" font-weight="normal" line-spacing="9" fill="#666666">
                            <tspan x="0" y="64">Icon is centered on button </tspan>
                            <tspan x="0" y="83">vertically &amp; horizontally</tspan>
                        </text>
                        <text id="42px" font-family="ArialMT, Arial" font-size="13" font-weight="normal" line-spacing="17" fill="#666666">
                            <tspan x="151" y="26">42px</tspan>
                        </text>
                        <g id="Group" transform="translate(144.000000, 0.000000)" stroke="#979797" stroke-linecap="square">
                            <path d="M0,0.933333333 L6,0.933333333" id="Line"></path>
                            <path d="M0,41.0666667 L6,41.0666667" id="Line"></path>
                            <path d="M3,0.933333333 L3,40.1333333" id="Line"></path>
                        </g>
                    </g>
                </g>
            </g>
        </g>
    </g>
</svg>