<?xml version="1.0" encoding="UTF-8" standalone="no"?>
<svg width="708px" height="208px" viewBox="0 0 708 208" version="1.1" xmlns="http://www.w3.org/2000/svg" xmlns:xlink="http://www.w3.org/1999/xlink">
    <!-- Generator: Sketch 41.2 (35397) - http://www.bohemiancoding.com/sketch -->
    <title>component-tooltips</title>
    <desc>Created with Sketch.</desc>
    <defs>
        <path d="M43.4890511,80.2401034 L43.4890511,115 L291,115 L291,0 L43.4890511,0 L43.4890511,41.7598966 L23.7445255,61 L43.4890511,80.2401034 Z" id="path-1"></path>
        <filter x="-50%" y="-50%" width="200%" height="200%" filterUnits="objectBoundingBox" id="filter-2">
            <feOffset dx="0" dy="1" in="SourceAlpha" result="shadowOffsetOuter1"></feOffset>
            <feGaussianBlur stdDeviation="1" in="shadowOffsetOuter1" result="shadowBlurOuter1"></feGaussianBlur>
            <feColorMatrix values="0 0 0 0 0   0 0 0 0 0   0 0 0 0 0  0 0 0 0.5 0" type="matrix" in="shadowBlurOuter1"></feColorMatrix>
        </filter>
        <path d="M43.4890511,80.2401034 L43.4890511,115 L291,115 L291,0 L43.4890511,0 L43.4890511,41.7598966 L23.7445255,61 L43.4890511,80.2401034 Z" id="path-3"></path>
        <filter x="-50%" y="-50%" width="200%" height="200%" filterUnits="objectBoundingBox" id="filter-4">
            <feOffset dx="0" dy="1" in="SourceAlpha" result="shadowOffsetOuter1"></feOffset>
            <feGaussianBlur stdDeviation="1" in="shadowOffsetOuter1" result="shadowBlurOuter1"></feGaussianBlur>
            <feColorMatrix values="0 0 0 0 0   0 0 0 0 0   0 0 0 0 0  0 0 0 0.5 0" type="matrix" in="shadowBlurOuter1"></feColorMatrix>
        </filter>
    </defs>
    <g id="UI-elements-section" stroke="none" stroke-width="1" fill="none" fill-rule="evenodd">
        <g id="Component-Tool-tips" transform="translate(-247.000000, -666.000000)">
            <g id="component-tooltips" transform="translate(247.000000, 664.000000)">
                <g id="Group-5" transform="translate(0.000000, 34.000000)">
                    <g id="icon-/-help" transform="translate(0.000000, 53.000000)" fill="#666666">
                        <path d="M13.1888,7.4043 C13.0888,7.8033 12.8898,8.1023 12.6898,8.3023 C12.4908,8.6013 12.2908,8.8003 11.9918,8.9003 C11.6928,9.0003 11.4938,9.2993 11.1938,9.4983 C10.8948,9.6983 10.7948,9.8973 10.5958,10.0973 C10.3958,10.2963 10.2968,10.5953 10.2968,10.9943 L10.2968,11.5933 L8.0028,11.5933 L8.0028,10.7953 C8.0028,10.2963 8.1028,9.8973 8.3018,9.5983 C8.5018,9.2993 8.6008,9.0003 8.8008,8.8003 C8.9998,8.6013 9.1998,8.4013 9.3988,8.2023 C9.5988,8.0023 9.7978,7.9033 9.9978,7.7033 C10.1968,7.5043 10.2968,7.3043 10.4958,7.1053 C10.5958,6.9053 10.6958,6.6063 10.6958,6.3073 C10.6958,5.8083 10.5958,5.4093 10.2968,5.1103 C9.9978,4.8113 9.6978,4.7113 9.1998,4.7113 C8.8998,4.7113 8.6008,4.8113 8.4018,4.9113 C8.2018,5.0103 8.0028,5.2103 7.9028,5.4093 C7.8028,5.6093 7.7038,5.8083 7.6038,6.1073 C7.5038,6.4073 7.5038,6.7063 7.5038,7.0053 L5.0108,7.0053 C5.0108,6.4073 5.1108,5.8083 5.3098,5.3103 C5.5098,4.8113 5.8088,4.3123 6.1078,4.0133 C6.5068,3.6143 6.9058,3.3153 7.4038,3.1153 C7.9028,2.9163 8.5018,2.8163 9.0998,2.8163 C9.8978,2.8163 10.5958,2.9163 11.0948,3.1153 C11.5928,3.3153 12.0918,3.6143 12.3908,3.9133 C12.6898,4.2133 12.9898,4.6113 13.0888,5.0103 C13.1888,5.4093 13.2888,5.7093 13.2888,6.1073 C13.3878,6.6063 13.2888,7.1053 13.1888,7.4043 L13.1888,7.4043 Z M8.0028,15.2833 L10.2968,15.2833 L10.2968,12.8893 L8.0028,12.8893 L8.0028,15.2833 Z M11.6928,0.4233 C7.0058,-1.0727 1.9188,1.5203 0.4228,6.3073 C-1.0732,10.9943 1.5198,16.0813 6.3068,17.5773 C10.9948,19.0733 16.0808,16.4803 17.5768,11.6933 C19.0728,6.9053 16.4798,1.9193 11.6928,0.4233 L11.6928,0.4233 Z" id="Fill-1"></path>
                    </g>
                    <g id="Combined-Shape">
                        <use fill="black" fill-opacity="1" filter="url(#filter-2)" xlink:href="#path-1"></use>
                        <use fill="#EDEDED" fill-rule="evenodd" xlink:href="#path-1"></use>
                    </g>
                    <text id="Lorem-ipsum-dolor-si" font-family="ArialMT, Arial" font-size="14" font-weight="normal" line-spacing="21" fill="#333333">
                        <tspan x="82" y="29">Lorem ipsum dolor sit ame </tspan>
                        <tspan x="82" y="60">Lorem ipsum dolor sit amet</tspan>
                        <tspan x="82" y="91">Lorem ipsum dolor sit amet</tspan>
                    </text>
                    <g id="Group-6" transform="translate(66.000000, 23.000000)" fill="#666666">
                        <polygon id="Triangle-3" transform="translate(3.373832, 4.832857) rotate(-270.000000) translate(-3.373832, -4.832857) " points="3.37383241 2.33285713 7.37383241 7.33285713 -0.626167589 7.33285713"></polygon>
                        <polygon id="Triangle-3" transform="translate(3.373832, 34.832857) rotate(-270.000000) translate(-3.373832, -34.832857) " points="3.37383241 32.3328571 7.37383241 37.3328571 -0.626167589 37.3328571"></polygon>
                        <polygon id="Triangle-3" transform="translate(3.373832, 65.832857) rotate(-270.000000) translate(-3.373832, -65.832857) " points="3.37383241 63.3328571 7.37383241 68.3328571 -0.626167589 68.3328571"></polygon>
                    </g>
                    <g id="icon-/-close-small" transform="translate(268.000000, 10.000000)" fill="#666666">
                        <polygon id="Page-1" points="11.1944444 0 6.5 4.69444444 1.80555556 0 0 1.80555556 4.69444444 6.5 0 11.1944444 1.80555556 13 6.5 8.30555556 11.1944444 13 13 11.1944444 8.30555556 6.5 13 1.80555556"></polygon>
                    </g>
                </g>
                <g id="Group-5" transform="translate(368.000000, 34.000000)">
                    <rect id="Rectangle-25" fill="#EDEDED" x="0" y="0" width="340" height="163"></rect>
                    <g id="white" transform="translate(25.000000, 24.000000)">
                        <g id="icon-/-help" transform="translate(0.000000, 53.000000)" fill="#666666">
                            <path d="M13.1888,7.4043 C13.0888,7.8033 12.8898,8.1023 12.6898,8.3023 C12.4908,8.6013 12.2908,8.8003 11.9918,8.9003 C11.6928,9.0003 11.4938,9.2993 11.1938,9.4983 C10.8948,9.6983 10.7948,9.8973 10.5958,10.0973 C10.3958,10.2963 10.2968,10.5953 10.2968,10.9943 L10.2968,11.5933 L8.0028,11.5933 L8.0028,10.7953 C8.0028,10.2963 8.1028,9.8973 8.3018,9.5983 C8.5018,9.2993 8.6008,9.0003 8.8008,8.8003 C8.9998,8.6013 9.1998,8.4013 9.3988,8.2023 C9.5988,8.0023 9.7978,7.9033 9.9978,7.7033 C10.1968,7.5043 10.2968,7.3043 10.4958,7.1053 C10.5958,6.9053 10.6958,6.6063 10.6958,6.3073 C10.6958,5.8083 10.5958,5.4093 10.2968,5.1103 C9.9978,4.8113 9.6978,4.7113 9.1998,4.7113 C8.8998,4.7113 8.6008,4.8113 8.4018,4.9113 C8.2018,5.0103 8.0028,5.2103 7.9028,5.4093 C7.8028,5.6093 7.7038,5.8083 7.6038,6.1073 C7.5038,6.4073 7.5038,6.7063 7.5038,7.0053 L5.0108,7.0053 C5.0108,6.4073 5.1108,5.8083 5.3098,5.3103 C5.5098,4.8113 5.8088,4.3123 6.1078,4.0133 C6.5068,3.6143 6.9058,3.3153 7.4038,3.1153 C7.9028,2.9163 8.5018,2.8163 9.0998,2.8163 C9.8978,2.8163 10.5958,2.9163 11.0948,3.1153 C11.5928,3.3153 12.0918,3.6143 12.3908,3.9133 C12.6898,4.2133 12.9898,4.6113 13.0888,5.0103 C13.1888,5.4093 13.2888,5.7093 13.2888,6.1073 C13.3878,6.6063 13.2888,7.1053 13.1888,7.4043 L13.1888,7.4043 Z M8.0028,15.2833 L10.2968,15.2833 L10.2968,12.8893 L8.0028,12.8893 L8.0028,15.2833 Z M11.6928,0.4233 C7.0058,-1.0727 1.9188,1.5203 0.4228,6.3073 C-1.0732,10.9943 1.5198,16.0813 6.3068,17.5773 C10.9948,19.0733 16.0808,16.4803 17.5768,11.6933 C19.0728,6.9053 16.4798,1.9193 11.6928,0.4233 L11.6928,0.4233 Z" id="Fill-1"></path>
                        </g>
                        <g id="Combined-Shape">
                            <use fill="black" fill-opacity="1" filter="url(#filter-4)" xlink:href="#path-3"></use>
                            <use fill="#FFFFFF" fill-rule="evenodd" xlink:href="#path-3"></use>
                        </g>
                        <text id="Lorem-ipsum-dolor-si" font-family="ArialMT, Arial" font-size="14" font-weight="normal" line-spacing="21" fill="#333333">
                            <tspan x="82" y="29">Lorem ipsum dolor sit ame </tspan>
                            <tspan x="82" y="60">Lorem ipsum dolor sit amet</tspan>
                            <tspan x="82" y="91">Lorem ipsum dolor sit amet</tspan>
                        </text>
                        <g id="Group-6" transform="translate(66.000000, 23.000000)" fill="#666666">
                            <polygon id="Triangle-3" transform="translate(3.373832, 4.832857) rotate(-270.000000) translate(-3.373832, -4.832857) " points="3.37383241 2.33285713 7.37383241 7.33285713 -0.626167589 7.33285713"></polygon>
                            <polygon id="Triangle-3" transform="translate(3.373832, 34.832857) rotate(-270.000000) translate(-3.373832, -34.832857) " points="3.37383241 32.3328571 7.37383241 37.3328571 -0.626167589 37.3328571"></polygon>
                            <polygon id="Triangle-3" transform="translate(3.373832, 65.832857) rotate(-270.000000) translate(-3.373832, -65.832857) " points="3.37383241 63.3328571 7.37383241 68.3328571 -0.626167589 68.3328571"></polygon>
                        </g>
                        <g id="icon-/-close-small" transform="translate(268.000000, 10.000000)" fill="#666666">
                            <polygon id="Page-1" points="11.1944444 0 6.5 4.69444444 1.80555556 0 0 1.80555556 4.69444444 6.5 0 11.1944444 1.80555556 13 6.5 8.30555556 11.1944444 13 13 11.1944444 8.30555556 6.5 13 1.80555556"></polygon>
                        </g>
                    </g>
                </g>
                <text id="Main-tool-tip-style" font-family="ArialMT, Arial" font-size="14" font-weight="normal" fill="#666666">
                    <tspan x="1" y="13">Main tool tip style (over white background)</tspan>
                </text>
                <text id="Variation-on-tool-ti" font-family="ArialMT, Arial" font-size="14" font-weight="normal" fill="#666666">
                    <tspan x="369" y="13">Variation on tool tip style (over gray background)</tspan>
                </text>
                <text id="Fill:-#EDEDED" font-family="ArialMT, Arial" font-size="13" font-weight="normal" line-spacing="10" fill="#666666">
                    <tspan x="214" y="186">Fill: #EDEDED</tspan>
                </text>
                <path d="M281,138 L281,168" id="Line" stroke="#979797" stroke-linecap="square"></path>
                <text id="Text:-Arial-14-px-#3" font-family="ArialMT, Arial" font-size="13" font-weight="normal" line-spacing="10" fill="#666666">
                    <tspan x="43" y="186">Text: Arial 14 px #333333</tspan>
                </text>
                <path d="M140,130 L140,170" id="Line" stroke="#979797" stroke-linecap="square"></path>
                <path d="M268,34 L268,154" id="Line" stroke="#979797" stroke-linecap="square" stroke-dasharray="4"></path>
                <path d="M22,64 L22,124" id="Line" stroke="#979797" stroke-linecap="square" stroke-dasharray="4"></path>
                <path d="M43,64 L43,124" id="Line" stroke="#979797" stroke-linecap="square" stroke-dasharray="4"></path>
                <text id="Fill:-#FFFFFF" font-family="ArialMT, Arial" font-size="13" font-weight="normal" line-spacing="10" fill="#666666">
                    <tspan x="498" y="210.625">Fill: #FFFFFF</tspan>
                </text>
                <path d="M535,163 L535,193" id="Line" stroke="#979797" stroke-linecap="square"></path>
                <g id="Group-4" transform="translate(81.000000, 34.000000)">
                    <text id="20px" font-family="ArialMT, Arial" font-size="13" font-weight="normal" line-spacing="17" fill="#666666">
                        <tspan x="10" y="14">20px</tspan>
                    </text>
                    <g id="Group" stroke="#979797" stroke-linecap="square">
                        <path d="M3,0.875 L3,20.875" id="Line"></path>
                    </g>
                </g>
                <g id="Group-4" transform="translate(276.000000, 31.000000)">
                    <text id="10px" font-family="ArialMT, Arial" font-size="13" font-weight="normal" line-spacing="17" fill="#666666">
                        <tspan x="5" y="12">10px</tspan>
                    </text>
                    <g id="Group" transform="translate(0.000000, 3.000000)" stroke="#979797" stroke-linecap="square">
                        <path d="M3,0.357954545 L3,8.53977273" id="Line"></path>
                    </g>
                </g>
                <g id="Group-4" transform="translate(81.000000, 128.000000)">
                    <text id="20px" font-family="ArialMT, Arial" font-size="13" font-weight="normal" line-spacing="17" fill="#666666">
                        <tspan x="10" y="14">20px</tspan>
                    </text>
                    <g id="Group" stroke="#979797" stroke-linecap="square">
                        <path d="M3,0.875 L3,20.875" id="Line"></path>
                    </g>
                </g>
                <g id="Group-4" transform="translate(44.000000, 103.000000)">
                    <text id="20px" font-family="ArialMT, Arial" font-size="13" font-weight="normal" line-spacing="17" fill="#666666">
                        <tspan x="1" y="12">20px</tspan>
                    </text>
                    <path d="M20,19.875 L0,19.875" id="Line" stroke="#979797" stroke-linecap="square"></path>
                </g>
                <g id="Group-4" transform="translate(281.000000, 53.000000)">
                    <text id="10px" font-family="ArialMT, Arial" font-size="13" font-weight="normal" line-spacing="17" fill="#666666">
                        <tspan x="0" y="16">10px</tspan>
                    </text>
                    <path d="M10,1.875 L0,1.875" id="Line" stroke="#979797" stroke-linecap="square"></path>
                </g>
                <g id="Group-4" transform="translate(22.000000, 76.000000)">
                    <text id="20px" font-family="ArialMT, Arial" font-size="13" font-weight="normal" line-spacing="17" fill="#666666">
                        <tspan x="1" y="12">20px</tspan>
                    </text>
                    <path d="M20,19.875 L0,19.875" id="Line" stroke="#979797" stroke-linecap="square"></path>
                </g>
                <g id="Group-4" transform="translate(237.000000, 40.000000)">
                    <text id="10px" font-family="ArialMT, Arial" font-size="13" font-weight="normal" line-spacing="17" fill="#666666">
                        <tspan x="0" y="12">10px</tspan>
                    </text>
                    <path d="M30,20.875 L10,20.875" id="Line" stroke="#979797" stroke-linecap="square"></path>
                </g>
                <g id="5px" transform="translate(456.000000, 57.000000)">
                    <text font-family="ArialMT, Arial" font-size="13" font-weight="normal" line-spacing="17" fill="#666666">
                        <tspan x="0" y="12">5px</tspan>
                    </text>
                    <g id="Group" transform="translate(6.500000, 20.500000) rotate(90.000000) translate(-6.500000, -20.500000) translate(3.500000, 17.000000)" stroke="#979797" stroke-linecap="square">
                        <path d="M0,0.509090909 L6,0.509090909" id="Line"></path>
                        <path d="M0,6.49090909 L6,6.49090909" id="Line"></path>
                        <path d="M3,1.05454545 L3,6.05454545" id="Line"></path>
                    </g>
                </g>
                <g id="Group" transform="translate(453.000000, 81.000000)" stroke="#979797" stroke-linecap="square">
                    <path d="M0,0.477272727 L6,0.477272727" id="Line"></path>
                    <path d="M0,9.45454545 L6,9.45454545" id="Line"></path>
                    <path d="M3,1.02272727 L3,9.02272727" id="Line"></path>
                </g>
                <text id="8px" font-family="ArialMT, Arial" font-size="13" font-weight="normal" line-spacing="17" fill="#666666">
                    <tspan x="432" y="89">8px</tspan>
                </text>
            </g>
        </g>
    </g>
</svg>