<?xml version="1.0" encoding="UTF-8" standalone="no"?>
<svg width="664px" height="484px" viewBox="0 0 664 484" version="1.1" xmlns="http://www.w3.org/2000/svg" xmlns:xlink="http://www.w3.org/1999/xlink">
    <!-- Generator: Sketch 41.2 (35397) - http://www.bohemiancoding.com/sketch -->
    <title>component-tooltips-example</title>
    <desc>Created with Sketch.</desc>
    <defs>
        <rect id="path-1" x="0" y="2.84217094e-14" width="660" height="480"></rect>
        <filter x="-50%" y="-50%" width="200%" height="200%" filterUnits="objectBoundingBox" id="filter-2">
            <feOffset dx="0" dy="1" in="SourceAlpha" result="shadowOffsetOuter1"></feOffset>
            <feGaussianBlur stdDeviation="1" in="shadowOffsetOuter1" result="shadowBlurOuter1"></feGaussianBlur>
            <feColorMatrix values="0 0 0 0 0   0 0 0 0 0   0 0 0 0 0  0 0 0 0.5 0" type="matrix" in="shadowBlurOuter1"></feColorMatrix>
        </filter>
        <linearGradient x1="50%" y1="0%" x2="50%" y2="100%" id="linearGradient-3">
            <stop stop-color="#FFFFFF" offset="0%"></stop>
            <stop stop-color="#DDDDDD" offset="100%"></stop>
        </linearGradient>
        <rect id="path-4" x="0" y="0" width="149" height="42"></rect>
        <mask id="mask-5" maskContentUnits="userSpaceOnUse" maskUnits="objectBoundingBox" x="0" y="0" width="149" height="42" fill="white">
            <use xlink:href="#path-4"></use>
        </mask>
        <rect id="path-6" x="0" y="0" width="149" height="42"></rect>
        <mask id="mask-7" maskContentUnits="userSpaceOnUse" maskUnits="objectBoundingBox" x="0" y="0" width="149" height="42" fill="white">
            <use xlink:href="#path-6"></use>
        </mask>
        <path d="M132.463504,40 L0.489051095,40 L0.489051095,345 L300.489051,345 L300.489051,40 L169.492701,40 L150.978102,21 L132.463504,40 Z" id="path-8"></path>
        <filter x="-50%" y="-50%" width="200%" height="200%" filterUnits="objectBoundingBox" id="filter-9">
            <feOffset dx="0" dy="1" in="SourceAlpha" result="shadowOffsetOuter1"></feOffset>
            <feGaussianBlur stdDeviation="1" in="shadowOffsetOuter1" result="shadowBlurOuter1"></feGaussianBlur>
            <feColorMatrix values="0 0 0 0 0   0 0 0 0 0   0 0 0 0 0  0 0 0 0.5 0" type="matrix" in="shadowBlurOuter1"></feColorMatrix>
        </filter>
    </defs>
    <g id="UI-elements-section" stroke="none" stroke-width="1" fill="none" fill-rule="evenodd">
        <g id="Component-Tool-tips" transform="translate(-248.000000, -948.000000)">
            <g id="component-tooltips-example" transform="translate(250.000000, 949.000000)">
                <g id="Group-5">
                    <g id="Group">
                        <g id="Rectangle-4">
                            <use fill="black" fill-opacity="1" filter="url(#filter-2)" xlink:href="#path-1"></use>
                            <use fill="#FFFFFF" fill-rule="evenodd" xlink:href="#path-1"></use>
                        </g>
                        <rect id="Rectangle-25" fill="#EDEDED" x="30" y="186" width="600" height="82"></rect>
                        <rect id="Rectangle-25" fill="#EDEDED" x="30" y="278" width="600" height="82"></rect>
                        <g id="Group-8" transform="translate(461.000000, 206.000000)">
                            <use id="Rectangle-26" stroke="#ACACAC" mask="url(#mask-5)" stroke-width="2" fill="url(#linearGradient-3)" xlink:href="#path-4"></use>
                            <text id="Call-me" font-family="ArialMT, Arial" font-size="18" font-weight="normal" fill="#333333">
                                <tspan x="43.9931641" y="27">Call me</tspan>
                            </text>
                        </g>
                        <g id="Group-8" transform="translate(461.000000, 298.000000)">
                            <use id="Rectangle-26" stroke="#ACACAC" mask="url(#mask-7)" stroke-width="2" fill="url(#linearGradient-3)" xlink:href="#path-6"></use>
                            <text id="Email-me" font-family="ArialMT, Arial" font-size="18" font-weight="normal" fill="#333333">
                                <tspan x="36.9926758" y="27">Email me</tspan>
                            </text>
                        </g>
                        <text id="Is-this-really-you?" font-family="ArialMT, Arial" font-size="24" font-weight="normal" fill="#333333">
                            <tspan x="30" y="48">Is this really you?</tspan>
                        </text>
                        <text id="How-do-you-want-to-b" font-family="ArialMT, Arial" font-size="18" font-weight="normal" fill="#333333">
                            <tspan x="30" y="153">How do you want to be verified?</tspan>
                        </text>
                    </g>
                </g>
                <text id="To-verify-your-ident" font-family="ArialMT, Arial" font-size="16" font-weight="normal" line-spacing="23" fill="#666666">
                    <tspan x="30" y="76">To verify your identity and protect your account, we’re going to send you a verification </tspan>
                    <tspan x="30" y="99">code to type in.</tspan>
                </text>
                <text id="Send-a-verification" font-family="ArialMT, Arial" font-size="16" font-weight="normal" line-spacing="23" fill="#666666">
                    <tspan x="30" y="172">Send a verification code</tspan>
                </text>
                <text id="Message-and-data-rat" font-family="ArialMT, Arial" font-size="14" font-weight="normal" line-spacing="17" fill="#666666">
                    <tspan x="30" y="398">Message and data rates may apply for text option. For help or information send “help” to 44833. </tspan>
                    <tspan x="30" y="415">To cancel at anytime send “stop” to 44833. By clicking Text me button you agree to the</tspan>
                </text>
                <text id="Terms" font-family="ArialMT, Arial" font-size="14" font-weight="normal" text-decoration="underline" fill="#0055CC">
                    <tspan x="569" y="416">Terms</tspan>
                </text>
                <text id="and-Conditions-and-P" font-family="ArialMT, Arial" font-size="14" font-weight="normal" text-decoration="underline" fill="#0055CC">
                    <tspan x="30" y="436">and Conditions and Privacy </tspan>
                </text>
                <g id="icon-/-email" transform="translate(52.000000, 307.000000)" fill="#666666">
                    <path d="M18,1.0189 L9,9.4249 L0,1.1039 L0,11.6319 L3.651,7.6419 C3.651,7.6419 4.075,7.3019 4.5,7.6419 C4.925,7.9809 4.67,8.4909 4.67,8.4909 L1.189,12.1419 L16.811,12.1419 L13.33,8.4909 C13.33,8.4909 13.16,8.0659 13.5,7.6419 C13.84,7.3019 14.349,7.6419 14.349,7.6419 L18,11.6319 L18,1.0189 Z M1.019,-0.0001 L9,6.7079 L16.981,-0.0001 L1.019,-0.0001 Z" id="Fill-1"></path>
                </g>
                <g id="icon-/-support" transform="translate(52.000000, 213.000000)" fill="#666666">
                    <path d="M7.51700871,10.2615357 C8.66000871,11.5685357 10.2120087,13.5285357 10.6210087,13.6915357 C10.9470087,13.8555357 10.8660087,13.8555357 11.0290087,13.7735357 C11.3560087,13.6105357 11.5190087,13.5285357 11.6010087,13.1205357 C11.6010087,12.9565357 12.9070087,11.7315357 12.9070087,11.7315357 C12.9070087,11.7315357 13.5610087,11.2415357 13.8870087,11.4865357 C14.2140087,11.7315357 16.8280087,14.1815357 16.8280087,14.1815357 C16.8280087,14.1815357 17.4810087,14.7535357 16.9910087,15.4065357 C16.5010087,16.0605357 15.5210087,17.3665357 14.7860087,17.6935357 C14.0510087,18.0205357 12.0090087,18.2655357 10.7020087,17.4485357 C9.64000871,16.8765357 6.12900871,13.9365357 4.49500871,11.8945357 C2.94300871,10.0165357 0.983008713,7.32153571 0.412008713,6.17753571 C-0.322991287,4.78953571 0.0850087125,2.74753571 0.412008713,2.09453571 C0.738008713,1.44053571 2.04500871,0.542535711 2.78000871,0.134535711 C3.51500871,-0.274464289 4.00500871,0.379535711 4.00500871,0.379535711 C4.00500871,0.379535711 6.21000871,3.15653571 6.37400871,3.48253571 C6.53700871,3.80953571 6.04700871,4.46253571 6.04700871,4.46253571 C6.04700871,4.46253571 4.90300871,5.52453571 4.74000871,5.60653571 C4.33200871,5.76953571 4.25000871,5.76953571 4.08700871,6.09653571 C4.00500871,6.25953571 4.00500871,6.17753571 4.16800871,6.58653571 C4.33200871,6.99453571 6.37400871,8.95453571 7.51700871,10.2615357" id="Fill-1"></path>
                </g>
                <g id="Group-7" transform="translate(80.000000, 29.000000)">
                    <g id="Group-5">
                        <g id="icon-/-help" transform="translate(142.000000, 0.000000)" fill="#666666">
                            <path d="M13.1888,7.4043 C13.0888,7.8033 12.8898,8.1023 12.6898,8.3023 C12.4908,8.6013 12.2908,8.8003 11.9918,8.9003 C11.6928,9.0003 11.4938,9.2993 11.1938,9.4983 C10.8948,9.6983 10.7948,9.8973 10.5958,10.0973 C10.3958,10.2963 10.2968,10.5953 10.2968,10.9943 L10.2968,11.5933 L8.0028,11.5933 L8.0028,10.7953 C8.0028,10.2963 8.1028,9.8973 8.3018,9.5983 C8.5018,9.2993 8.6008,9.0003 8.8008,8.8003 C8.9998,8.6013 9.1998,8.4013 9.3988,8.2023 C9.5988,8.0023 9.7978,7.9033 9.9978,7.7033 C10.1968,7.5043 10.2968,7.3043 10.4958,7.1053 C10.5958,6.9053 10.6958,6.6063 10.6958,6.3073 C10.6958,5.8083 10.5958,5.4093 10.2968,5.1103 C9.9978,4.8113 9.6978,4.7113 9.1998,4.7113 C8.8998,4.7113 8.6008,4.8113 8.4018,4.9113 C8.2018,5.0103 8.0028,5.2103 7.9028,5.4093 C7.8028,5.6093 7.7038,5.8083 7.6038,6.1073 C7.5038,6.4073 7.5038,6.7063 7.5038,7.0053 L5.0108,7.0053 C5.0108,6.4073 5.1108,5.8083 5.3098,5.3103 C5.5098,4.8113 5.8088,4.3123 6.1078,4.0133 C6.5068,3.6143 6.9058,3.3153 7.4038,3.1153 C7.9028,2.9163 8.5018,2.8163 9.0998,2.8163 C9.8978,2.8163 10.5958,2.9163 11.0948,3.1153 C11.5928,3.3153 12.0918,3.6143 12.3908,3.9133 C12.6898,4.2133 12.9898,4.6113 13.0888,5.0103 C13.1888,5.4093 13.2888,5.7093 13.2888,6.1073 C13.3878,6.6063 13.2888,7.1053 13.1888,7.4043 L13.1888,7.4043 Z M8.0028,15.2833 L10.2968,15.2833 L10.2968,12.8893 L8.0028,12.8893 L8.0028,15.2833 Z M11.6928,0.4233 C7.0058,-1.0727 1.9188,1.5203 0.4228,6.3073 C-1.0732,10.9943 1.5198,16.0813 6.3068,17.5773 C10.9948,19.0733 16.0808,16.4803 17.5768,11.6933 C19.0728,6.9053 16.4798,1.9193 11.6928,0.4233 L11.6928,0.4233 Z" id="Fill-1"></path>
                        </g>
                        <g id="Combined-Shape">
                            <use fill="black" fill-opacity="1" filter="url(#filter-9)" xlink:href="#path-8"></use>
                            <use fill="#EDEDED" fill-rule="evenodd" xlink:href="#path-8"></use>
                        </g>
                        <text id="You-recently-cleared" font-family="ArialMT, Arial" font-size="14" font-weight="normal" line-spacing="20" fill="#333333">
                            <tspan x="39" y="140">You recently cleared your cookies </tspan>
                            <tspan x="39" y="170"> </tspan>
                            <tspan x="39" y="200">You are browsing in private ir incognito </tspan>
                            <tspan x="39" y="220">mode</tspan>
                            <tspan x="39" y="250">You are using a different browser from </tspan>
                            <tspan x="39" y="270">the one you set last time</tspan>
                            <tspan x="39" y="300">You knowingly or unknowningly asked </tspan>
                            <tspan x="39" y="320">to skip this extra security step</tspan>
                        </text>
                        <text id="Learn-more" font-family="ArialMT, Arial" font-size="14" font-weight="normal" line-spacing="20" text-decoration="underline" fill="#0055CC">
                            <tspan x="39" y="160">Learn more </tspan>
                        </text>
                        <g id="Group-6" transform="translate(23.000000, 133.000000)" fill="#666666">
                            <polygon id="Triangle-3" transform="translate(3.373832, 4.832857) rotate(-270.000000) translate(-3.373832, -4.832857) " points="3.37383241 2.33285713 7.37383241 7.33285713 -0.626167589 7.33285713"></polygon>
                            <polygon id="Triangle-3" transform="translate(3.373832, 64.832857) rotate(-270.000000) translate(-3.373832, -64.832857) " points="3.37383241 62.3328571 7.37383241 67.3328571 -0.626167589 67.3328571"></polygon>
                            <polygon id="Triangle-3" transform="translate(3.373832, 115.832857) rotate(-270.000000) translate(-3.373832, -115.832857) " points="3.37383241 113.332857 7.37383241 118.332857 -0.626167589 118.332857"></polygon>
                            <polygon id="Triangle-3" transform="translate(3.373832, 165.832857) rotate(-270.000000) translate(-3.373832, -165.832857) " points="3.37383241 163.332857 7.37383241 168.332857 -0.626167589 168.332857"></polygon>
                        </g>
                        <g id="icon-/-close-small" transform="translate(277.000000, 50.000000)" fill="#666666">
                            <polygon id="Page-1" points="11.1944444 0 6.5 4.69444444 1.80555556 0 0 1.80555556 4.69444444 6.5 0 11.1944444 1.80555556 13 6.5 8.30555556 11.1944444 13 13 11.1944444 8.30555556 6.5 13 1.80555556"></polygon>
                        </g>
                    </g>
                    <text id="Why-did-I-get-this-p" font-family="ArialMT, Arial" font-size="18" font-weight="normal" fill="#333333">
                        <tspan x="37" y="91">Why did I get this page?</tspan>
                    </text>
                    <text id="Common-reasons-inclu" font-family="ArialMT, Arial" font-size="14" font-weight="normal" fill="#333333">
                        <tspan x="39" y="118">Common reasons include:</tspan>
                    </text>
                </g>
            </g>
        </g>
    </g>
</svg>