<?xml version="1.0" encoding="UTF-8" standalone="no"?>
<svg width="704px" height="264px" viewBox="0 0 704 264" version="1.1" xmlns="http://www.w3.org/2000/svg" xmlns:xlink="http://www.w3.org/1999/xlink">
    <!-- Generator: Sketch 41.2 (35397) - http://www.bohemiancoding.com/sketch -->
    <title>component-messaging-notifications108</title>
    <desc>Created with Sketch.</desc>
    <defs>
        <rect id="path-1" x="0" y="0" width="700" height="260"></rect>
        <filter x="-50%" y="-50%" width="200%" height="200%" filterUnits="objectBoundingBox" id="filter-2">
            <feOffset dx="0" dy="1" in="SourceAlpha" result="shadowOffsetOuter1"></feOffset>
            <feGaussianBlur stdDeviation="1" in="shadowOffsetOuter1" result="shadowBlurOuter1"></feGaussianBlur>
            <feColorMatrix values="0 0 0 0 0   0 0 0 0 0   0 0 0 0 0  0 0 0 0.5 0" type="matrix" in="shadowBlurOuter1"></feColorMatrix>
        </filter>
    </defs>
    <g id="UI-elements-section" stroke="none" stroke-width="1" fill="none" fill-rule="evenodd">
        <g id="Component-Messaging-and-Notifications" transform="translate(-247.000000, -3519.000000)">
            <g id="component-messaging-notifications108" transform="translate(249.000000, 3520.000000)">
                <g id="Rectangle-4">
                    <use fill="black" fill-opacity="1" filter="url(#filter-2)" xlink:href="#path-1"></use>
                    <use fill="#FFFFFF" fill-rule="evenodd" xlink:href="#path-1"></use>
                </g>
                <text id="Stop-payments" font-family="ArialMT, Arial" font-size="28" font-weight="normal" fill="#333333">
                    <tspan x="30" y="60">Stop payments</tspan>
                </text>
                <path d="M30,79 L670,79" id="Line" stroke="#CCCCCC" stroke-width="3" stroke-linecap="square"></path>
                <g id="Group-5" transform="translate(33.000000, 128.000000)">
                    <text id="Looks-like-your-acco" font-family="ArialMT, Arial" font-size="22" font-weight="normal" fill="#333333">
                        <tspan x="25.4057617" y="20">Looks like your account information is temporarily unavailable</tspan>
                    </text>
                    <text id="Please-try-again-lat" font-family="ArialMT, Arial" font-size="18" font-weight="normal" fill="#333333">
                        <tspan x="193.498578" y="50">Please try again later.</tspan>
                    </text>
                    <g id="icon-/-error" transform="translate(0.000000, 3.000000)" fill="#C90202">
                        <path d="M9.7047,11.7 L8.3047,11.7 L8.0047,5 L10.0047,5 L9.7047,11.7 Z M9.0047,16 C8.4047,16 8.0047,15.6 8.0047,15 C8.0047,14.4 8.4047,14 9.0047,14 C9.6047,14 10.0047,14.4 10.0047,15 C10.0047,15.6 9.6047,16 9.0047,16 L9.0047,16 Z M17.6047,14.7 L10.7047,1.4 C10.2047,0.5 9.6047,0 9.0047,0 C8.4047,0 7.8047,0.5 7.3047,1.4 L0.4047,14.7 C-0.0953,15.7 -0.0953,16.5 0.2047,17.1 C0.5047,17.7 1.3047,18 2.3047,18 L15.7047,18 C16.7047,18 17.4047,17.7 17.8047,17.1 C18.1047,16.5 18.1047,15.6 17.6047,14.7 L17.6047,14.7 Z" id="Fill-1"></path>
                    </g>
                </g>
            </g>
        </g>
    </g>
</svg>