<?xml version="1.0" encoding="UTF-8" standalone="no"?>
<svg width="200px" height="65px" viewBox="0 0 200 65" version="1.1" xmlns="http://www.w3.org/2000/svg" xmlns:xlink="http://www.w3.org/1999/xlink">
    <!-- Generator: Sketch 41.2 (35397) - http://www.bohemiancoding.com/sketch -->
    <title>component-input-fields-error</title>
    <desc>Created with Sketch.</desc>
    <defs>
        <rect id="path-1" x="0" y="0" width="200" height="42"></rect>
        <mask id="mask-2" maskContentUnits="userSpaceOnUse" maskUnits="objectBoundingBox" x="0" y="0" width="200" height="42" fill="white">
            <use xlink:href="#path-1"></use>
        </mask>
    </defs>
    <g id="UI-elements-section" stroke="none" stroke-width="1" fill="none" fill-rule="evenodd">
        <g id="Component-Input-fields" transform="translate(-248.000000, -1491.000000)">
            <g id="Group-16" transform="translate(238.000000, 1202.000000)">
                <g id="component-input-fields-error" transform="translate(10.000000, 289.000000)">
                    <g id="Input-/-Text">
                        <use id="Input-Background" stroke="#C90202" mask="url(#mask-2)" stroke-width="4" fill="#FFFFFF" xlink:href="#path-1"></use>
                        <text id="Input-Value" font-family="ArialMT, Arial" font-size="16" font-weight="normal" fill="#333333">
                            <tspan x="11" y="26">Input value</tspan>
                        </text>
                    </g>
                    <g id="Group-5" transform="translate(0.000000, 47.000000)" fill="#C90202">
                        <text id="Error-message-goes-h" font-family="ArialMT, Arial" font-size="14" font-weight="normal">
                            <tspan x="27" y="14">Error message goes here.</tspan>
                        </text>
                        <g id="icon-/-error">
                            <path d="M9.7047,11.7 L8.3047,11.7 L8.0047,5 L10.0047,5 L9.7047,11.7 Z M9.0047,16 C8.4047,16 8.0047,15.6 8.0047,15 C8.0047,14.4 8.4047,14 9.0047,14 C9.6047,14 10.0047,14.4 10.0047,15 C10.0047,15.6 9.6047,16 9.0047,16 L9.0047,16 Z M17.6047,14.7 L10.7047,1.4 C10.2047,0.5 9.6047,0 9.0047,0 C8.4047,0 7.8047,0.5 7.3047,1.4 L0.4047,14.7 C-0.0953,15.7 -0.0953,16.5 0.2047,17.1 C0.5047,17.7 1.3047,18 2.3047,18 L15.7047,18 C16.7047,18 17.4047,17.7 17.8047,17.1 C18.1047,16.5 18.1047,15.6 17.6047,14.7 L17.6047,14.7 Z" id="Fill-1"></path>
                        </g>
                    </g>
                </g>
            </g>
        </g>
    </g>
</svg>