<?xml version="1.0" encoding="UTF-8" standalone="no"?>
<svg width="704px" height="264px" viewBox="0 0 704 264" version="1.1" xmlns="http://www.w3.org/2000/svg" xmlns:xlink="http://www.w3.org/1999/xlink">
    <!-- Generator: Sketch 41.2 (35397) - http://www.bohemiancoding.com/sketch -->
    <title>component-messaging-notifications107</title>
    <desc>Created with Sketch.</desc>
    <defs>
        <rect id="path-1" x="0" y="0" width="700" height="260"></rect>
        <filter x="-50%" y="-50%" width="200%" height="200%" filterUnits="objectBoundingBox" id="filter-2">
            <feOffset dx="0" dy="1" in="SourceAlpha" result="shadowOffsetOuter1"></feOffset>
            <feGaussianBlur stdDeviation="1" in="shadowOffsetOuter1" result="shadowBlurOuter1"></feGaussianBlur>
            <feColorMatrix values="0 0 0 0 0   0 0 0 0 0   0 0 0 0 0  0 0 0 0.5 0" type="matrix" in="shadowBlurOuter1"></feColorMatrix>
        </filter>
        <path d="M15,30 C23.2842712,30 30,23.2842712 30,15 C30,9.8924582 27.4472494,5.38114325 23.5480133,2.67232019 C21.1228117,0.987517919 18.1767295,0 15,0 C6.71572875,0 0,6.71572875 0,15 C0,23.2842712 6.71572875,30 15,30 Z" id="path-3"></path>
        <filter x="-50%" y="-50%" width="200%" height="200%" filterUnits="objectBoundingBox" id="filter-4">
            <feGaussianBlur stdDeviation="2" in="SourceAlpha" result="shadowBlurInner1"></feGaussianBlur>
            <feOffset dx="2" dy="2" in="shadowBlurInner1" result="shadowOffsetInner1"></feOffset>
            <feComposite in="shadowOffsetInner1" in2="SourceAlpha" operator="arithmetic" k2="-1" k3="1" result="shadowInnerInner1"></feComposite>
            <feColorMatrix values="0 0 0 0 0   0 0 0 0 0   0 0 0 0 0  0 0 0 0.15 0" type="matrix" in="shadowInnerInner1"></feColorMatrix>
        </filter>
        <mask id="mask-5" maskContentUnits="userSpaceOnUse" maskUnits="objectBoundingBox" x="0" y="0" width="30" height="30" fill="white">
            <use xlink:href="#path-3"></use>
        </mask>
        <path d="M15,30 C23.2842712,30 30,23.2842712 30,15 C30,9.8924582 27.4472494,5.38114325 23.5480133,2.67232019 C21.1228117,0.987517919 18.1767295,0 15,0 C6.71572875,0 0,6.71572875 0,15 C0,23.2842712 6.71572875,30 15,30 Z" id="path-6"></path>
        <filter x="-50%" y="-50%" width="200%" height="200%" filterUnits="objectBoundingBox" id="filter-7">
            <feGaussianBlur stdDeviation="2" in="SourceAlpha" result="shadowBlurInner1"></feGaussianBlur>
            <feOffset dx="2" dy="2" in="shadowBlurInner1" result="shadowOffsetInner1"></feOffset>
            <feComposite in="shadowOffsetInner1" in2="SourceAlpha" operator="arithmetic" k2="-1" k3="1" result="shadowInnerInner1"></feComposite>
            <feColorMatrix values="0 0 0 0 0   0 0 0 0 0   0 0 0 0 0  0 0 0 0.15 0" type="matrix" in="shadowInnerInner1"></feColorMatrix>
        </filter>
        <mask id="mask-8" maskContentUnits="userSpaceOnUse" maskUnits="objectBoundingBox" x="0" y="0" width="30" height="30" fill="white">
            <use xlink:href="#path-6"></use>
        </mask>
    </defs>
    <g id="UI-elements-section" stroke="none" stroke-width="1" fill="none" fill-rule="evenodd">
        <g id="Component-Messaging-and-Notifications" transform="translate(-247.000000, -3164.000000)">
            <g id="component-messaging-notifications107" transform="translate(249.000000, 3165.000000)">
                <g id="Rectangle-4">
                    <use fill="black" fill-opacity="1" filter="url(#filter-2)" xlink:href="#path-1"></use>
                    <use fill="#FFFFFF" fill-rule="evenodd" xlink:href="#path-1"></use>
                </g>
                <text id="Stop-payments" font-family="ArialMT, Arial" font-size="28" font-weight="normal" fill="#333333">
                    <tspan x="30" y="60">Stop payments</tspan>
                </text>
                <path d="M30,79 L670,79" id="Line" stroke="#CCCCCC" stroke-width="3" stroke-linecap="square"></path>
                <text id="Stop-payment-for-a" font-family="ArialMT, Arial" font-size="14" font-weight="normal" fill="#333333">
                    <tspan x="33" y="218">Stop payment for a </tspan>
                </text>
                <text id="Place-a-stop-payment" font-family="ArialMT, Arial" font-size="14" font-weight="normal" fill="#333333">
                    <tspan x="33" y="177">Place a stop payment on the requested check(s) </tspan>
                </text>
                <g id="Form-/-Radiobutton-(Checked)-Large" transform="translate(163.000000, 198.000000)">
                    <g id="Radio-Background">
                        <use fill="#FFFFFF" fill-rule="evenodd" xlink:href="#path-3"></use>
                        <use fill="black" fill-opacity="1" filter="url(#filter-4)" xlink:href="#path-3"></use>
                        <use stroke="#666666" mask="url(#mask-5)" stroke-width="4" xlink:href="#path-3"></use>
                    </g>
                    <ellipse id="Radio-Circle" fill="#666666" cx="15" cy="15" rx="9" ry="9"></ellipse>
                    <text id="Radio-Label" font-family="ArialMT, Arial" font-size="16" font-weight="normal" fill="#333333">
                        <tspan x="41" y="19">Single Check</tspan>
                    </text>
                </g>
                <g id="Form-/-Radiobutton-(Checked)-Large" transform="translate(373.000000, 198.000000)">
                    <g id="Radio-Background">
                        <use fill="#FFFFFF" fill-rule="evenodd" xlink:href="#path-6"></use>
                        <use fill="black" fill-opacity="1" filter="url(#filter-7)" xlink:href="#path-6"></use>
                        <use stroke="#666666" mask="url(#mask-8)" stroke-width="4" xlink:href="#path-6"></use>
                    </g>
                    <text id="Radio-Label" font-family="ArialMT, Arial" font-size="16" font-weight="normal" fill="#333333">
                        <tspan x="41" y="19">Multiple Checks</tspan>
                    </text>
                </g>
                <g id="Group-2" transform="translate(30.000000, 101.000000)">
                    <rect id="Rectangle-69" fill="#FFE7E5" x="0" y="0" width="640" height="45"></rect>
                    <g id="icon-/-error" transform="translate(22.000000, 13.000000)" fill="#C90202">
                        <path d="M9.7047,11.7 L8.3047,11.7 L8.0047,5 L10.0047,5 L9.7047,11.7 Z M9.0047,16 C8.4047,16 8.0047,15.6 8.0047,15 C8.0047,14.4 8.4047,14 9.0047,14 C9.6047,14 10.0047,14.4 10.0047,15 C10.0047,15.6 9.6047,16 9.0047,16 L9.0047,16 Z M17.6047,14.7 L10.7047,1.4 C10.2047,0.5 9.6047,0 9.0047,0 C8.4047,0 7.8047,0.5 7.3047,1.4 L0.4047,14.7 C-0.0953,15.7 -0.0953,16.5 0.2047,17.1 C0.5047,17.7 1.3047,18 2.3047,18 L15.7047,18 C16.7047,18 17.4047,17.7 17.8047,17.1 C18.1047,16.5 18.1047,15.6 17.6047,14.7 L17.6047,14.7 Z" id="Fill-1"></path>
                    </g>
                    <text id="We-were-unable-to-st" font-family="Arial-BoldMT, Arial" font-size="16" font-weight="bold" line-spacing="20" fill="#333333">
                        <tspan x="51" y="27">We were unable to stop paymet on your check(s).</tspan>
                    </text>
                    <text id="Try-again-later." font-family="ArialMT, Arial" font-size="16" font-weight="normal" line-spacing="20" fill="#333333">
                        <tspan x="431" y="27">Try again later.</tspan>
                    </text>
                </g>
            </g>
        </g>
    </g>
</svg>