<?xml version="1.0" encoding="UTF-8" standalone="no"?>
<svg width="324px" height="331px" viewBox="0 0 324 331" version="1.1" xmlns="http://www.w3.org/2000/svg" xmlns:xlink="http://www.w3.org/1999/xlink">
    <!-- Generator: Sketch 41.2 (35397) - http://www.bohemiancoding.com/sketch -->
    <title>component-messaging-notifications103</title>
    <desc>Created with Sketch.</desc>
    <defs>
        <rect id="path-1" x="0" y="0" width="320" height="327"></rect>
        <filter x="-50%" y="-50%" width="200%" height="200%" filterUnits="objectBoundingBox" id="filter-2">
            <feOffset dx="0" dy="1" in="SourceAlpha" result="shadowOffsetOuter1"></feOffset>
            <feGaussianBlur stdDeviation="1" in="shadowOffsetOuter1" result="shadowBlurOuter1"></feGaussianBlur>
            <feColorMatrix values="0 0 0 0 0   0 0 0 0 0   0 0 0 0 0  0 0 0 0.5 0" type="matrix" in="shadowBlurOuter1"></feColorMatrix>
        </filter>
        <linearGradient x1="50%" y1="0%" x2="50%" y2="100%" id="linearGradient-3">
            <stop stop-color="#FFFFFF" offset="0%"></stop>
            <stop stop-color="#DDDDDD" offset="100%"></stop>
        </linearGradient>
        <path d="M0,0.996782452 C0,0.446274705 0.454216003,5.56388877e-16 1.00000895,6.45476832e-16 L278.999991,4.60224834e-14 C279.552281,4.61126318e-14 280,0.443261772 280,0.996782452 L280,41.0032175 C280,41.5537253 279.545784,42 278.999991,42 L1.00000895,42 C0.447719255,42 0,41.5567382 0,41.0032175 L0,0.996782452 Z" id="path-4"></path>
        <mask id="mask-5" maskContentUnits="userSpaceOnUse" maskUnits="objectBoundingBox" x="0" y="0" width="280" height="42" fill="white">
            <use xlink:href="#path-4"></use>
        </mask>
        <linearGradient x1="50%" y1="0%" x2="50%" y2="100%" id="linearGradient-6">
            <stop stop-color="#999999" offset="0%"></stop>
            <stop stop-color="#666666" offset="100%"></stop>
        </linearGradient>
    </defs>
    <g id="UI-elements-section" stroke="none" stroke-width="1" fill="none" fill-rule="evenodd">
        <g id="Component-Messaging-and-Notifications" transform="translate(-245.000000, -1554.000000)">
            <g id="component-messaging-notifications103" transform="translate(247.000000, 1555.000000)">
                <g id="Group-2">
                    <g id="Rectangle-4">
                        <use fill="black" fill-opacity="1" filter="url(#filter-2)" xlink:href="#path-1"></use>
                        <use fill="#FFFFFF" fill-rule="evenodd" xlink:href="#path-1"></use>
                    </g>
                    <g id="Group-8" transform="translate(20.000000, 245.000000)">
                        <use id="Rectangle-26" stroke="#ACACAC" mask="url(#mask-5)" stroke-width="2" fill="url(#linearGradient-3)" xlink:href="#path-4"></use>
                        <text id="Secondary" font-family="ArialMT, Arial" font-size="16.1919643" font-weight="normal" fill="#333333">
                            <tspan x="101.295038" y="26">Secondary</tspan>
                        </text>
                    </g>
                    <g id="Group-10" transform="translate(20.000000, 193.000000)">
                        <rect id="Rectangle-26" fill="url(#linearGradient-6)" x="0" y="0" width="281" height="42"></rect>
                        <text id="Primary" font-family="ArialMT, Arial" font-size="16.6608315" font-weight="normal" fill="#FFFFFF">
                            <tspan x="112.30725" y="26">Primary</tspan>
                        </text>
                    </g>
                    <path d="M21,70 L299.443878,70" id="Line" stroke="#CCCCCC" stroke-width="3" stroke-linecap="square"></path>
                </g>
                <g id="Group-2" transform="translate(20.000000, 91.000000)">
                    <rect id="Rectangle-69" fill="#FFE7E5" x="0" y="0" width="280" height="80"></rect>
                    <g id="icon-/-error" transform="translate(22.000000, 13.000000)" fill="#C90202">
                        <path d="M9.7047,11.7 L8.3047,11.7 L8.0047,5 L10.0047,5 L9.7047,11.7 Z M9.0047,16 C8.4047,16 8.0047,15.6 8.0047,15 C8.0047,14.4 8.4047,14 9.0047,14 C9.6047,14 10.0047,14.4 10.0047,15 C10.0047,15.6 9.6047,16 9.0047,16 L9.0047,16 Z M17.6047,14.7 L10.7047,1.4 C10.2047,0.5 9.6047,0 9.0047,0 C8.4047,0 7.8047,0.5 7.3047,1.4 L0.4047,14.7 C-0.0953,15.7 -0.0953,16.5 0.2047,17.1 C0.5047,17.7 1.3047,18 2.3047,18 L15.7047,18 C16.7047,18 17.4047,17.7 17.8047,17.1 C18.1047,16.5 18.1047,15.6 17.6047,14.7 L17.6047,14.7 Z" id="Fill-1"></path>
                    </g>
                    <text id="Error-message-goes-h" font-family="Arial-BoldMT, Arial" font-size="16" font-weight="bold" line-spacing="20" fill="#333333">
                        <tspan x="51" y="27">Error message goes here.</tspan>
                    </text>
                    <text id="Aditional-text-goes-" font-family="ArialMT, Arial" font-size="16" font-weight="normal" line-spacing="20" fill="#333333">
                        <tspan x="51" y="59">Aditional text goes here.</tspan>
                    </text>
                </g>
            </g>
        </g>
    </g>
</svg>