<?xml version="1.0" encoding="UTF-8" standalone="no"?>
<svg width="664px" height="304px" viewBox="0 0 664 304" version="1.1" xmlns="http://www.w3.org/2000/svg" xmlns:xlink="http://www.w3.org/1999/xlink">
    <!-- Generator: Sketch 41.2 (35397) - http://www.bohemiancoding.com/sketch -->
    <title>component-messaging-notifications104</title>
    <desc>Created with Sketch.</desc>
    <defs>
        <rect id="path-1" x="0" y="0" width="660" height="300"></rect>
        <filter x="-50%" y="-50%" width="200%" height="200%" filterUnits="objectBoundingBox" id="filter-2">
            <feOffset dx="0" dy="1" in="SourceAlpha" result="shadowOffsetOuter1"></feOffset>
            <feGaussianBlur stdDeviation="1" in="shadowOffsetOuter1" result="shadowBlurOuter1"></feGaussianBlur>
            <feColorMatrix values="0 0 0 0 0   0 0 0 0 0   0 0 0 0 0  0 0 0 0.5 0" type="matrix" in="shadowBlurOuter1"></feColorMatrix>
        </filter>
    </defs>
    <g id="UI-elements-section" stroke="none" stroke-width="1" fill="none" fill-rule="evenodd">
        <g id="Component-Messaging-and-Notifications" transform="translate(-246.000000, -2000.000000)">
            <g id="component-messaging-notifications104" transform="translate(248.000000, 2001.000000)">
                <g id="Rectangle-4">
                    <use fill="black" fill-opacity="1" filter="url(#filter-2)" xlink:href="#path-1"></use>
                    <use fill="#FFFFFF" fill-rule="evenodd" xlink:href="#path-1"></use>
                </g>
                <g id="icon" transform="translate(51.000000, 110.000000)">
                    <text id="Use-icon-where-expec" font-family="ArialMT, Arial" font-size="13" font-weight="normal" line-spacing="17" fill="#666666">
                        <tspan x="0" y="12">Use icon where expected (error, warning, loading, etc.)</tspan>
                    </text>
                    <path d="M14,19 L14,39" id="Line" stroke="#979797" stroke-linecap="square"></path>
                </g>
                <path d="M30,80 L630,80" id="Line" stroke="#CCCCCC" stroke-width="3" stroke-linecap="square"></path>
                <text id="Main-heading" font-family="ArialMT, Arial" font-size="28" font-weight="normal" fill="#333333">
                    <tspan x="30" y="61">Main heading</tspan>
                </text>
                <g id="Group-5" transform="translate(56.000000, 148.000000)">
                    <text id="Veggies-es-bonus-vob" font-family="ArialMT, Arial" font-size="22" font-weight="normal" fill="#333333">
                        <tspan x="24.4003906" y="20">Veggies es bonus vobis, proinde vos postulo essum.</tspan>
                    </text>
                    <text id="Magis-kohlrabi-welsh" font-family="ArialMT, Arial" font-size="18" font-weight="normal" fill="#333333">
                        <tspan x="140.46977" y="51">Magis kohlrabi welsh onion daikon.</tspan>
                    </text>
                    <path d="M16.3047375,20.2 C16.0047375,20.7 15.4047375,21 14.5047375,21 L3.50473751,21 C2.70473751,21 2.00473751,20.7 1.70473751,20.2 C1.40473751,19.7 1.50473751,19 1.90473751,18.2 L7.60473751,7.2 C8.00473751,6.4 8.50473751,6 9.00473751,6 C9.50473751,6 10.0047375,6.4 10.4047375,7.1 L16.1047375,18.1 C16.5047375,19 16.6047375,19.7 16.3047375,20.2 L16.3047375,20.2 Z M17.6047375,18.7 L10.7047375,5.4 C10.2047375,4.5 9.60473751,4 9.00473751,4 C8.40473751,4 7.80473751,4.5 7.30473751,5.4 L0.40473751,18.7 C-0.0952624903,19.6 -0.0952624903,20.5 0.20473751,21.1 C0.60473751,21.7 1.30473751,22 2.30473751,22 L15.6047375,22 C16.6047375,22 17.4047375,21.7 17.7047375,21.1 C18.1047375,20.5 18.1047375,19.6 17.6047375,18.7 L17.6047375,18.7 Z" id="Fill-1" fill="#666666"></path>
                </g>
                <text id="Text:-Arial-22px-#33" font-family="ArialMT, Arial" font-size="13" font-weight="normal" line-spacing="17" fill="#666666">
                    <tspan x="456" y="122">Text: Arial 22px #333333</tspan>
                </text>
                <path d="M525,129 L525,149" id="Line" stroke="#979797" stroke-linecap="square"></path>
                <text id="Text:-Arial-18px-#33" font-family="ArialMT, Arial" font-size="13" font-weight="normal" line-spacing="17" fill="#666666">
                    <tspan x="250" y="236">Text: Arial 18px #333333</tspan>
                </text>
                <path d="M319,203 L319,223" id="Line" stroke="#979797" stroke-linecap="square"></path>
            </g>
        </g>
    </g>
</svg>