<?xml version="1.0" encoding="UTF-8" standalone="no"?>
<svg width="910px" height="294px" viewBox="0 0 910 294" version="1.1" xmlns="http://www.w3.org/2000/svg" xmlns:xlink="http://www.w3.org/1999/xlink">
    <!-- Generator: Sketch 41.2 (35397) - http://www.bohemiancoding.com/sketch -->
    <title>form-placeholder-example</title>
    <desc>Created with Sketch.</desc>
    <defs>
        <rect id="path-1" x="0" y="0" width="860" height="524"></rect>
        <filter x="-50%" y="-50%" width="200%" height="200%" filterUnits="objectBoundingBox" id="filter-2">
            <feOffset dx="0" dy="1" in="SourceAlpha" result="shadowOffsetOuter1"></feOffset>
            <feGaussianBlur stdDeviation="1" in="shadowOffsetOuter1" result="shadowBlurOuter1"></feGaussianBlur>
            <feColorMatrix values="0 0 0 0 0   0 0 0 0 0   0 0 0 0 0  0 0 0 0.5 0" type="matrix" in="shadowBlurOuter1"></feColorMatrix>
        </filter>
        <linearGradient x1="50%" y1="0%" x2="50%" y2="100%" id="linearGradient-3">
            <stop stop-color="#999999" offset="0%"></stop>
            <stop stop-color="#666666" offset="100%"></stop>
        </linearGradient>
        <linearGradient x1="50%" y1="0%" x2="50%" y2="100%" id="linearGradient-4">
            <stop stop-color="#FFFFFF" offset="0%"></stop>
            <stop stop-color="#DDDDDD" offset="100%"></stop>
        </linearGradient>
        <rect id="path-5" x="0" y="0" width="190" height="45.1022727"></rect>
        <mask id="mask-6" maskContentUnits="userSpaceOnUse" maskUnits="objectBoundingBox" x="0" y="0" width="190" height="45.1022727" fill="white">
            <use xlink:href="#path-5"></use>
        </mask>
        <rect id="path-7" x="0" y="0" width="149" height="45.1022727"></rect>
        <mask id="mask-8" maskContentUnits="userSpaceOnUse" maskUnits="objectBoundingBox" x="0" y="0" width="149" height="45.1022727" fill="white">
            <use xlink:href="#path-7"></use>
        </mask>
        <rect id="path-9" x="0" y="0" width="157" height="35"></rect>
        <filter x="-50%" y="-50%" width="200%" height="200%" filterUnits="objectBoundingBox" id="filter-10">
            <feGaussianBlur stdDeviation="2" in="SourceAlpha" result="shadowBlurInner1"></feGaussianBlur>
            <feOffset dx="2" dy="2" in="shadowBlurInner1" result="shadowOffsetInner1"></feOffset>
            <feComposite in="shadowOffsetInner1" in2="SourceAlpha" operator="arithmetic" k2="-1" k3="1" result="shadowInnerInner1"></feComposite>
            <feColorMatrix values="0 0 0 0 0   0 0 0 0 0   0 0 0 0 0  0 0 0 0.15 0" type="matrix" in="shadowInnerInner1"></feColorMatrix>
        </filter>
        <mask id="mask-11" maskContentUnits="userSpaceOnUse" maskUnits="objectBoundingBox" x="0" y="0" width="157" height="35" fill="white">
            <use xlink:href="#path-9"></use>
        </mask>
    </defs>
    <g id="Pattern-section" stroke="none" stroke-width="1" fill="none" fill-rule="evenodd">
        <g id="form-placeholder-example">
            <rect id="Rectangle-54" fill="#EDEDED" x="0" y="-312" width="910" height="605"></rect>
            <g id="bottom-buttons" transform="translate(26.000000, -254.000000)">
                <g id="Rectangle-1">
                    <use fill="black" fill-opacity="1" filter="url(#filter-2)" xlink:href="#path-1"></use>
                    <use fill="#FFFFFF" fill-rule="evenodd" xlink:href="#path-1"></use>
                </g>
                <g id="Group-7" opacity="0.4" transform="translate(32.000000, 436.000000)">
                    <rect id="Rectangle-26" fill="url(#linearGradient-3)" x="0" y="0" width="186" height="45.1022727"></rect>
                    <text id="Make-a-payment" font-family="ArialMT, Arial" font-size="18" font-weight="normal" fill="#FFFFFF">
                        <tspan x="25.4667969" y="27.8125">Make a payment</tspan>
                    </text>
                </g>
                <g id="Group-7" opacity="0.4" transform="translate(228.000000, 436.000000)">
                    <use id="Rectangle-26" stroke="#ACACAC" mask="url(#mask-6)" stroke-width="2" fill="url(#linearGradient-4)" xlink:href="#path-5"></use>
                    <text id="Save-as-template" font-family="ArialMT, Arial" font-size="18" font-weight="normal" fill="#333333">
                        <tspan x="25.9609375" y="27.8125">Save as template</tspan>
                    </text>
                </g>
                <g id="Group-8" transform="translate(428.000000, 436.000000)">
                    <use id="Rectangle-26" stroke="#ACACAC" mask="url(#mask-8)" stroke-width="2" fill="url(#linearGradient-4)" xlink:href="#path-7"></use>
                    <text id="Cancel-" font-family="ArialMT, Arial" font-size="18" font-weight="normal" fill="#333333">
                        <tspan x="46.4848633" y="27.8125">Cancel </tspan>
                    </text>
                </g>
            </g>
            <g id="Select-file-to-import" transform="translate(57.000000, 21.000000)">
                <rect id="Rectangle-7" fill="#EDEDED" x="1" y="31" width="800" height="100"></rect>
                <text id="Schedule-the-payment" font-family="Arial-BoldMT, Arial" font-size="18" font-weight="bold" fill="#333333">
                    <tspan x="0" y="16">Schedule the payment</tspan>
                </text>
                <text id="Deliver-On" font-family="ArialMT, Arial" font-size="18" font-weight="normal" fill="#333333">
                    <tspan x="31" y="85">Deliver On</tspan>
                </text>
                <g id="calender" transform="translate(131.000000, 61.000000)">
                    <g id="Rectangle-38">
                        <use fill="#FFFFFF" fill-rule="evenodd" xlink:href="#path-9"></use>
                        <use fill="black" fill-opacity="1" filter="url(#filter-10)" xlink:href="#path-9"></use>
                        <use stroke="#CCCCCC" mask="url(#mask-11)" stroke-width="2" xlink:href="#path-9"></use>
                    </g>
                    <g id="icon--/-calendar" transform="translate(130.000000, 9.000000)" fill="#666666">
                        <path d="M14.3,0 L14.3,1.2 L3.7,1.2 L3.7,0 L1.4,0 L1.4,1.2 L0,1.2 L0,3.7 L18,3.7 L18,1.2 L16.599,1.2 L16.599,0 L14.3,0 Z M0,18 L18,18 L18,5.1 L0,5.1 L0,18 Z M13.8,8.701 L15.901,8.701 L15.901,6.6 L13.8,6.6 L13.8,8.701 Z M9.9,8.701 L12,8.701 L12,6.6 L9.9,6.6 L9.9,8.701 Z M5.8,8.701 L7.901,8.701 L7.901,6.6 L5.8,6.6 L5.8,8.701 Z M1.8,8.701 L3.9,8.701 L3.9,6.6 L1.8,6.6 L1.8,8.701 Z M13.8,12.7 L15.901,12.7 L15.901,10.6 L13.8,10.6 L13.8,12.7 Z M9.9,12.7 L12,12.7 L12,10.6 L9.9,10.6 L9.9,12.7 Z M5.8,12.7 L7.901,12.7 L7.901,10.6 L5.8,10.6 L5.8,12.7 Z M1.8,12.7 L3.9,12.7 L3.9,10.6 L1.8,10.6 L1.8,12.7 Z M13.8,16.6 L15.901,16.6 L15.901,14.5 L13.8,14.5 L13.8,16.6 Z M9.9,16.6 L12,16.6 L12,14.5 L9.9,14.5 L9.9,16.6 Z M5.8,16.6 L7.901,16.6 L7.901,14.5 L5.8,14.5 L5.8,16.6 Z M1.8,16.6 L3.9,16.6 L3.9,14.5 L1.8,14.5 L1.8,16.6 Z" id="Page-1"></path>
                    </g>
                    <text id="mm/dd/yyyy" font-family="ArialMT, Arial" font-size="16" font-weight="normal" fill="#666666">
                        <tspan x="10" y="24">mm/dd/yyyy</tspan>
                    </text>
                </g>
            </g>
        </g>
    </g>
</svg>