<?xml version="1.0" encoding="UTF-8" standalone="no"?>
<svg width="600px" height="545px" viewBox="0 0 600 545" version="1.1" xmlns="http://www.w3.org/2000/svg" xmlns:xlink="http://www.w3.org/1999/xlink">
    <!-- Generator: Sketch 41.2 (35397) - http://www.bohemiancoding.com/sketch -->
    <title>modals002</title>
    <desc>Created with Sketch.</desc>
    <defs>
        <rect id="path-1" x="0" y="-3.58039716e-14" width="540" height="485"></rect>
        <filter x="-50%" y="-50%" width="200%" height="200%" filterUnits="objectBoundingBox" id="filter-2">
            <feOffset dx="0" dy="1" in="SourceAlpha" result="shadowOffsetOuter1"></feOffset>
            <feGaussianBlur stdDeviation="1" in="shadowOffsetOuter1" result="shadowBlurOuter1"></feGaussianBlur>
            <feColorMatrix values="0 0 0 0 0   0 0 0 0 0   0 0 0 0 0  0 0 0 0.5 0" type="matrix" in="shadowBlurOuter1"></feColorMatrix>
        </filter>
        <linearGradient x1="50%" y1="0%" x2="50%" y2="100%" id="linearGradient-3">
            <stop stop-color="#999999" offset="0%"></stop>
            <stop stop-color="#666666" offset="100%"></stop>
        </linearGradient>
        <linearGradient x1="50%" y1="0%" x2="50%" y2="100%" id="linearGradient-4">
            <stop stop-color="#FFFFFF" offset="0%"></stop>
            <stop stop-color="#DDDDDD" offset="100%"></stop>
        </linearGradient>
        <rect id="path-5" x="0" y="0" width="149" height="42"></rect>
        <mask id="mask-6" maskContentUnits="userSpaceOnUse" maskUnits="objectBoundingBox" x="0" y="0" width="149" height="42" fill="white">
            <use xlink:href="#path-5"></use>
        </mask>
    </defs>
    <g id="UI-elements-section" stroke="none" stroke-width="1" fill="none" fill-rule="evenodd">
        <g id="Component-Modals" transform="translate(-247.000000, -1225.000000)">
            <g id="modals002" transform="translate(247.000000, 1225.000000)">
                <g id="modal">
                    <rect id="Rectangle-5" fill-opacity="0.5" fill="#000000" x="0" y="0" width="600" height="545"></rect>
                    <g id="Group" transform="translate(30.000000, 30.000000)">
                        <g id="Rectangle-4">
                            <use fill="black" fill-opacity="1" filter="url(#filter-2)" xlink:href="#path-1"></use>
                            <use fill="#FFFFFF" fill-rule="evenodd" xlink:href="#path-1"></use>
                        </g>
                        <text id="Please-confirm" font-family="ArialMT, Arial" font-size="24" font-weight="normal" fill="#333333">
                            <tspan x="24" y="52">Please confirm</tspan>
                        </text>
                        <rect id="Rectangle-54" fill="#EDEDED" x="26" y="73" width="490" height="300"></rect>
                        <g id="Group-7" transform="translate(26.000000, 404.000000)">
                            <rect id="Rectangle-26" fill="url(#linearGradient-3)" x="0" y="0" width="149" height="42"></rect>
                            <text id="Confirm" font-family="ArialMT, Arial" font-size="18" font-weight="normal" fill="#FFFFFF">
                                <tspan x="42.9956055" y="27">Confirm</tspan>
                            </text>
                        </g>
                        <g id="Group-8" transform="translate(185.000000, 404.000000)">
                            <use id="Rectangle-26" stroke="#ACACAC" mask="url(#mask-6)" stroke-width="2" fill="url(#linearGradient-4)" xlink:href="#path-5"></use>
                            <text id="Cancel" font-family="ArialMT, Arial" font-size="18" font-weight="normal" fill="#333333">
                                <tspan x="46.4848633" y="27">Cancel</tspan>
                            </text>
                        </g>
                        <g id="icon-/-close" transform="translate(506.000000, 16.000000)" fill="#666666">
                            <polygon id="Page-1" points="15.5 0 9 6.5 2.5 0 0 2.5 6.5 9 0 15.5 2.5 18 9 11.5 15.5 18 18 15.5 11.5 9 18 2.5"></polygon>
                        </g>
                    </g>
                    <text id="Transfer-This-is-the" font-family="ArialMT, Arial" font-size="18" font-weight="normal" line-spacing="23" fill="#333333">
                        <tspan x="76" y="148">Transfer</tspan>
                        <tspan x="76" y="171" font-size="14">This is the amount due to pay down the loan. Your account will be closed.</tspan>
                    </text>
                    <text id="From-To-Amount" font-family="ArialMT, Arial" font-size="13" font-weight="normal" line-spacing="27" fill="#666666">
                        <tspan x="76" y="197">From</tspan>
                        <tspan x="76" y="224">To</tspan>
                        <tspan x="76" y="251">Amount</tspan>
                    </text>
                    <text id="Checking-*7676-Savin" font-family="ArialMT, Arial" font-size="14" font-weight="normal" line-spacing="27" fill="#333333">
                        <tspan x="166" y="197">Checking *7676</tspan>
                        <tspan x="166" y="224">Savings *7777</tspan>
                        <tspan x="166" y="251">$100.00</tspan>
                    </text>
                </g>
                <g id="Group-6" transform="translate(77.000000, 298.000000)">
                    <g id="icon-/-help" fill="#666666">
                        <path d="M13.1888,7.4043 C13.0888,7.8033 12.8898,8.1023 12.6898,8.3023 C12.4908,8.6013 12.2908,8.8003 11.9918,8.9003 C11.6928,9.0003 11.4938,9.2993 11.1938,9.4983 C10.8948,9.6983 10.7948,9.8973 10.5958,10.0973 C10.3958,10.2963 10.2968,10.5953 10.2968,10.9943 L10.2968,11.5933 L8.0028,11.5933 L8.0028,10.7953 C8.0028,10.2963 8.1028,9.8973 8.3018,9.5983 C8.5018,9.2993 8.6008,9.0003 8.8008,8.8003 C8.9998,8.6013 9.1998,8.4013 9.3988,8.2023 C9.5988,8.0023 9.7978,7.9033 9.9978,7.7033 C10.1968,7.5043 10.2968,7.3043 10.4958,7.1053 C10.5958,6.9053 10.6958,6.6063 10.6958,6.3073 C10.6958,5.8083 10.5958,5.4093 10.2968,5.1103 C9.9978,4.8113 9.6978,4.7113 9.1998,4.7113 C8.8998,4.7113 8.6008,4.8113 8.4018,4.9113 C8.2018,5.0103 8.0028,5.2103 7.9028,5.4093 C7.8028,5.6093 7.7038,5.8083 7.6038,6.1073 C7.5038,6.4073 7.5038,6.7063 7.5038,7.0053 L5.0108,7.0053 C5.0108,6.4073 5.1108,5.8083 5.3098,5.3103 C5.5098,4.8113 5.8088,4.3123 6.1078,4.0133 C6.5068,3.6143 6.9058,3.3153 7.4038,3.1153 C7.9028,2.9163 8.5018,2.8163 9.0998,2.8163 C9.8978,2.8163 10.5958,2.9163 11.0948,3.1153 C11.5928,3.3153 12.0918,3.6143 12.3908,3.9133 C12.6898,4.2133 12.9898,4.6113 13.0888,5.0103 C13.1888,5.4093 13.2888,5.7093 13.2888,6.1073 C13.3878,6.6063 13.2888,7.1053 13.1888,7.4043 L13.1888,7.4043 Z M8.0028,15.2833 L10.2968,15.2833 L10.2968,12.8893 L8.0028,12.8893 L8.0028,15.2833 Z M11.6928,0.4233 C7.0058,-1.0727 1.9188,1.5203 0.4228,6.3073 C-1.0732,10.9943 1.5198,16.0813 6.3068,17.5773 C10.9948,19.0733 16.0808,16.4803 17.5768,11.6933 C19.0728,6.9053 16.4798,1.9193 11.6928,0.4233 L11.6928,0.4233 Z" id="Fill-1"></path>
                    </g>
                    <text id="Once-this-transfer-i" font-family="ArialMT, Arial" font-size="14" font-weight="normal" line-spacing="18" fill="#333333">
                        <tspan x="28" y="14">Once this transfer is made, it cannot be cancelled.</tspan>
                    </text>
                    <text id="DI9907:The-transfer" font-family="ArialMT, Arial" font-size="14" font-weight="normal" line-spacing="18" fill="#333333">
                        <tspan x="28" y="44">DI9907:The transfer confirmation and transfer success messages </tspan>
                        <tspan x="28" y="62">from Financial Institution for verification the new implementation.</tspan>
                    </text>
                </g>
                <path d="M75,277 L525,277" id="Line" stroke="#CCCCCC" stroke-linecap="square"></path>
            </g>
        </g>
    </g>
</svg>