<?xml version="1.0" encoding="UTF-8" standalone="no"?>
<svg width="657px" height="123px" viewBox="0 0 657 123" version="1.1" xmlns="http://www.w3.org/2000/svg" xmlns:xlink="http://www.w3.org/1999/xlink">
    <!-- Generator: Sketch 41.2 (35397) - http://www.bohemiancoding.com/sketch -->
    <title>pattern-loading001</title>
    <desc>Created with Sketch.</desc>
    <defs>
        <rect id="path-1" x="0" y="0" width="66" height="35"></rect>
        <mask id="mask-2" maskContentUnits="userSpaceOnUse" maskUnits="objectBoundingBox" x="0" y="0" width="66" height="35" fill="white">
            <use xlink:href="#path-1"></use>
        </mask>
        <rect id="path-3" x="0" y="0" width="66" height="35"></rect>
        <mask id="mask-4" maskContentUnits="userSpaceOnUse" maskUnits="objectBoundingBox" x="0" y="0" width="66" height="35" fill="white">
            <use xlink:href="#path-3"></use>
        </mask>
        <rect id="path-5" x="0" y="0" width="66" height="35"></rect>
        <mask id="mask-6" maskContentUnits="userSpaceOnUse" maskUnits="objectBoundingBox" x="0" y="0" width="66" height="35" fill="white">
            <use xlink:href="#path-5"></use>
        </mask>
        <rect id="path-7" x="0" y="0" width="66" height="35"></rect>
        <mask id="mask-8" maskContentUnits="userSpaceOnUse" maskUnits="objectBoundingBox" x="0" y="0" width="66" height="35" fill="white">
            <use xlink:href="#path-7"></use>
        </mask>
        <rect id="path-9" x="0" y="0" width="300" height="42"></rect>
        <filter x="-50%" y="-50%" width="200%" height="200%" filterUnits="objectBoundingBox" id="filter-10">
            <feGaussianBlur stdDeviation="2" in="SourceAlpha" result="shadowBlurInner1"></feGaussianBlur>
            <feOffset dx="2" dy="2" in="shadowBlurInner1" result="shadowOffsetInner1"></feOffset>
            <feComposite in="shadowOffsetInner1" in2="SourceAlpha" operator="arithmetic" k2="-1" k3="1" result="shadowInnerInner1"></feComposite>
            <feColorMatrix values="0 0 0 0 0   0 0 0 0 0   0 0 0 0 0  0 0 0 0.15 0" type="matrix" in="shadowInnerInner1"></feColorMatrix>
        </filter>
        <mask id="mask-11" maskContentUnits="userSpaceOnUse" maskUnits="objectBoundingBox" x="0" y="0" width="300" height="42" fill="white">
            <use xlink:href="#path-9"></use>
        </mask>
    </defs>
    <g id="Pattern-section" stroke="none" stroke-width="1" fill="none" fill-rule="evenodd">
        <g id="Pattern-loading" transform="translate(-248.000000, -332.000000)">
            <g id="pattern-loading001" transform="translate(248.000000, 332.000000)">
                <g id="Group-6" transform="translate(151.000000, 94.000000)">
                    <text id="Saving" font-family="ArialMT, Arial" font-size="14" font-weight="normal" line-spacing="20" fill="#666666">
                        <tspan x="24" y="13">Saving</tspan>
                    </text>
                    <g id="icon-/-loader-small" transform="translate(0.000000, 3.000000)" fill="#CCCCCC">
                        <path d="M13.4318,0 L11.6918,3.037 C13.3658,3.981 14.4998,5.773 14.4998,7.828 C14.4998,10.86 12.0328,13.328 8.9998,13.328 C5.9678,13.328 3.4998,10.86 3.4998,7.828 C3.4998,5.781 4.6258,3.996 6.2878,3.049 L4.5138,0.033 C1.8188,1.588 -0.0002,4.493 -0.0002,7.828 C-0.0002,12.798 4.0298,16.828 8.9998,16.828 C13.9708,16.828 17.9998,12.798 17.9998,7.828 C17.9998,4.47 16.1578,1.547 13.4318,0" id="Fill-1"></path>
                    </g>
                </g>
                <g id="Group-6" transform="translate(438.000000, 96.000000)">
                    <text id="Saving" font-family="ArialMT, Arial" font-size="14" font-weight="normal" line-spacing="20" fill="#666666">
                        <tspan x="24" y="13">Saving</tspan>
                    </text>
                    <g id="icon-/-loader-small" transform="translate(0.000000, 3.000000)" fill="#CCCCCC">
                        <path d="M13.4318,0 L11.6918,3.037 C13.3658,3.981 14.4998,5.773 14.4998,7.828 C14.4998,10.86 12.0328,13.328 8.9998,13.328 C5.9678,13.328 3.4998,10.86 3.4998,7.828 C3.4998,5.781 4.6258,3.996 6.2878,3.049 L4.5138,0.033 C1.8188,1.588 -0.0002,4.493 -0.0002,7.828 C-0.0002,12.798 4.0298,16.828 8.9998,16.828 C13.9708,16.828 17.9998,12.798 17.9998,7.828 C17.9998,4.47 16.1578,1.547 13.4318,0" id="Fill-1"></path>
                    </g>
                </g>
                <g id="Group-11" opacity="0.503031716" transform="translate(75.000000, 88.000000)">
                    <use id="Rectangle-26" stroke="#ACACAC" mask="url(#mask-2)" stroke-width="2" fill="#FFFFFF" xlink:href="#path-1"></use>
                    <text id="Cancel" font-family="ArialMT, Arial" font-size="16" font-weight="normal" fill="#333333">
                        <tspan x="9.09765625" y="23">Cancel</tspan>
                    </text>
                </g>
                <g id="Group-11" opacity="0.503031716" transform="translate(0.000000, 88.000000)">
                    <use id="Rectangle-26" stroke="#ACACAC" mask="url(#mask-4)" stroke-width="2" fill="#FFFFFF" xlink:href="#path-3"></use>
                    <text id="Save" font-family="ArialMT, Arial" font-size="16" font-weight="normal" fill="#333333">
                        <tspan x="17.765625" y="23">Save</tspan>
                    </text>
                </g>
                <g id="Group-11" opacity="0.503031716" transform="translate(591.000000, 88.000000)">
                    <use id="Rectangle-26" stroke="#ACACAC" mask="url(#mask-6)" stroke-width="2" fill="#FFFFFF" xlink:href="#path-5"></use>
                    <text id="Cancel" font-family="ArialMT, Arial" font-size="16" font-weight="normal" fill="#333333">
                        <tspan x="9.09765625" y="23">Cancel</tspan>
                    </text>
                </g>
                <g id="Group-11" opacity="0.503031716" transform="translate(516.000000, 88.000000)">
                    <use id="Rectangle-26" stroke="#ACACAC" mask="url(#mask-8)" stroke-width="2" fill="#FFFFFF" xlink:href="#path-7"></use>
                    <text id="Save" font-family="ArialMT, Arial" font-size="16" font-weight="normal" fill="#333333">
                        <tspan x="17.765625" y="23">Save</tspan>
                    </text>
                </g>
                <g id="Input-/-Text-Large">
                    <g id="Input-Background">
                        <use fill="#FFFFFF" fill-rule="evenodd" xlink:href="#path-9"></use>
                        <use fill="black" fill-opacity="1" filter="url(#filter-10)" xlink:href="#path-9"></use>
                        <use stroke="#CCCCCC" mask="url(#mask-11)" stroke-width="2" xlink:href="#path-9"></use>
                    </g>
                    <text id="Input-value" font-family="ArialMT, Arial" font-size="16" font-weight="normal" fill="#333333">
                        <tspan x="11" y="26">Input value</tspan>
                    </text>
                </g>
                <g id="Group-4" transform="translate(0.000000, 50.000000)">
                    <text id="Saving" font-family="ArialMT, Arial" font-size="14" font-weight="normal" line-spacing="20" fill="#666666">
                        <tspan x="23" y="13">Saving</tspan>
                    </text>
                    <g id="icon-/-loader-small" transform="translate(0.000000, 3.000000)" fill="#CCCCCC">
                        <path d="M13.4318,0 L11.6918,3.037 C13.3658,3.981 14.4998,5.773 14.4998,7.828 C14.4998,10.86 12.0328,13.328 8.9998,13.328 C5.9678,13.328 3.4998,10.86 3.4998,7.828 C3.4998,5.781 4.6258,3.996 6.2878,3.049 L4.5138,0.033 C1.8188,1.588 -0.0002,4.493 -0.0002,7.828 C-0.0002,12.798 4.0298,16.828 8.9998,16.828 C13.9708,16.828 17.9998,12.798 17.9998,7.828 C17.9998,4.47 16.1578,1.547 13.4318,0" id="Fill-1"></path>
                    </g>
                </g>
            </g>
        </g>
    </g>
</svg>