<?xml version="1.0" encoding="UTF-8" standalone="no"?>
<svg width="709px" height="214px" viewBox="0 0 709 214" version="1.1" xmlns="http://www.w3.org/2000/svg" xmlns:xlink="http://www.w3.org/1999/xlink">
    <!-- Generator: Sketch 41.2 (35397) - http://www.bohemiancoding.com/sketch -->
    <title>patterns-errors004</title>
    <desc>Created with Sketch.</desc>
    <defs>
        <rect id="path-1" x="0" y="0" width="705" height="210"></rect>
        <filter x="-50%" y="-50%" width="200%" height="200%" filterUnits="objectBoundingBox" id="filter-2">
            <feOffset dx="0" dy="1" in="SourceAlpha" result="shadowOffsetOuter1"></feOffset>
            <feGaussianBlur stdDeviation="1" in="shadowOffsetOuter1" result="shadowBlurOuter1"></feGaussianBlur>
            <feComposite in="shadowBlurOuter1" in2="SourceAlpha" operator="out" result="shadowBlurOuter1"></feComposite>
            <feColorMatrix values="0 0 0 0 0   0 0 0 0 0   0 0 0 0 0  0 0 0 0.5 0" type="matrix" in="shadowBlurOuter1"></feColorMatrix>
        </filter>
        <mask id="mask-3" maskContentUnits="userSpaceOnUse" maskUnits="objectBoundingBox" x="0" y="0" width="705" height="210" fill="white">
            <use xlink:href="#path-1"></use>
        </mask>
        <rect id="path-4" x="0" y="0" width="440" height="42"></rect>
        <mask id="mask-5" maskContentUnits="userSpaceOnUse" maskUnits="objectBoundingBox" x="0" y="0" width="440" height="42" fill="white">
            <use xlink:href="#path-4"></use>
        </mask>
    </defs>
    <g id="Pattern-section" stroke="none" stroke-width="1" fill="none" fill-rule="evenodd">
        <g id="Pattern-Errors" transform="translate(-246.000000, -1763.000000)">
            <g id="patterns-errors004" transform="translate(248.000000, 1764.000000)">
                <g id="Rectangle-4">
                    <use fill="black" fill-opacity="1" filter="url(#filter-2)" xlink:href="#path-1"></use>
                    <use stroke-opacity="0.355072464" stroke="#979797" mask="url(#mask-3)" stroke-width="2" fill="#FFFFFF" fill-rule="evenodd" xlink:href="#path-1"></use>
                </g>
                <rect id="Rectangle-7" fill="#EDEDED" x="20" y="1" width="665" height="190"></rect>
                <g id="Group" transform="translate(41.000000, 31.000000)">
                    <text id="Payment-information" font-family="Arial-BoldMT, Arial" font-size="18" font-weight="bold" fill="#333333">
                        <tspan x="0" y="16">Payment information</tspan>
                    </text>
                    <path d="M0,31.5 L620,31.5" id="Line" stroke="#CCCCCC" stroke-linecap="square"></path>
                </g>
                <text id="Amount-to-pay-(Maxim" font-family="ArialMT, Arial" font-size="16" font-weight="normal" fill="#333333">
                    <tspan x="41" y="95">Amount to pay (Maximum $25,000 for Same Day ACH payment)</tspan>
                </text>
                <g id="Input-/-Text" transform="translate(41.000000, 105.000000)">
                    <use id="Input-Background" stroke="#C90202" mask="url(#mask-5)" stroke-width="4" fill="#FFFFFF" xlink:href="#path-4"></use>
                    <text id="Input-Value" font-family="ArialMT, Arial" font-size="16" font-weight="normal" fill="#333333">
                        <tspan x="371" y="26">$27,500</tspan>
                    </text>
                </g>
                <g id="Group-5" transform="translate(41.000000, 152.000000)" fill="#C90202">
                    <text id="Same-Day-ACH-transac" font-family="ArialMT, Arial" font-size="14" font-weight="normal">
                        <tspan x="27" y="14">Same Day ACH transactions cannot exceed $25,000.</tspan>
                    </text>
                    <g id="icon-/-error">
                        <path d="M9.7047,11.7 L8.3047,11.7 L8.0047,5 L10.0047,5 L9.7047,11.7 Z M9.0047,16 C8.4047,16 8.0047,15.6 8.0047,15 C8.0047,14.4 8.4047,14 9.0047,14 C9.6047,14 10.0047,14.4 10.0047,15 C10.0047,15.6 9.6047,16 9.0047,16 L9.0047,16 Z M17.6047,14.7 L10.7047,1.4 C10.2047,0.5 9.6047,0 9.0047,0 C8.4047,0 7.8047,0.5 7.3047,1.4 L0.4047,14.7 C-0.0953,15.7 -0.0953,16.5 0.2047,17.1 C0.5047,17.7 1.3047,18 2.3047,18 L15.7047,18 C16.7047,18 17.4047,17.7 17.8047,17.1 C18.1047,16.5 18.1047,15.6 17.6047,14.7 L17.6047,14.7 Z" id="Fill-1"></path>
                    </g>
                </g>
            </g>
        </g>
    </g>
</svg>