<?xml version="1.0" encoding="UTF-8" standalone="no"?>
<svg width="725px" height="346px" viewBox="0 0 725 346" version="1.1" xmlns="http://www.w3.org/2000/svg" xmlns:xlink="http://www.w3.org/1999/xlink">
    <!-- Generator: Sketch 41.2 (35397) - http://www.bohemiancoding.com/sketch -->
    <title>style-color example</title>
    <desc>Created with Sketch.</desc>
    <defs>
        <rect id="path-1" x="0" y="0" width="300" height="42"></rect>
        <filter x="-50%" y="-50%" width="200%" height="200%" filterUnits="objectBoundingBox" id="filter-2">
            <feGaussianBlur stdDeviation="2" in="SourceAlpha" result="shadowBlurInner1"></feGaussianBlur>
            <feOffset dx="2" dy="2" in="shadowBlurInner1" result="shadowOffsetInner1"></feOffset>
            <feComposite in="shadowOffsetInner1" in2="SourceAlpha" operator="arithmetic" k2="-1" k3="1" result="shadowInnerInner1"></feComposite>
            <feColorMatrix values="0 0 0 0 0   0 0 0 0 0   0 0 0 0 0  0 0 0 0.15 0" type="matrix" in="shadowInnerInner1"></feColorMatrix>
        </filter>
        <mask id="mask-3" maskContentUnits="userSpaceOnUse" maskUnits="objectBoundingBox" x="0" y="0" width="300" height="42" fill="white">
            <use xlink:href="#path-1"></use>
        </mask>
    </defs>
    <g id="Style-section" stroke="none" stroke-width="1" fill="none" fill-rule="evenodd">
        <g id="Style-Color" transform="translate(-246.000000, -1023.000000)">
            <g id="primary-color-example" transform="translate(245.000000, 213.000000)">
                <g id="style-color-example" transform="translate(2.000000, 810.000000)">
                    <g id="Group-7" transform="translate(384.000000, 0.000000)">
                        <g id="Input-/-Text-Large">
                            <g id="Input-Background">
                                <use fill="#FFFFFF" fill-rule="evenodd" xlink:href="#path-1"></use>
                                <use fill="black" fill-opacity="1" filter="url(#filter-2)" xlink:href="#path-1"></use>
                                <use stroke="#CCCCCC" mask="url(#mask-3)" stroke-width="2" xlink:href="#path-1"></use>
                            </g>
                            <text id="Input-value" font-family="ArialMT, Arial" font-size="16" font-weight="normal" fill="#333333">
                                <tspan x="11" y="26">Input value</tspan>
                            </text>
                        </g>
                        <g id="Group" transform="translate(0.000000, 47.000000)" fill="#2E6F03">
                            <text id="Success" font-family="ArialMT, Arial" font-size="14" font-weight="normal" line-spacing="20">
                                <tspan x="26" y="13">Success</tspan>
                            </text>
                            <g id="icon-/-success">
                                <path d="M3.01407412,7.28401605 L7.20307412,11.074016 L15.0810741,0.00401604813 C15.0810741,0.00401604813 16.7770741,-0.0959839519 17.4750741,0.702016048 C18.1730741,1.59901605 17.9740741,3.49401605 17.9740741,3.49401605 L7.30207412,17.955016 L0.0220741206,10.775016 C0.0220741206,10.775016 -0.176925879,8.88001605 0.620074121,7.98201605 C1.41807412,7.08501605 3.01407412,7.28401605 3.01407412,7.28401605" id="Fill-1"></path>
                            </g>
                        </g>
                    </g>
                    <g id="Group-8" transform="translate(0.000000, 1.000000)">
                        <g id="Input-/-Text-(Error)---Large">
                            <rect id="Input-Background" stroke="#C90202" stroke-width="2" fill="#FFFFFF" fill-rule="evenodd" x="0" y="0" width="300" height="42"></rect>
                            <text id="Input-Value" font-family="ArialMT, Arial" font-size="16" font-weight="normal" fill="#333333">
                                <tspan x="11" y="26">Input value</tspan>
                            </text>
                        </g>
                        <g id="Group-5" transform="translate(0.000000, 47.000000)" fill="#C90202">
                            <text id="Error-message." font-family="ArialMT, Arial" font-size="14" font-weight="normal">
                                <tspan x="27" y="14">Error message.</tspan>
                            </text>
                            <g id="icon-/-error">
                                <path d="M9.7047,11.7 L8.3047,11.7 L8.0047,5 L10.0047,5 L9.7047,11.7 Z M9.0047,16 C8.4047,16 8.0047,15.6 8.0047,15 C8.0047,14.4 8.4047,14 9.0047,14 C9.6047,14 10.0047,14.4 10.0047,15 C10.0047,15.6 9.6047,16 9.0047,16 L9.0047,16 Z M17.6047,14.7 L10.7047,1.4 C10.2047,0.5 9.6047,0 9.0047,0 C8.4047,0 7.8047,0.5 7.3047,1.4 L0.4047,14.7 C-0.0953,15.7 -0.0953,16.5 0.2047,17.1 C0.5047,17.7 1.3047,18 2.3047,18 L15.7047,18 C16.7047,18 17.4047,17.7 17.8047,17.1 C18.1047,16.5 18.1047,15.6 17.6047,14.7 L17.6047,14.7 Z" id="Fill-1"></path>
                            </g>
                        </g>
                    </g>
                    <g id="Group-2" transform="translate(0.000000, 91.000000)">
                        <rect id="Rectangle-69" fill="#FFE7E5" x="0" y="0" width="724" height="45"></rect>
                        <g id="icon-/-error" transform="translate(22.000000, 13.000000)" fill="#C90202">
                            <path d="M9.7047,11.7 L8.3047,11.7 L8.0047,5 L10.0047,5 L9.7047,11.7 Z M9.0047,16 C8.4047,16 8.0047,15.6 8.0047,15 C8.0047,14.4 8.4047,14 9.0047,14 C9.6047,14 10.0047,14.4 10.0047,15 C10.0047,15.6 9.6047,16 9.0047,16 L9.0047,16 Z M17.6047,14.7 L10.7047,1.4 C10.2047,0.5 9.6047,0 9.0047,0 C8.4047,0 7.8047,0.5 7.3047,1.4 L0.4047,14.7 C-0.0953,15.7 -0.0953,16.5 0.2047,17.1 C0.5047,17.7 1.3047,18 2.3047,18 L15.7047,18 C16.7047,18 17.4047,17.7 17.8047,17.1 C18.1047,16.5 18.1047,15.6 17.6047,14.7 L17.6047,14.7 Z" id="Fill-1"></path>
                        </g>
                        <text id="Error-message-goes-h" font-family="Arial-BoldMT, Arial" font-size="16" font-weight="bold" line-spacing="20" fill="#333333">
                            <tspan x="51" y="27">Error message goes here.</tspan>
                        </text>
                        <text id="Additional-text-goes" font-family="ArialMT, Arial" font-size="16" font-weight="normal" line-spacing="20" fill="#333333">
                            <tspan x="252" y="27">Additional text goes here.</tspan>
                        </text>
                    </g>
                    <g id="Group" transform="translate(0.000000, 161.000000)">
                        <rect id="Rectangle-69" fill="#E0EAD9" x="0" y="0" width="724" height="45"></rect>
                        <g id="icon-/-success" transform="translate(22.000000, 13.000000)" fill="#2E6F03">
                            <path d="M3.01407412,7.28401605 L7.20307412,11.074016 L15.0810741,0.00401604813 C15.0810741,0.00401604813 16.7770741,-0.0959839519 17.4750741,0.702016048 C18.1730741,1.59901605 17.9740741,3.49401605 17.9740741,3.49401605 L7.30207412,17.955016 L0.0220741206,10.775016 C0.0220741206,10.775016 -0.176925879,8.88001605 0.620074121,7.98201605 C1.41807412,7.08501605 3.01407412,7.28401605 3.01407412,7.28401605" id="Fill-1"></path>
                        </g>
                        <text id="Success-message-goes" font-family="Arial-BoldMT, Arial" font-size="16" font-weight="bold" line-spacing="20" fill="#333333">
                            <tspan x="51" y="27">Success message goes here.</tspan>
                        </text>
                        <text id="Additional-text-goes" font-family="ArialMT, Arial" font-size="16" font-weight="normal" line-spacing="20" fill="#333333">
                            <tspan x="277" y="27">Additional text goes here.</tspan>
                        </text>
                    </g>
                    <g id="Group-3" transform="translate(0.000000, 231.000000)">
                        <rect id="Rectangle-69" fill="#FFF8E5" x="0" y="0" width="724" height="45"></rect>
                        <g id="icon-/-warning" transform="translate(22.000000, 13.000000)">
                            <path d="M2.3401,17.9486 C1.3431,17.9486 0.5451,17.6496 0.2461,17.0516 C-0.1529,16.4526 -0.0529,15.6556 0.4451,14.6576 L7.3261,1.3956 C7.8241,0.4986 8.4231,-0.0004 9.0211,-0.0004 C9.6191,-0.0004 10.2171,0.4986 10.7161,1.3956 L17.5961,14.6576 C18.0951,15.5556 18.0951,16.4526 17.7961,17.0516 C17.3971,17.6496 16.6991,17.9486 15.7021,17.9486 L2.3401,17.9486 Z" id="Fill-1" fill="#FEC82A"></path>
                            <polygon id="Fill-4" fill="#333333" points="8.323 11.6666 8.024 4.9856 10.018 4.9856 9.719 11.6666"></polygon>
                            <path d="M9.021,13.96 C9.572,13.96 10.018,14.406 10.018,14.957 C10.018,15.508 9.572,15.954 9.021,15.954 C8.47,15.954 8.024,15.508 8.024,14.957 C8.024,14.406 8.47,13.96 9.021,13.96" id="Fill-6" fill="#333333"></path>
                        </g>
                        <text id="Warning-message-goes" font-family="Arial-BoldMT, Arial" font-size="16" font-weight="bold" line-spacing="20" fill="#333333">
                            <tspan x="51" y="27">Warning message goes here.</tspan>
                        </text>
                        <text id="Additional-text-goes" font-family="ArialMT, Arial" font-size="16" font-weight="normal" line-spacing="20" fill="#333333">
                            <tspan x="276" y="27">Additional text goes here.</tspan>
                        </text>
                    </g>
                    <g id="info" transform="translate(0.000000, 301.000000)">
                        <g id="Group-3-Copy">
                            <rect id="Rectangle-69" fill="#EDEDED" x="0" y="0" width="724" height="45"></rect>
                            <text id="Info-message-goes-he" font-family="Arial-BoldMT, Arial" font-size="16" font-weight="bold" line-spacing="20" fill="#333333">
                                <tspan x="51" y="27">Info message goes here.</tspan>
                            </text>
                            <text id="Additional-text-goes" font-family="ArialMT, Arial" font-size="16" font-weight="normal" line-spacing="20" fill="#333333">
                                <tspan x="243" y="27">Additional text goes here.</tspan>
                            </text>
                        </g>
                        <g id="ico-info" transform="translate(17.000000, 13.000000)" fill="#0055CC">
                            <path d="M7.74,4.45 C7.74,3.64 8.46,3.1 9.27,3.1 C9.99,3.1 10.71,3.73 10.71,4.45 C10.71,5.17 9.99,5.8 9.27,5.8 C8.55,5.8 7.74,5.17 7.74,4.45 L7.74,4.45 Z M6.12,13 L7.92,13 L7.92,9.49 L7.11,9.49 C6.84,9.49 6.39,9.13 6.39,8.86 L6.39,8.23 C6.39,7.96 6.75,7.6 7.02,7.6 L10.62,7.6 L10.62,13 L12.42,13 L12.42,14.89 L6.12,14.89 L6.12,13 Z M0,9.4 C0,14.35 4.05,18.4 9,18.4 C13.95,18.4 18,14.35 18,9.4 C18,4.45 13.95,0.4 9,0.4 C4.05,0.4 0,4.45 0,9.4 L0,9.4 Z" id="Page-1"></path>
                        </g>
                    </g>
                </g>
            </g>
        </g>
    </g>
</svg>