<?xml version="1.0" encoding="UTF-8" standalone="no"?>
<svg width="821px" height="557px" viewBox="0 0 821 557" version="1.1" xmlns="http://www.w3.org/2000/svg" xmlns:xlink="http://www.w3.org/1999/xlink">
    <!-- Generator: Sketch 41.2 (35397) - http://www.bohemiancoding.com/sketch -->
    <title>table-expandable-lms</title>
    <desc>Created with Sketch.</desc>
    <defs>
        <rect id="path-1" x="1" y="0" width="694" height="435"></rect>
        <mask id="mask-2" maskContentUnits="userSpaceOnUse" maskUnits="objectBoundingBox" x="0" y="0" width="694" height="435" fill="white">
            <use xlink:href="#path-1"></use>
        </mask>
        <rect id="path-3" x="113" y="65" width="699" height="185"></rect>
        <mask id="mask-4" maskContentUnits="userSpaceOnUse" maskUnits="objectBoundingBox" x="0" y="0" width="699" height="185" fill="white">
            <use xlink:href="#path-3"></use>
        </mask>
    </defs>
    <g id="Page-1" stroke="none" stroke-width="1" fill="none" fill-rule="evenodd">
        <g id="Artboard" transform="translate(-73.000000, -3091.000000)">
            <g id="table-expandable-lms" transform="translate(73.000000, 3091.000000)">
                <rect id="Rectangle-81" fill="#EDEDED" x="1" y="105" width="694" height="55"></rect>
                <use id="Rectangle-6" stroke="#979797" mask="url(#mask-2)" stroke-width="4" stroke-dasharray="2" xlink:href="#path-1"></use>
                <path d="M1,10.5 L695,10.5" id="Line" stroke="#CCCCCC" stroke-linecap="square"></path>
                <path d="M1,51.5 L695,51.5" id="Line" stroke="#CCCCCC" stroke-linecap="square"></path>
                <path d="M1,105.5 L695,105.5" id="Line" stroke="#CCCCCC" stroke-linecap="square"></path>
                <text id="Label" font-family="ArialMT, Arial" font-size="14" font-weight="normal" line-spacing="20" fill="#333333">
                    <tspan x="11" y="35">Label</tspan>
                </text>
                <text id="Label" font-family="ArialMT, Arial" font-size="14" font-weight="normal" line-spacing="20" fill="#333333">
                    <tspan x="241" y="35">Label</tspan>
                </text>
                <path d="M231.5,21.5 L231.5,42.5" id="Line" stroke="#CCCCCC" stroke-linecap="square"></path>
                <text id="Amount" font-family="ArialMT, Arial" font-size="14" font-weight="normal" line-spacing="20" fill="#333333">
                    <tspan x="634.751953" y="35">Amount</tspan>
                </text>
                <path d="M511.5,21.5 L511.5,42.5" id="Line" stroke="#CCCCCC" stroke-linecap="square"></path>
                <text id="Lorem-ipsum-dolor-si" font-family="ArialMT, Arial" font-size="16" font-weight="normal" line-spacing="20" fill="#333333">
                    <tspan x="31" y="83">Lorem ipsum dolor sit ame </tspan>
                </text>
                <text id="Lorem-ipsum-dolor-si" font-family="ArialMT, Arial" font-size="16" font-weight="normal" line-spacing="20" fill="#333333">
                    <tspan x="241" y="83">Lorem ipsum dolor sit ame </tspan>
                </text>
                <text id="$0.00" font-family="ArialMT, Arial" font-size="16" font-weight="normal" line-spacing="20" fill="#333333">
                    <tspan x="640.957031" y="83">$0.00</tspan>
                </text>
                <g id="icon-/-sort" transform="translate(51.000000, 28.000000)" fill="#666666">
                    <path d="M0,0 L6.42857143,9 C6.42857143,9 8.34270513,6.32021281 9.29977199,4.98031922 C10.4855623,3.32021281 12.8571429,0 12.8571429,0 L0,0 Z" id="Page-1"></path>
                </g>
                <path d="M1,105.5 L695,105.5" id="Line" stroke="#CCCCCC" stroke-linecap="square"></path>
                <path d="M1,159.5 L695,159.5" id="Line" stroke="#CCCCCC" stroke-linecap="square"></path>
                <text id="Lorem-ipsum-dolor-si" font-family="ArialMT, Arial" font-size="16" font-weight="normal" line-spacing="20" fill="#333333">
                    <tspan x="31" y="137">Lorem ipsum dolor sit ame </tspan>
                </text>
                <text id="Lorem-ipsum-dolor-si" font-family="ArialMT, Arial" font-size="16" font-weight="normal" line-spacing="20" fill="#333333">
                    <tspan x="241" y="137">Lorem ipsum dolor sit ame </tspan>
                </text>
                <text id="$0.00" font-family="ArialMT, Arial" font-size="16" font-weight="normal" line-spacing="20" fill="#333333">
                    <tspan x="640.957031" y="137">$0.00</tspan>
                </text>
                <path d="M1,213.5 L695,213.5" id="Line" stroke="#CCCCCC" stroke-linecap="square"></path>
                <text id="Lorem-ipsum-dolor-si" font-family="ArialMT, Arial" font-size="16" font-weight="normal" line-spacing="20" fill="#333333">
                    <tspan x="31" y="191">Lorem ipsum dolor sit ame </tspan>
                </text>
                <text id="Lorem-ipsum-dolor-si" font-family="ArialMT, Arial" font-size="16" font-weight="normal" line-spacing="20" fill="#333333">
                    <tspan x="241" y="191">Lorem ipsum dolor sit ame </tspan>
                </text>
                <text id="$0.00" font-family="ArialMT, Arial" font-size="16" font-weight="normal" line-spacing="20" fill="#333333">
                    <tspan x="640.957031" y="191">$0.00</tspan>
                </text>
                <path d="M1,213.5 L695,213.5" id="Line" stroke="#CCCCCC" stroke-linecap="square"></path>
                <path d="M1,307.5 L695,307.5" id="Line" stroke="#CCCCCC" stroke-linecap="square"></path>
                <text id="Lorem-ipsum-dolor-si" font-family="ArialMT, Arial" font-size="16" font-weight="normal" line-spacing="20" fill="#333333">
                    <tspan x="31" y="245">Lorem ipsum dolor sit ame </tspan>
                </text>
                <text id="Lorem-ipsum-dolor-si" font-family="ArialMT, Arial" font-size="16" font-weight="normal" line-spacing="20" fill="#333333">
                    <tspan x="241" y="245">Lorem ipsum dolor sit sit ame,  lorem </tspan>
                    <tspan x="241" y="265">ipsum dolor sit ame Lorem ipsum </tspan>
                    <tspan x="241" y="285">dolor.</tspan>
                </text>
                <text id="$0.00" font-family="ArialMT, Arial" font-size="16" font-weight="normal" line-spacing="20" fill="#333333">
                    <tspan x="640.957031" y="245">$0.00</tspan>
                </text>
                <path d="M1,361.5 L695,361.5" id="Line" stroke="#CCCCCC" stroke-linecap="square"></path>
                <text id="Lorem-ipsum-dolor-si" font-family="ArialMT, Arial" font-size="16" font-weight="normal" line-spacing="20" fill="#333333">
                    <tspan x="31" y="339">Lorem ipsum dolor sit ame </tspan>
                </text>
                <text id="Lorem-ipsum-dolor-si" font-family="ArialMT, Arial" font-size="16" font-weight="normal" line-spacing="20" fill="#333333">
                    <tspan x="241" y="339">Lorem ipsum dolor sit ame </tspan>
                </text>
                <text id="$0.00" font-family="ArialMT, Arial" font-size="16" font-weight="normal" line-spacing="20" fill="#333333">
                    <tspan x="640.957031" y="339">$0.00</tspan>
                </text>
                <path d="M1,361.5 L695,361.5" id="Line" stroke="#CCCCCC" stroke-linecap="square"></path>
                <g id="Group-11" opacity="0.900000036" transform="translate(10.000000, 56.250000)">
                    <g id="Group-7" transform="translate(10.000000, 20.000000)" stroke="#979797" stroke-linecap="square">
                        <path d="M5,4 L-3,4" id="Line" transform="translate(1.000000, 4.000000) rotate(-270.000000) translate(-1.000000, -4.000000) "></path>
                        <path d="M15,4 L7,4" id="Line" transform="translate(11.000000, 4.000000) rotate(-270.000000) translate(-11.000000, -4.000000) "></path>
                        <path d="M6,-1 L6,9" id="Line" transform="translate(6.000000, 4.000000) rotate(-270.000000) translate(-6.000000, -4.000000) "></path>
                    </g>
                    <text id="10px" font-family="ArialMT, Arial" font-size="14" font-weight="normal" fill="#666666">
                        <tspan x="0" y="13">10px</tspan>
                    </text>
                </g>
                <text id="Hover-state-on-a-row" font-family="ArialMT, Arial" font-size="13" font-weight="normal" fill="#666666">
                    <tspan x="709" y="122">Hover state </tspan>
                    <tspan x="709" y="137">on a row</tspan>
                </text>
                <path d="M680.5,117.5 L706.519224,117.5" id="Line" stroke="#979797" stroke-linecap="square"></path>
                <path d="M16.5,248.5 L16.5,258.5" id="Line" stroke="#979797" stroke-linecap="square"></path>
                <text id="Collapsed-row.-Same" font-family="ArialMT, Arial" font-size="13" font-weight="normal" line-spacing="12" fill="#666666">
                    <tspan x="11" y="271">Collapsed row. </tspan>
                    <tspan x="11" y="288">Same size as sort arrow. </tspan>
                    <tspan x="11" y="305">Color #666666</tspan>
                </text>
                <text id="Expanded-row" font-family="ArialMT, Arial" font-size="13" font-weight="normal" fill="#666666">
                    <tspan x="725" y="322">Expanded row</tspan>
                </text>
                <path d="M782.5,370.5 L782.5,330.5" id="Line" stroke="#979797" stroke-linecap="square"></path>
                <g id="Group-25" opacity="0.900000036" transform="translate(0.000000, 306.000000)">
                    <g id="Group-16">
                        <g id="Group-15">
                            <g id="Group-14">
                                <polyline id="Path-3" fill="#D8D8D8" opacity="0.280083955" points="0.318826397 0.688515851 115.794725 66.3444357 809.977083 66.3444357 691.545413 0.688515851"></polyline>
                                <polygon id="Path-4" fill="#ABABAB" opacity="0.492828825" points="1.2259377 1.77058566 1.2259377 56.5796998 113.675935 249.038882 113.675935 64.3328752"></polygon>
                                <polygon id="Path-4" fill="#ABABAB" opacity="0.492828825" points="695 2 695 72.8091141 810 249.268296 810 64.5622895"></polygon>
                            </g>
                            <g id="Group-13" transform="translate(115.000000, 65.000000)">
                                <g id="Group-12">
                                    <path d="M0,0.5 L694,0.5" id="Line" stroke="#CCCCCC" stroke-linecap="square"></path>
                                    <g id="Group-5" transform="translate(0.000000, 1.000000)">
                                        <rect id="Rectangle-81" fill="#FFFFFF" x="1" y="0" width="694" height="184"></rect>
                                        <path d="M0,183.5 L694,183.5" id="Line" stroke="#CCCCCC" stroke-linecap="square"></path>
                                        <polygon id="Rectangle-7" fill="#EDEDED" points="11 64 685 64 685 173 11 173"></polygon>
                                        <text id="content-goes-here" font-family="ArialMT, Arial" font-size="14" font-weight="normal" fill="#666666">
                                            <tspan x="291.542167" y="124">content goes here</tspan>
                                        </text>
                                    </g>
                                    <text id="Lorem-ipsum-dolor-si" font-family="ArialMT, Arial" font-size="16" font-weight="normal" line-spacing="20" fill="#333333">
                                        <tspan x="34" y="28">Lorem ipsum dolor sit ame </tspan>
                                    </text>
                                    <path d="M11,20 L18.5,30.5 L21.849734,25.8103724 C23.233156,23.8735816 26,20 26,20 L11,20 Z" id="Page-1" fill="#666666"></path>
                                    <text id="Lorem-ipsum-dolor-si" font-family="ArialMT, Arial" font-size="16" font-weight="normal" line-spacing="20" fill="#333333">
                                        <tspan x="241" y="28">Lorem ipsum dolor sit ame </tspan>
                                    </text>
                                    <text id="$0.00" font-family="ArialMT, Arial" font-size="16" font-weight="normal" line-spacing="20" fill="#333333">
                                        <tspan x="639.957031" y="28">$0.00</tspan>
                                    </text>
                                </g>
                            </g>
                        </g>
                        <use id="Rectangle-8" stroke="#979797" mask="url(#mask-4)" stroke-width="2" stroke-dasharray="2" xlink:href="#path-3"></use>
                    </g>
                    <g id="Group-11" transform="translate(790.000000, 151.000000)">
                        <g id="Group-7" transform="translate(10.000000, 20.000000)" stroke="#979797" stroke-linecap="square">
                            <path d="M5,4 L-3,4" id="Line" transform="translate(1.000000, 4.000000) rotate(-270.000000) translate(-1.000000, -4.000000) "></path>
                            <path d="M15,4 L7,4" id="Line" transform="translate(11.000000, 4.000000) rotate(-270.000000) translate(-11.000000, -4.000000) "></path>
                            <path d="M6,-1 L6,9" id="Line" transform="translate(6.000000, 4.000000) rotate(-270.000000) translate(-6.000000, -4.000000) "></path>
                        </g>
                        <text id="10px" font-family="ArialMT, Arial" font-size="14" font-weight="normal" fill="#666666">
                            <tspan x="0" y="13">10px</tspan>
                        </text>
                    </g>
                    <g id="Group-11" transform="translate(104.000000, 151.000000)">
                        <g id="Group-7" transform="translate(10.000000, 20.000000)" stroke="#979797" stroke-linecap="square">
                            <path d="M5,4 L-3,4" id="Line" transform="translate(1.000000, 4.000000) rotate(-270.000000) translate(-1.000000, -4.000000) "></path>
                            <path d="M15,4 L7,4" id="Line" transform="translate(11.000000, 4.000000) rotate(-270.000000) translate(-11.000000, -4.000000) "></path>
                            <path d="M6,-1 L6,9" id="Line" transform="translate(6.000000, 4.000000) rotate(-270.000000) translate(-6.000000, -4.000000) "></path>
                        </g>
                        <text id="10px" font-family="ArialMT, Arial" font-size="14" font-weight="normal" fill="#666666">
                            <tspan x="0" y="13">10px</tspan>
                        </text>
                    </g>
                    <g id="Group-23" transform="translate(515.000000, 116.000000)">
                        <g id="Group-7" transform="translate(4.000000, 9.000000) rotate(-270.000000) translate(-4.000000, -9.000000) translate(-2.000000, 5.000000)" stroke="#979797" stroke-linecap="square">
                            <path d="M5.16666667,4 L-1.5,4" id="Line" transform="translate(1.833333, 4.000000) rotate(-270.000000) translate(-1.833333, -4.000000) "></path>
                            <path d="M13.5,4 L6.83333333,4" id="Line" transform="translate(10.166667, 4.000000) rotate(-270.000000) translate(-10.166667, -4.000000) "></path>
                            <path d="M6,-1 L6,9" id="Line" transform="translate(6.000000, 4.000000) rotate(-270.000000) translate(-6.000000, -4.000000) "></path>
                        </g>
                        <text id="10px" font-family="ArialMT, Arial" font-size="14" font-weight="normal" fill="#666666">
                            <tspan x="13" y="13">10px</tspan>
                        </text>
                    </g>
                    <g id="Group-24" transform="translate(515.000000, 235.000000)">
                        <g id="Group-7" transform="translate(4.000000, 9.000000) rotate(-270.000000) translate(-4.000000, -9.000000) translate(-2.000000, 5.000000)" stroke="#979797" stroke-linecap="square">
                            <path d="M5.16666667,4 L-1.5,4" id="Line" transform="translate(1.833333, 4.000000) rotate(-270.000000) translate(-1.833333, -4.000000) "></path>
                            <path d="M13.5,4 L6.83333333,4" id="Line" transform="translate(10.166667, 4.000000) rotate(-270.000000) translate(-10.166667, -4.000000) "></path>
                            <path d="M6,-1 L6,9" id="Line" transform="translate(6.000000, 4.000000) rotate(-270.000000) translate(-6.000000, -4.000000) "></path>
                        </g>
                        <text id="10px" font-family="ArialMT, Arial" font-size="14" font-weight="normal" fill="#666666">
                            <tspan x="13" y="13">10px</tspan>
                        </text>
                    </g>
                    <g id="Group-11" transform="translate(779.000000, 191.000000)">
                        <g id="Group-7" transform="translate(10.000000, 20.000000)" stroke="#979797" stroke-linecap="square">
                            <path d="M5,4 L-3,4" id="Line" transform="translate(1.000000, 4.000000) rotate(-270.000000) translate(-1.000000, -4.000000) "></path>
                            <path d="M15,4 L7,4" id="Line" transform="translate(11.000000, 4.000000) rotate(-270.000000) translate(-11.000000, -4.000000) "></path>
                            <path d="M6,-1 L6,9" id="Line" transform="translate(6.000000, 4.000000) rotate(-270.000000) translate(-6.000000, -4.000000) "></path>
                        </g>
                        <text id="10px" font-family="ArialMT, Arial" font-size="14" font-weight="normal" fill="#666666">
                            <tspan x="0" y="13">10px</tspan>
                        </text>
                    </g>
                    <g id="Group-11" transform="translate(118.000000, 181.000000)">
                        <g id="Group-7" transform="translate(10.000000, 20.000000)" stroke="#979797" stroke-linecap="square">
                            <path d="M5,4 L-3,4" id="Line" transform="translate(1.000000, 4.000000) rotate(-270.000000) translate(-1.000000, -4.000000) "></path>
                            <path d="M15,4 L7,4" id="Line" transform="translate(11.000000, 4.000000) rotate(-270.000000) translate(-11.000000, -4.000000) "></path>
                            <path d="M6,-1 L6,9" id="Line" transform="translate(6.000000, 4.000000) rotate(-270.000000) translate(-6.000000, -4.000000) "></path>
                        </g>
                        <text id="10px" font-family="ArialMT, Arial" font-size="14" font-weight="normal" fill="#666666">
                            <tspan x="0" y="13">10px</tspan>
                        </text>
                    </g>
                    <g id="Group-23" transform="translate(515.000000, 128.000000)">
                        <g id="Group-7" transform="translate(4.000000, 6.000000) rotate(-270.000000) translate(-4.000000, -6.000000) translate(-2.000000, 2.000000)" stroke="#979797" stroke-linecap="square">
                            <path d="M5.16666667,4 L-1.5,4" id="Line" transform="translate(1.833333, 4.000000) rotate(-270.000000) translate(-1.833333, -4.000000) "></path>
                            <path d="M13.5,4 L6.83333333,4" id="Line" transform="translate(10.166667, 4.000000) rotate(-270.000000) translate(-10.166667, -4.000000) "></path>
                            <path d="M6,-1 L6,9" id="Line" transform="translate(6.000000, 4.000000) rotate(-270.000000) translate(-6.000000, -4.000000) "></path>
                        </g>
                        <text id="10px" font-family="ArialMT, Arial" font-size="14" font-weight="normal" fill="#666666">
                            <tspan x="13" y="13">10px</tspan>
                        </text>
                    </g>
                    <g id="Group-24" transform="translate(515.000000, 226.000000)">
                        <g id="Group-7" transform="translate(4.000000, 9.000000) rotate(-270.000000) translate(-4.000000, -9.000000) translate(-2.000000, 5.000000)" stroke="#979797" stroke-linecap="square">
                            <path d="M5.16666667,4 L-1.5,4" id="Line" transform="translate(1.833333, 4.000000) rotate(-270.000000) translate(-1.833333, -4.000000) "></path>
                            <path d="M13.5,4 L6.83333333,4" id="Line" transform="translate(10.166667, 4.000000) rotate(-270.000000) translate(-10.166667, -4.000000) "></path>
                            <path d="M6,-1 L6,9" id="Line" transform="translate(6.000000, 4.000000) rotate(-270.000000) translate(-6.000000, -4.000000) "></path>
                        </g>
                        <text id="10px" font-family="ArialMT, Arial" font-size="14" font-weight="normal" fill="#666666">
                            <tspan x="13" y="13">10px</tspan>
                        </text>
                    </g>
                </g>
                <g id="icon-/-sort" transform="translate(17.500000, 241.500000) rotate(-90.000000) translate(-17.500000, -241.500000) translate(11.000000, 237.000000)" fill="#666666">
                    <path d="M0,0 L6.42857143,9 C6.42857143,9 8.34270513,6.32021281 9.29977199,4.98031922 C10.4855623,3.32021281 12.8571429,0 12.8571429,0 L0,0 Z" id="Page-1"></path>
                </g>
                <g id="icon-/-sort" transform="translate(17.500000, 188.500000) rotate(-90.000000) translate(-17.500000, -188.500000) translate(11.000000, 184.000000)" fill="#666666">
                    <path d="M0,0 L6.42857143,9 C6.42857143,9 8.34270513,6.32021281 9.29977199,4.98031922 C10.4855623,3.32021281 12.8571429,0 12.8571429,0 L0,0 Z" id="Page-1"></path>
                </g>
                <g id="icon-/-sort" transform="translate(17.500000, 133.500000) rotate(-90.000000) translate(-17.500000, -133.500000) translate(11.000000, 129.000000)" fill="#666666">
                    <path d="M0,0 L6.42857143,9 C6.42857143,9 8.34270513,6.32021281 9.29977199,4.98031922 C10.4855623,3.32021281 12.8571429,0 12.8571429,0 L0,0 Z" id="Page-1"></path>
                </g>
                <g id="icon-/-sort" transform="translate(17.500000, 79.500000) rotate(-90.000000) translate(-17.500000, -79.500000) translate(11.000000, 75.000000)" fill="#666666">
                    <path d="M0,0 L6.42857143,9 C6.42857143,9 8.34270513,6.32021281 9.29977199,4.98031922 C10.4855623,3.32021281 12.8571429,0 12.8571429,0 L0,0 Z" id="Page-1"></path>
                </g>
                <g id="icon-/-sort" transform="translate(17.500000, 336.500000) rotate(-90.000000) translate(-17.500000, -336.500000) translate(11.000000, 332.000000)" fill="#666666">
                    <path d="M0,0 L6.42857143,9 C6.42857143,9 8.34270513,6.32021281 9.29977199,4.98031922 C10.4855623,3.32021281 12.8571429,0 12.8571429,0 L0,0 Z" id="Page-1"></path>
                </g>
            </g>
        </g>
    </g>
</svg>