<?xml version="1.0" encoding="UTF-8"?>
<svg width="324px" height="430px" viewBox="0 0 324 430" version="1.1" xmlns="http://www.w3.org/2000/svg" xmlns:xlink="http://www.w3.org/1999/xlink">
    <!-- Generator: Sketch 44.1 (41455) - http://www.bohemiancoding.com/sketch -->
    <title>table-zero-xs</title>
    <desc>Created with Sketch.</desc>
    <defs>
        <rect id="path-1" x="1" y="0" width="320" height="368"></rect>
        <filter x="-1.1%" y="-0.7%" width="102.2%" height="101.9%" filterUnits="objectBoundingBox" id="filter-2">
            <feOffset dx="0" dy="1" in="SourceAlpha" result="shadowOffsetOuter1"></feOffset>
            <feGaussianBlur stdDeviation="1" in="shadowOffsetOuter1" result="shadowBlurOuter1"></feGaussianBlur>
            <feColorMatrix values="0 0 0 0 0   0 0 0 0 0   0 0 0 0 0  0 0 0 0.5 0" type="matrix" in="shadowBlurOuter1"></feColorMatrix>
        </filter>
    </defs>
    <g id="Page-1" stroke="none" stroke-width="1" fill="none" fill-rule="evenodd">
        <g id="new" transform="translate(-1167.000000, -9617.000000)">
            <g id="table-zero-xs" transform="translate(1168.000000, 9618.000000)">
                <g id="Rectangle-4">
                    <use fill="black" fill-opacity="1" filter="url(#filter-2)" xlink:href="#path-1"></use>
                    <use fill="#FFFFFF" fill-rule="evenodd" xlink:href="#path-1"></use>
                </g>
                <text id="Heading" font-family="ArialMT, Arial" font-size="22" font-weight="normal" fill="#333333">
                    <tspan x="11" y="39">Heading</tspan>
                </text>
                <path d="M3.5,52.5 L319.52533,52.5" id="Line" stroke="#CCCCCC" stroke-width="3" stroke-linecap="square"></path>
                <path d="M0,118.5 L320,118.5" id="Line" stroke="#CCCCCC" stroke-linecap="square"></path>
                <path d="M0,154.5 L320,154.5" id="Line" stroke="#CCCCCC" stroke-linecap="square"></path>
                <text id="Label" font-family="ArialMT, Arial" font-size="14" font-weight="normal" line-spacing="20" fill="#333333">
                    <tspan x="10" y="138">Label</tspan>
                </text>
                <path d="M230.5,124.5 L230.5,145.5" id="Line" stroke="#CCCCCC" stroke-linecap="square"></path>
                <text id="Amount" font-family="ArialMT, Arial" font-size="14" font-weight="normal" line-spacing="20" fill="#333333">
                    <tspan x="259.751953" y="138">Amount</tspan>
                </text>
                <g id="icon-/-sort" transform="translate(50.000000, 131.000000)" fill="#666666">
                    <path d="M0,0 L6.42857143,9 C6.42857143,9 8.34270513,6.32021281 9.29977199,4.98031922 C10.4855623,3.32021281 12.8571429,0 12.8571429,0 L0,0 Z" id="Page-1"></path>
                </g>
                <text id="Some-instructional-t" font-family="ArialMT, Arial" font-size="14" font-weight="normal" line-spacing="20" fill="#333333">
                    <tspan x="12" y="82">Some instructional text goes here.</tspan>
                </text>
                <g id="Group-9" transform="translate(122.000000, 152.000000)">
                    <g id="Group-4" transform="translate(33.000000, 0.000000)" stroke="#979797" stroke-linecap="square">
                        <path d="M8.5,37.5 L0.5,37.5" id="Line"></path>
                        <path d="M8.5,2.5 L0.5,2.5" id="Line"></path>
                        <path d="M4.5,2.5 L4.5,35.8333333" id="Line"></path>
                    </g>
                    <text id="30px" font-family="ArialMT, Arial" font-size="14" font-weight="normal" fill="#666666">
                        <tspan x="0" y="23">30px</tspan>
                    </text>
                </g>
                <g id="Group-9" transform="translate(122.000000, 329.000000)">
                    <g id="Group-4" transform="translate(33.000000, 0.000000)" stroke="#979797" stroke-linecap="square">
                        <path d="M8.5,37.5 L0.5,37.5" id="Line"></path>
                        <path d="M8.5,2.5 L0.5,2.5" id="Line"></path>
                        <path d="M4.5,2.5 L4.5,35.8333333" id="Line"></path>
                    </g>
                    <text id="40px" font-family="ArialMT, Arial" font-size="14" font-weight="normal" fill="#666666">
                        <tspan x="0" y="23">40px</tspan>
                    </text>
                </g>
                <g id="accounts" opacity="0.202049366" transform="translate(131.000000, 190.000000)" fill-rule="nonzero" fill="#666666">
                    <path d="M30,0 C13.3333333,0 0,13.3333333 0,30 C0,46.6666667 13.3333333,60 30,60 C46.6666667,60 60,46.6666667 60,30 C60,13.3333333 46.6666667,0 30,0 Z M39.3333333,39 C39,40 38.3333333,41 37.3333333,42 C36.6666667,42.6666667 35.3333333,43.3333333 34.3333333,44 C34,44 33.3333333,44.3333333 33,44.3333333 L33,48.6666667 C33,48.6666667 33,50 31.6666667,50 L28.6666667,50 C28.6666667,50 27,50 27,48.6666667 L27,44.3333333 C26.6666667,44.3333333 26.6666667,44.3333333 26.3333333,44 C25,43.6666667 24,43 23,42.3333333 C22,41.6666667 21.3333333,40.3333333 20.6666667,39.3333333 C20.3333333,37.6666667 20,36.3333333 20,34.6666667 L25,34.6666667 C25,35.6666667 25,36.3333333 25.3333333,37 C25.6666667,37.6666667 26,38.3333333 26.3333333,38.6666667 C26.6666667,39 27.3333333,39.3333333 28,39.6666667 C28.6666667,40 29.3333333,40 30,40 L31.3333333,40 C32,40 32.3333333,39.6666667 32.6666667,39.3333333 C33,39 33.6666667,38.6666667 33.6666667,38.3333333 C34,38 34,37.3333333 34,36.6666667 C34,36 33.6666667,35.3333333 33.3333333,34.6666667 C33,34.3333333 32.3333333,33.6666667 31.6666667,33.3333333 C32,33 31.3333333,32.6666667 30.3333333,32.3333333 C29.6666667,32 28.6666667,32 28,31.6666667 C27,31.3333333 26.3333333,31 25.3333333,30.6666667 C24.3333333,30.3333333 23.6666667,29.6666667 23,29 C22.3333333,28.6666667 22,27.6666667 21.6666667,27 C21.3333333,26 21,25 21,23.6666667 C21,22.3333333 21.3333333,21 21.6666667,20 C22.3333333,19 23,18 23.6666667,17.3333333 C24.6666667,16.3333333 25.3333333,16 26.6666667,15.6666667 L27,15.6666667 L27,11 C27,11 27,9.66666667 28.6666667,9.66666667 L31.6666667,9.66666667 C31.6666667,9.66666667 33,9.66666667 33,11 L33,15.3333333 L33.3333333,15.3333333 C34.3333333,15.6666667 35.3333333,16.3333333 36.3333333,17 C37.3333333,17.6666667 38,18.6666667 38.3333333,19.6666667 C39,20.6666667 39,22.3333333 39,23.6666667 L34,23.6666667 C34,22.6666667 33.6666667,22 33.6666667,21.6666667 C33.3333333,21.6666667 33,21 32.6666667,20.6666667 C32.3333333,20.3333333 31.6666667,20.3333333 31.3333333,20 L29.3333333,20 L28.3333333,20 C27.6666667,20 27.3333333,20.3333333 27,20.6666667 C26.6666667,21 26.3333333,21.3333333 26.3333333,21.6666667 C26,22 26,22.3333333 26,23 C26,23.6666667 26,24 26.3333333,24.3333333 C26.3333333,24.6666667 26.6666667,25 27.3333333,25.3333333 C28,25.6666667 28.6666667,26 29.3333333,26.3333333 C30.3333333,26.6666667 31.3333333,27 33,27.3333333 C33.3333333,27.3333333 34,27.6666667 34.6666667,28 C35.3333333,28.3333333 36.3333333,28.6666667 37,29.3333333 C37.6666667,30 38.3333333,30.6666667 39,31.6666667 C39.6666667,32.6666667 40,34 40,35.6666667 C40,36.6666667 39.6666667,38 39.3333333,39 Z" id="Shape"></path>
                </g>
                <text id="Veggies-es-bonus-vob" font-family="ArialMT, Arial" font-size="16" font-weight="normal" fill="#333333">
                    <tspan x="31.6367188" y="284">Veggies es bonus vobis, proinde vos </tspan>
                    <tspan x="107.695312" y="301">postulo essum.</tspan>
                    <tspan x="52.9384766" y="328" font-size="14">Magis kohlrabi welsh onion daikon.</tspan>
                </text>
                <text id="Arial,-16px,-#333333" opacity="0.900000036" font-family="ArialMT, Arial" font-size="14" font-weight="normal" fill="#666666">
                    <tspan x="38.9658203" y="207">Arial, 16px, </tspan>
                    <tspan x="54.4970703" y="223">#333333</tspan>
                    <tspan x="17.1591797" y="239">center aligned.</tspan>
                </text>
                <path d="M64.5,273.5 L64.5,243.5" id="Line" stroke="#666666" stroke-linecap="square"></path>
                <text id="Arial,-14px,-#333333" opacity="0.900000036" font-family="ArialMT, Arial" font-size="14" font-weight="normal" fill="#666666">
                    <tspan x="22" y="410">Arial, 14px, #333333</tspan>
                    <tspan x="22" y="426">center aligned.</tspan>
                </text>
                <path d="M77.5,332.5 L77.4928271,392.5" id="Line" stroke="#666666" stroke-linecap="square"></path>
                <g id="Group-7" transform="translate(130.000000, 250.000000)">
                    <g id="Group-4" transform="translate(29.000000, 0.000000)" stroke="#979797" stroke-linecap="square">
                        <path d="M8.5,22.5 L0.5,22.5" id="Line"></path>
                        <path d="M8.5,1.5 L0.5,1.5" id="Line"></path>
                        <path d="M4.5,1.5 L4.5,21.5" id="Line"></path>
                    </g>
                    <text id="20px" font-family="ArialMT, Arial" font-size="14" font-weight="normal" fill="#666666">
                        <tspan x="0" y="16">20px</tspan>
                    </text>
                </g>
            </g>
        </g>
    </g>
</svg>