<?xml version="1.0" encoding="UTF-8"?>
<svg width="758px" height="318px" viewBox="0 0 758 318" version="1.1" xmlns="http://www.w3.org/2000/svg" xmlns:xlink="http://www.w3.org/1999/xlink">
    <!-- Generator: Sketch 44.1 (41455) - http://www.bohemiancoding.com/sketch -->
    <title>table-loading-lms</title>
    <desc>Created with Sketch.</desc>
    <defs>
        <polygon id="path-1" points="0 0 754 0 754 314 0 314"></polygon>
        <filter x="-0.5%" y="-0.8%" width="100.9%" height="102.2%" filterUnits="objectBoundingBox" id="filter-2">
            <feOffset dx="0" dy="1" in="SourceAlpha" result="shadowOffsetOuter1"></feOffset>
            <feGaussianBlur stdDeviation="1" in="shadowOffsetOuter1" result="shadowBlurOuter1"></feGaussianBlur>
            <feComposite in="shadowBlurOuter1" in2="SourceAlpha" operator="out" result="shadowBlurOuter1"></feComposite>
            <feColorMatrix values="0 0 0 0 0   0 0 0 0 0   0 0 0 0 0  0 0 0 0.5 0" type="matrix" in="shadowBlurOuter1"></feColorMatrix>
        </filter>
    </defs>
    <g id="Page-1" stroke="none" stroke-width="1" fill="none" fill-rule="evenodd">
        <g id="new" transform="translate(-218.000000, -9191.000000)">
            <g id="table-loading-lms" transform="translate(220.000000, 9192.000000)">
                <g id="Rectangle-4" opacity="0.900000036">
                    <use fill="black" fill-opacity="1" filter="url(#filter-2)" xlink:href="#path-1"></use>
                    <use fill="#FFFFFF" fill-rule="evenodd" xlink:href="#path-1"></use>
                    <path stroke="#979797" stroke-width="1" d="M0.5,0.5 L0.5,313.5 L753.5,313.5 L753.5,0.5 L0.5,0.5 Z"></path>
                </g>
                <text id="Heading" opacity="0.900000036" font-family="ArialMT, Arial" font-size="28" font-weight="normal" fill="#333333">
                    <tspan x="30" y="54">Heading</tspan>
                </text>
                <path d="M30,73 L724,73" id="Line" stroke="#CCCCCC" stroke-width="3" opacity="0.900000036" stroke-linecap="square"></path>
                <text id="Some-instructional-t" font-family="ArialMT, Arial" font-size="14" font-weight="normal" line-spacing="20" fill="#333333">
                    <tspan x="31" y="107">Some instructional text goes here.</tspan>
                </text>
                <path d="M30,144.5 L724,144.5" id="Line" stroke="#CCCCCC" stroke-linecap="square"></path>
                <path d="M30,185.5 L724,185.5" id="Line" stroke="#CCCCCC" stroke-linecap="square"></path>
                <text id="Label" font-family="ArialMT, Arial" font-size="14" font-weight="normal" line-spacing="20" fill="#333333">
                    <tspan x="40" y="169">Label</tspan>
                </text>
                <text id="Label" font-family="ArialMT, Arial" font-size="14" font-weight="normal" line-spacing="20" fill="#333333">
                    <tspan x="270" y="169">Label</tspan>
                </text>
                <path d="M260.5,155.5 L260.5,176.5" id="Line" stroke="#CCCCCC" stroke-linecap="square"></path>
                <text id="Amount" font-family="ArialMT, Arial" font-size="14" font-weight="normal" line-spacing="20" fill="#333333">
                    <tspan x="549.751953" y="169">Amount</tspan>
                </text>
                <path d="M480.5,155.5 L480.5,176.5" id="Line" stroke="#CCCCCC" stroke-linecap="square"></path>
                <path d="M607.5,155.5 L607.5,176.5" id="Line" stroke="#CCCCCC" stroke-linecap="square"></path>
                <g id="icon-/-sort" transform="translate(80.000000, 162.000000)" fill="#666666">
                    <path d="M0,0 L6.42857143,9 C6.42857143,9 8.34270513,6.32021281 9.29977199,4.98031922 C10.4855623,3.32021281 12.8571429,0 12.8571429,0 L0,0 Z" id="Page-1"></path>
                </g>
                <g id="Group-42" transform="translate(335.000000, 183.000000)">
                    <g id="Group-9">
                        <g id="Group-4" transform="translate(33.000000, 0.000000)" stroke="#979797" stroke-linecap="square">
                            <path d="M8.5,37.5 L0.5,37.5" id="Line"></path>
                            <path d="M8.5,2.5 L0.5,2.5" id="Line"></path>
                            <path d="M4.5,2.5 L4.5,35.8333333" id="Line"></path>
                        </g>
                        <text id="40px" font-family="ArialMT, Arial" font-size="14" font-weight="normal" fill="#666666">
                            <tspan x="0" y="23">40px</tspan>
                        </text>
                    </g>
                    <g id="Group-9" transform="translate(0.000000, 92.000000)">
                        <g id="Group-4" transform="translate(33.000000, 0.000000)" stroke="#979797" stroke-linecap="square">
                            <path d="M8.5,37.5 L0.5,37.5" id="Line"></path>
                            <path d="M8.5,2.5 L0.5,2.5" id="Line"></path>
                            <path d="M4.5,2.5 L4.5,35.8333333" id="Line"></path>
                        </g>
                        <text id="40px" font-family="ArialMT, Arial" font-size="14" font-weight="normal" fill="#666666">
                            <tspan x="0" y="23">40px</tspan>
                        </text>
                    </g>
                    <g id="Group-55" transform="translate(1.000000, 33.000000)">
                        <g id="progress-indicator-/-loader-(medium)" transform="translate(41.998709, 21.530000) rotate(-45.000000) translate(-41.998709, -21.530000) translate(27.000000, 7.000000)" fill="#CCCCCC">
                            <path d="M22.3863333,0 L19.4863333,5.18076471 C22.2763333,6.79111765 24.1663333,9.84805882 24.1663333,13.3536471 C24.1663333,18.5258824 20.0546667,22.736 14.9996667,22.736 C9.94633333,22.736 5.833,18.5258824 5.833,13.3536471 C5.833,9.86170588 7.70966667,6.81670588 10.4796667,5.20123529 L7.523,0.0562941176 C3.03133333,2.70894118 -0.000333333333,7.66452941 -0.000333333333,13.3536471 C-0.000333333333,21.8318824 6.71633333,28.7065882 14.9996667,28.7065882 C23.2846667,28.7065882 29.9996667,21.8318824 29.9996667,13.3536471 C29.9996667,7.62529412 26.9296667,2.639 22.3863333,0" id="Fill-1"></path>
                        </g>
                        <text id="Loading..." font-family="ArialMT, Arial" font-size="18" font-weight="normal" fill="#333333">
                            <tspan x="1.96679688" y="59">Loading...</tspan>
                        </text>
                    </g>
                </g>
            </g>
        </g>
    </g>
</svg>