<?xml version="1.0" encoding="UTF-8" standalone="no"?>
<svg width="418px" height="574px" viewBox="0 0 418 574" version="1.1" xmlns="http://www.w3.org/2000/svg" xmlns:xlink="http://www.w3.org/1999/xlink">
    <!-- Generator: Sketch 41.2 (35397) - http://www.bohemiancoding.com/sketch -->
    <title>table-expandable-xs</title>
    <desc>Created with Sketch.</desc>
    <defs>
        <rect id="path-1" x="1" y="0" width="340" height="435"></rect>
        <mask id="mask-2" maskContentUnits="userSpaceOnUse" maskUnits="objectBoundingBox" x="0" y="0" width="340" height="435" fill="white">
            <use xlink:href="#path-1"></use>
        </mask>
        <polygon id="path-3" points="51.9076355 65 386 66 386 251 51.9076355 250"></polygon>
        <mask id="mask-4" maskContentUnits="userSpaceOnUse" maskUnits="objectBoundingBox" x="0" y="0" width="334.092365" height="186" fill="white">
            <use xlink:href="#path-3"></use>
        </mask>
    </defs>
    <g id="Page-1" stroke="none" stroke-width="1" fill="none" fill-rule="evenodd">
        <g id="Artboard" transform="translate(-930.000000, -3091.000000)">
            <g id="table-expandable-xs" transform="translate(930.000000, 3091.000000)">
                <text id="52px-min-at-all-brea" opacity="0.900000036" font-family="ArialMT, Arial" font-size="13" font-weight="normal" fill="#666666">
                    <tspan x="355" y="186">52px min </tspan>
                    <tspan x="355" y="201">at all </tspan>
                    <tspan x="355" y="216">breakpoins</tspan>
                </text>
                <g id="Group-45" transform="translate(340.000000, 162.000000)" stroke-linecap="square" stroke="#979797" opacity="0.900000036">
                    <g id="Group-6">
                        <path d="M8.5,56.5 L0.5,56.5" id="Line"></path>
                        <path d="M8.5,2.5 L0.5,2.5" id="Line"></path>
                        <path d="M4.5,2.5 L4.5,55.5094331" id="Line"></path>
                    </g>
                    <path d="M12.5,29.5 L5.5,29.5" id="Line"></path>
                </g>
                <path d="M0.598543017,61.5 L342,61.5" id="Line" stroke="#CCCCCC" stroke-linecap="square"></path>
                <path d="M12,113.5 L332,113.5" id="Line" stroke="#CCCCCC" stroke-linecap="square"></path>
                <text id="Label" font-family="ArialMT, Arial" font-size="14" font-weight="normal" line-spacing="20" fill="#333333">
                    <tspan x="22" y="45">Label</tspan>
                </text>
                <path d="M242.5,31.5 L242.5,52.5" id="Line" stroke="#CCCCCC" stroke-linecap="square"></path>
                <text id="Amount" font-family="ArialMT, Arial" font-size="14" font-weight="normal" line-spacing="20" fill="#333333">
                    <tspan x="271.751953" y="45">Amount</tspan>
                </text>
                <text id="Lorem-ipsum-dolor-si" font-family="ArialMT, Arial" font-size="14" font-weight="normal" line-spacing="20" fill="#333333">
                    <tspan x="42" y="92">Lorem ipsum dolor sit ame </tspan>
                </text>
                <text id="$0.00" font-family="ArialMT, Arial" font-size="14" font-weight="normal" line-spacing="20" fill="#333333">
                    <tspan x="282.961914" y="92">$0.00</tspan>
                </text>
                <g id="icon-/-sort" transform="translate(62.000000, 38.000000)" fill="#666666">
                    <path d="M0,0 L6.42857143,9 C6.42857143,9 8.34270513,6.32021281 9.29977199,4.98031922 C10.4855623,3.32021281 12.8571429,0 12.8571429,0 L0,0 Z" id="Page-1"></path>
                </g>
                <path d="M0.598543017,113.5 L342,113.5" id="Line" stroke="#CCCCCC" stroke-linecap="square"></path>
                <path d="M0.598543017,164.5 L342,164.5" id="Line" stroke="#CCCCCC" stroke-linecap="square"></path>
                <text id="Lorem-ipsum-dolor-si" font-family="ArialMT, Arial" font-size="14" font-weight="normal" line-spacing="20" fill="#333333">
                    <tspan x="42" y="141">Lorem ipsum dolor sit ame </tspan>
                </text>
                <text id="$0.00" font-family="ArialMT, Arial" font-size="14" font-weight="normal" line-spacing="20" fill="#333333">
                    <tspan x="282.961914" y="141">$0.00</tspan>
                </text>
                <path d="M12,216.5 L332,216.5" id="Line" stroke="#CCCCCC" stroke-linecap="square"></path>
                <text id="Lorem-ipsum-dolor-si" font-family="ArialMT, Arial" font-size="14" font-weight="normal" line-spacing="20" fill="#333333">
                    <tspan x="42" y="193">Lorem ipsum dolor sit ame </tspan>
                </text>
                <text id="$0.00" font-family="ArialMT, Arial" font-size="14" font-weight="normal" line-spacing="20" fill="#333333">
                    <tspan x="282.961914" y="194">$0.00</tspan>
                </text>
                <path d="M0.598543017,216.5 L342,216.5" id="Line" stroke="#CCCCCC" stroke-linecap="square"></path>
                <text id="Lorem-ipsum-dolor-si" font-family="ArialMT, Arial" font-size="14" font-weight="normal" line-spacing="20" fill="#333333">
                    <tspan x="42" y="248">Lorem ipsum dolor sit ame </tspan>
                </text>
                <text id="$0.00" font-family="ArialMT, Arial" font-size="14" font-weight="normal" line-spacing="20" fill="#333333">
                    <tspan x="282.961914" y="248">$0.00</tspan>
                </text>
                <path d="M12,324.5 L332,324.5" id="Line" stroke="#CCCCCC" stroke-linecap="square"></path>
                <path d="M0.598543017,273.5 L342,273.5" id="Line" stroke="#CCCCCC" stroke-linecap="square"></path>
                <text id="Lorem-ipsum-dolor-si" font-family="ArialMT, Arial" font-size="14" font-weight="normal" line-spacing="20" fill="#333333">
                    <tspan x="42" y="301">Lorem ipsum dolor sit ame </tspan>
                </text>
                <text id="$0.00" font-family="ArialMT, Arial" font-size="14" font-weight="normal" line-spacing="20" fill="#333333">
                    <tspan x="282.961914" y="301">$0.00</tspan>
                </text>
                <path d="M0.598543017,324.5 L342,324.5" id="Line" stroke="#CCCCCC" stroke-linecap="square"></path>
                <text id="Lorem-ipsum-dolor-si" font-family="ArialMT, Arial" font-size="14" font-weight="normal" line-spacing="20" fill="#333333">
                    <tspan x="42" y="353">Lorem ipsum dolor sit ame </tspan>
                </text>
                <text id="$0.00" font-family="ArialMT, Arial" font-size="14" font-weight="normal" line-spacing="20" fill="#333333">
                    <tspan x="282.961914" y="353">$0.00</tspan>
                </text>
                <use id="Rectangle-6" stroke="#979797" mask="url(#mask-2)" stroke-width="4" stroke-dasharray="2" xlink:href="#path-1"></use>
                <g id="Group-22" opacity="0.900000036" transform="translate(3.000000, 323.000000)">
                    <polyline id="Path-3" fill="#D8D8D8" opacity="0.280083955" points="0.146455968 0.688515851 53.191419 66.3444357 384.425781 66.3444357 333.050781 0.688515851"></polyline>
                    <polygon id="Path-4" fill="#ABABAB" opacity="0.492828825" points="0.103786653 1.77058566 0.103786653 56.5796998 53.5959223 249.038882 53.5959223 64.3328752"></polygon>
                    <polygon id="Path-4" fill="#ABABAB" opacity="0.492828825" points="337 0 337 64.8091141 387 247.268296 387 62.5622895"></polygon>
                    <g id="Group-12" transform="translate(53.000000, 65.000000)">
                        <path d="M0,0.5 L318.795567,0.5" id="Line" stroke="#CCCCCC" stroke-linecap="square"></path>
                        <g id="Group-5" transform="translate(0.000000, 1.000000)">
                            <rect id="Rectangle-81" fill="#FFFFFF" x="0.459359606" y="0" width="332.795567" height="184"></rect>
                            <path d="M0,183.5 L318.795567,183.5" id="Line" stroke="#CCCCCC" stroke-linecap="square"></path>
                            <polygon id="Rectangle-7" fill="#EDEDED" points="10 64 321.795567 64 321.795567 173 10 173"></polygon>
                            <text id="content-goes-here" font-family="ArialMT, Arial" font-size="14" font-weight="normal" fill="#666666">
                                <tspan x="109.374658" y="124">content goes here</tspan>
                            </text>
                        </g>
                        <text id="Lorem-ipsum-dolor-si" font-family="ArialMT, Arial" font-size="14" font-weight="normal" line-spacing="20" fill="#333333">
                            <tspan x="30.0529557" y="28">Lorem ipsum dolor sit ame </tspan>
                        </text>
                        <g id="icon-/-sort" transform="translate(5.802956, 20.250000)" fill="#333333">
                            <path d="M0,0 L6.42857143,9 C6.42857143,9 8.34270513,6.32021281 9.29977199,4.98031922 C10.4855623,3.32021281 12.8571429,0 12.8571429,0 L0,0 Z" id="Page-1"></path>
                        </g>
                        <text id="$0.00" font-family="ArialMT, Arial" font-size="14" font-weight="normal" line-spacing="20" fill="#333333">
                            <tspan x="275.420922" y="28">$0.00</tspan>
                        </text>
                    </g>
                    <use id="Rectangle-8" stroke="#979797" mask="url(#mask-4)" stroke-width="2" stroke-dasharray="2" xlink:href="#path-3"></use>
                </g>
                <g id="icon-/-sort" transform="translate(27.500000, 89.500000) rotate(-90.000000) translate(-27.500000, -89.500000) translate(21.000000, 85.000000)" fill="#666666">
                    <path d="M0,0 L6.42857143,9 C6.42857143,9 8.34270513,6.32021281 9.29977199,4.98031922 C10.4855623,3.32021281 12.8571429,0 12.8571429,0 L0,0 Z" id="Page-1"></path>
                </g>
                <g id="icon-/-sort" transform="translate(27.500000, 138.500000) rotate(-90.000000) translate(-27.500000, -138.500000) translate(21.000000, 134.000000)" fill="#666666">
                    <path d="M0,0 L6.42857143,9 C6.42857143,9 8.34270513,6.32021281 9.29977199,4.98031922 C10.4855623,3.32021281 12.8571429,0 12.8571429,0 L0,0 Z" id="Page-1"></path>
                </g>
                <g id="icon-/-sort" transform="translate(27.500000, 192.500000) rotate(-90.000000) translate(-27.500000, -192.500000) translate(21.000000, 188.000000)" fill="#666666">
                    <path d="M0,0 L6.42857143,9 C6.42857143,9 8.34270513,6.32021281 9.29977199,4.98031922 C10.4855623,3.32021281 12.8571429,0 12.8571429,0 L0,0 Z" id="Page-1"></path>
                </g>
                <g id="icon-/-sort" transform="translate(27.500000, 244.500000) rotate(-90.000000) translate(-27.500000, -244.500000) translate(21.000000, 240.000000)" fill="#666666">
                    <path d="M0,0 L6.42857143,9 C6.42857143,9 8.34270513,6.32021281 9.29977199,4.98031922 C10.4855623,3.32021281 12.8571429,0 12.8571429,0 L0,0 Z" id="Page-1"></path>
                </g>
                <g id="icon-/-sort" transform="translate(27.500000, 299.500000) rotate(-90.000000) translate(-27.500000, -299.500000) translate(21.000000, 295.000000)" fill="#666666">
                    <path d="M0,0 L6.42857143,9 C6.42857143,9 8.34270513,6.32021281 9.29977199,4.98031922 C10.4855623,3.32021281 12.8571429,0 12.8571429,0 L0,0 Z" id="Page-1"></path>
                </g>
                <g id="icon-/-sort" transform="translate(27.500000, 348.500000) rotate(-90.000000) translate(-27.500000, -348.500000) translate(21.000000, 344.000000)" fill="#666666">
                    <path d="M0,0 L6.42857143,9 C6.42857143,9 8.34270513,6.32021281 9.29977199,4.98031922 C10.4855623,3.32021281 12.8571429,0 12.8571429,0 L0,0 Z" id="Page-1"></path>
                </g>
            </g>
        </g>
    </g>
</svg>