<?xml version="1.0" encoding="UTF-8" standalone="no"?>
<svg width="424px" height="336px" viewBox="0 0 424 336" version="1.1" xmlns="http://www.w3.org/2000/svg" xmlns:xlink="http://www.w3.org/1999/xlink">
    <!-- Generator: Sketch 41.2 (35397) - http://www.bohemiancoding.com/sketch -->
    <title>table-messaging-xs</title>
    <desc>Created with Sketch.</desc>
    <defs>
        <rect id="path-1" x="0" y="0" width="320" height="332"></rect>
        <filter x="-50%" y="-50%" width="200%" height="200%" filterUnits="objectBoundingBox" id="filter-2">
            <feOffset dx="0" dy="1" in="SourceAlpha" result="shadowOffsetOuter1"></feOffset>
            <feGaussianBlur stdDeviation="1" in="shadowOffsetOuter1" result="shadowBlurOuter1"></feGaussianBlur>
            <feColorMatrix values="0 0 0 0 0   0 0 0 0 0   0 0 0 0 0  0 0 0 0.5 0" type="matrix" in="shadowBlurOuter1"></feColorMatrix>
        </filter>
    </defs>
    <g id="Page-1" stroke="none" stroke-width="1" fill="none" fill-rule="evenodd">
        <g id="Artboard" transform="translate(-1079.000000, -8611.000000)">
            <g id="table-messaging-xs" transform="translate(1055.000000, 8612.000000)">
                <g id="Group-39" transform="translate(125.000000, 0.000000)">
                    <g id="Group-30" transform="translate(1.000000, 0.000000)">
                        <g id="Rectangle-4">
                            <use fill="black" fill-opacity="1" filter="url(#filter-2)" xlink:href="#path-1"></use>
                            <use fill="#FFFFFF" fill-rule="evenodd" xlink:href="#path-1"></use>
                        </g>
                        <text id="Heading" font-family="ArialMT, Arial" font-size="22" font-weight="normal" fill="#333333">
                            <tspan x="10" y="39">Heading</tspan>
                        </text>
                        <path d="M2.5,52.5 L318.52533,52.5" id="Line" stroke="#CCCCCC" stroke-width="3" stroke-linecap="square"></path>
                    </g>
                    <path d="M0,118.5 L320,118.5" id="Line" stroke="#CCCCCC" stroke-linecap="square"></path>
                    <path d="M0,154.5 L320,154.5" id="Line" stroke="#CCCCCC" stroke-linecap="square"></path>
                    <text id="Label" font-family="ArialMT, Arial" font-size="14" font-weight="normal" line-spacing="20" fill="#333333">
                        <tspan x="10" y="138">Label</tspan>
                    </text>
                    <path d="M230.5,124.5 L230.5,145.5" id="Line" stroke="#CCCCCC" stroke-linecap="square"></path>
                    <text id="Amount" font-family="ArialMT, Arial" font-size="14" font-weight="normal" line-spacing="20" fill="#333333">
                        <tspan x="259.751953" y="138">Amount</tspan>
                    </text>
                    <g id="icon-/-sort" transform="translate(50.000000, 131.000000)" fill="#666666">
                        <path d="M0,0 L6.42857143,9 C6.42857143,9 8.34270513,6.32021281 9.29977199,4.98031922 C10.4855623,3.32021281 12.8571429,0 12.8571429,0 L0,0 Z" id="Page-1"></path>
                    </g>
                    <text id="Some-instructional-t" font-family="ArialMT, Arial" font-size="14" font-weight="normal" line-spacing="20" fill="#333333">
                        <tspan x="12" y="82">Some instructional text goes here.</tspan>
                    </text>
                    <g id="Group-4" transform="translate(4.000000, 193.000000)">
                        <text id="Magis-kohlrabi-welsh" font-family="ArialMT, Arial" font-size="14" font-weight="normal" fill="#333333">
                            <tspan x="51.9384766" y="61">Magis kohlrabi welsh onion daikon.</tspan>
                        </text>
                        <text id="Veggies-es-bonus-vob" font-family="ArialMT, Arial" font-size="16" font-weight="normal" fill="#333333">
                            <tspan x="74.71875" y="15">Veggies es bonus vobis, </tspan>
                            <tspan x="63.6132812" y="32">proinde vos postulo essum.</tspan>
                        </text>
                        <path d="M62.3047375,16.2 C62.0047375,16.7 61.4047375,17 60.5047375,17 L49.5047375,17 C48.7047375,17 48.0047375,16.7 47.7047375,16.2 C47.4047375,15.7 47.5047375,15 47.9047375,14.2 L53.6047375,3.2 C54.0047375,2.4 54.5047375,2 55.0047375,2 C55.5047375,2 56.0047375,2.4 56.4047375,3.1 L62.1047375,14.1 C62.5047375,15 62.6047375,15.7 62.3047375,16.2 L62.3047375,16.2 Z M63.6047375,14.7 L56.7047375,1.4 C56.2047375,0.5 55.6047375,0 55.0047375,0 C54.4047375,0 53.8047375,0.5 53.3047375,1.4 L46.4047375,14.7 C45.9047375,15.6 45.9047375,16.5 46.2047375,17.1 C46.6047375,17.7 47.3047375,18 48.3047375,18 L61.6047375,18 C62.6047375,18 63.4047375,17.7 63.7047375,17.1 C64.1047375,16.5 64.1047375,15.6 63.6047375,14.7 L63.6047375,14.7 Z" id="Fill-1" fill="#666666"></path>
                    </g>
                </g>
                <g id="Group-9" transform="translate(302.000000, 152.000000)">
                    <g id="Group-4" transform="translate(33.000000, 0.000000)" stroke="#979797" stroke-linecap="square">
                        <path d="M8.5,37.5 L0.5,37.5" id="Line"></path>
                        <path d="M8.5,2.5 L0.5,2.5" id="Line"></path>
                        <path d="M4.5,2.5 L4.5,35.8333333" id="Line"></path>
                    </g>
                    <text id="40px" font-family="ArialMT, Arial" font-size="14" font-weight="normal" fill="#666666">
                        <tspan x="0" y="23">40px</tspan>
                    </text>
                </g>
                <g id="Group-9" transform="translate(302.000000, 259.000000)">
                    <g id="Group-4" transform="translate(33.000000, 0.000000)" stroke="#979797" stroke-linecap="square">
                        <path d="M8.5,37.5 L0.5,37.5" id="Line"></path>
                        <path d="M8.5,2.5 L0.5,2.5" id="Line"></path>
                        <path d="M4.5,2.5 L4.5,35.8333333" id="Line"></path>
                    </g>
                    <text id="40px" font-family="ArialMT, Arial" font-size="14" font-weight="normal" fill="#666666">
                        <tspan x="0" y="23">40px</tspan>
                    </text>
                </g>
                <g id="Group-9" transform="translate(302.000000, 294.000000)">
                    <g id="Group-4" transform="translate(33.000000, 0.000000)" stroke="#979797" stroke-linecap="square">
                        <path d="M8.5,37.5 L0.5,37.5" id="Line"></path>
                        <path d="M8.5,2.5 L0.5,2.5" id="Line"></path>
                        <path d="M4.5,2.5 L4.5,35.8333333" id="Line"></path>
                    </g>
                    <text id="40px" font-family="ArialMT, Arial" font-size="14" font-weight="normal" fill="#666666">
                        <tspan x="0" y="23">40px</tspan>
                    </text>
                </g>
                <text id="Arial,-16px,-#333333" font-family="ArialMT, Arial" font-size="14" font-weight="normal" fill="#666666">
                    <tspan x="45.9658203" y="212">Arial, 16px, </tspan>
                    <tspan x="61.4970703" y="228">#333333</tspan>
                    <tspan x="24.1591797" y="244">center aligned.</tspan>
                </text>
                <path d="M186.5,222.5 L121.5,222.5" id="Line" stroke="#666666" stroke-linecap="square"></path>
                <text id="Arial,-14px,-#333333" opacity="0.900000036" font-family="ArialMT, Arial" font-size="14" font-weight="normal" fill="#666666">
                    <tspan x="148" y="306">Arial, 14px, #333333</tspan>
                    <tspan x="148" y="322">center aligned.</tspan>
                </text>
                <path d="M208.5,260.5 L208.862241,290.497813" id="Line" stroke="#666666" stroke-linecap="square"></path>
            </g>
        </g>
    </g>
</svg>