<?xml version="1.0" encoding="UTF-8" standalone="no"?>
<svg width="860px" height="356px" viewBox="0 0 860 356" version="1.1" xmlns="http://www.w3.org/2000/svg" xmlns:xlink="http://www.w3.org/1999/xlink">
    <!-- Generator: Sketch 41.2 (35397) - http://www.bohemiancoding.com/sketch -->
    <title>table-messaging-lms</title>
    <desc>Created with Sketch.</desc>
    <defs>
        <rect id="path-1" x="109" y="0" width="754" height="352"></rect>
        <filter x="-50%" y="-50%" width="200%" height="200%" filterUnits="objectBoundingBox" id="filter-2">
            <feOffset dx="0" dy="1" in="SourceAlpha" result="shadowOffsetOuter1"></feOffset>
            <feGaussianBlur stdDeviation="1" in="shadowOffsetOuter1" result="shadowBlurOuter1"></feGaussianBlur>
            <feColorMatrix values="0 0 0 0 0   0 0 0 0 0   0 0 0 0 0  0 0 0 0.5 0" type="matrix" in="shadowBlurOuter1"></feColorMatrix>
        </filter>
    </defs>
    <g id="Page-1" stroke="none" stroke-width="1" fill="none" fill-rule="evenodd">
        <g id="Artboard" transform="translate(-115.000000, -8611.000000)">
            <g id="table-messaging-lms" transform="translate(110.000000, 8612.000000)">
                <g id="Rectangle-4" opacity="0.900000036">
                    <use fill="black" fill-opacity="1" filter="url(#filter-2)" xlink:href="#path-1"></use>
                    <use fill="#FFFFFF" fill-rule="evenodd" xlink:href="#path-1"></use>
                </g>
                <text id="Heading" opacity="0.900000036" font-family="ArialMT, Arial" font-size="28" font-weight="normal" fill="#333333">
                    <tspan x="139" y="59">Heading</tspan>
                </text>
                <path d="M139,78 L833,78" id="Line" stroke="#CCCCCC" stroke-width="3" stroke-linecap="square" opacity="0.900000036"></path>
                <text id="Some-instructional-t" font-family="ArialMT, Arial" font-size="14" font-weight="normal" line-spacing="20" fill="#333333">
                    <tspan x="140" y="112">Some instructional text goes here.</tspan>
                </text>
                <path d="M139,149.5 L833,149.5" id="Line" stroke="#CCCCCC" stroke-linecap="square"></path>
                <path d="M139,190.5 L833,190.5" id="Line" stroke="#CCCCCC" stroke-linecap="square"></path>
                <text id="Label" font-family="ArialMT, Arial" font-size="14" font-weight="normal" line-spacing="20" fill="#333333">
                    <tspan x="149" y="174">Label</tspan>
                </text>
                <text id="Label" font-family="ArialMT, Arial" font-size="14" font-weight="normal" line-spacing="20" fill="#333333">
                    <tspan x="379" y="174">Label</tspan>
                </text>
                <path d="M369.5,160.5 L369.5,181.5" id="Line" stroke="#CCCCCC" stroke-linecap="square"></path>
                <text id="Amount" font-family="ArialMT, Arial" font-size="14" font-weight="normal" line-spacing="20" fill="#333333">
                    <tspan x="658.751953" y="174">Amount</tspan>
                </text>
                <path d="M589.5,160.5 L589.5,181.5" id="Line" stroke="#CCCCCC" stroke-linecap="square"></path>
                <path d="M716.5,160.5 L716.5,181.5" id="Line" stroke="#CCCCCC" stroke-linecap="square"></path>
                <g id="icon-/-sort" transform="translate(189.000000, 167.000000)" fill="#666666">
                    <path d="M0,0 L6.42857143,9 C6.42857143,9 8.34270513,6.32021281 9.29977199,4.98031922 C10.4855623,3.32021281 12.8571429,0 12.8571429,0 L0,0 Z" id="Page-1"></path>
                </g>
                <text id="Veggies-es-bonus-vob" font-family="ArialMT, Arial" font-size="22" font-weight="normal" fill="#333333">
                    <tspan x="236.400391" y="246">Veggies es bonus vobis, proinde vos postulo essum.</tspan>
                </text>
                <text id="Magis-kohlrabi-welsh" font-family="ArialMT, Arial" font-size="18" font-weight="normal" fill="#333333">
                    <tspan x="352.46977" y="277">Magis kohlrabi welsh onion daikon.</tspan>
                </text>
                <text id="Arial,-22px,-#333333" opacity="0.900000036" font-family="ArialMT, Arial" font-size="14" font-weight="normal" fill="#666666">
                    <tspan x="198" y="301">Arial, 22px, #333333</tspan>
                    <tspan x="198" y="317">center aligned.</tspan>
                </text>
                <g id="Group-9" transform="translate(444.000000, 188.000000)">
                    <g id="Group-4" transform="translate(33.000000, 0.000000)" stroke="#979797" stroke-linecap="square">
                        <path d="M8.5,37.5 L0.5,37.5" id="Line"></path>
                        <path d="M8.5,2.5 L0.5,2.5" id="Line"></path>
                        <path d="M4.5,2.5 L4.5,35.8333333" id="Line"></path>
                    </g>
                    <text id="40px" font-family="ArialMT, Arial" font-size="14" font-weight="normal" fill="#666666">
                        <tspan x="0" y="23">40px</tspan>
                    </text>
                </g>
                <g id="Group-9" transform="translate(444.000000, 280.000000)">
                    <g id="Group-4" transform="translate(33.000000, 0.000000)" stroke="#979797" stroke-linecap="square">
                        <path d="M8.5,37.5 L0.5,37.5" id="Line"></path>
                        <path d="M8.5,2.5 L0.5,2.5" id="Line"></path>
                        <path d="M4.5,2.5 L4.5,35.8333333" id="Line"></path>
                    </g>
                    <text id="40px" font-family="ArialMT, Arial" font-size="14" font-weight="normal" fill="#666666">
                        <tspan x="0" y="23">40px</tspan>
                    </text>
                </g>
                <g id="Group-9" transform="translate(444.000000, 315.000000)">
                    <g id="Group-4" transform="translate(33.000000, 0.000000)" stroke="#979797" stroke-linecap="square">
                        <path d="M8.5,37.5 L0.5,37.5" id="Line"></path>
                        <path d="M8.5,2.5 L0.5,2.5" id="Line"></path>
                        <path d="M4.5,2.5 L4.5,35.8333333" id="Line"></path>
                    </g>
                    <text id="40px" font-family="ArialMT, Arial" font-size="14" font-weight="normal" fill="#666666">
                        <tspan x="0" y="23">40px</tspan>
                    </text>
                </g>
                <text id="Icon-is-used-to-call" font-family="ArialMT, Arial" font-size="14" font-weight="normal" fill="#666666">
                    <tspan x="4.72460938" y="216">Icon is used to </tspan>
                    <tspan x="27.2900391" y="232">call out the </tspan>
                    <tspan x="18.7314453" y="248">message on </tspan>
                    <tspan x="7.31542969" y="264">the table. This </tspan>
                    <tspan x="42.0830078" y="280">example </tspan>
                    <tspan x="31.9658203" y="296">shows the </tspan>
                    <tspan x="31.9794922" y="312">error icon.</tspan>
                </text>
                <path d="M250.5,253.5 L250.493465,283.499999" id="Line" stroke="#666666" stroke-linecap="square"></path>
                <text id="Arial,-18px,-#333333" opacity="0.900000036" font-family="ArialMT, Arial" font-size="14" font-weight="normal" fill="#666666">
                    <tspan x="315" y="328">Arial, 18px, #333333</tspan>
                    <tspan x="315" y="344">center aligned.</tspan>
                </text>
                <path d="M373.5,284.5 L373.49081,314.499999" id="Line" stroke="#666666" stroke-linecap="square"></path>
                <g id="icon-/-error" transform="translate(212.000000, 230.000000)" fill="#C90202">
                    <path d="M9.7047,11.7 L8.3047,11.7 L8.0047,5 L10.0047,5 L9.7047,11.7 Z M9.0047,16 C8.4047,16 8.0047,15.6 8.0047,15 C8.0047,14.4 8.4047,14 9.0047,14 C9.6047,14 10.0047,14.4 10.0047,15 C10.0047,15.6 9.6047,16 9.0047,16 L9.0047,16 Z M17.6047,14.7 L10.7047,1.4 C10.2047,0.5 9.6047,0 9.0047,0 C8.4047,0 7.8047,0.5 7.3047,1.4 L0.4047,14.7 C-0.0953,15.7 -0.0953,16.5 0.2047,17.1 C0.5047,17.7 1.3047,18 2.3047,18 L15.7047,18 C16.7047,18 17.4047,17.7 17.8047,17.1 C18.1047,16.5 18.1047,15.6 17.6047,14.7 L17.6047,14.7 Z" id="Fill-1"></path>
                </g>
                <path d="M208.5,241.5 L98.5,241.5" id="Line" stroke="#979797" stroke-linecap="square"></path>
            </g>
        </g>
    </g>
</svg>