<?xml version="1.0" encoding="UTF-8" standalone="no"?>
<svg width="324px" height="386px" viewBox="0 0 324 386" version="1.1" xmlns="http://www.w3.org/2000/svg" xmlns:xlink="http://www.w3.org/1999/xlink">
    <!-- Generator: Sketch 41.2 (35397) - http://www.bohemiancoding.com/sketch -->
    <title>table-loading-xs</title>
    <desc>Created with Sketch.</desc>
    <defs>
        <rect id="path-1" x="0" y="0" width="320" height="382"></rect>
        <filter x="-50%" y="-50%" width="200%" height="200%" filterUnits="objectBoundingBox" id="filter-2">
            <feOffset dx="0" dy="1" in="SourceAlpha" result="shadowOffsetOuter1"></feOffset>
            <feGaussianBlur stdDeviation="1" in="shadowOffsetOuter1" result="shadowBlurOuter1"></feGaussianBlur>
            <feColorMatrix values="0 0 0 0 0   0 0 0 0 0   0 0 0 0 0  0 0 0 0.5 0" type="matrix" in="shadowBlurOuter1"></feColorMatrix>
        </filter>
    </defs>
    <g id="Page-1" stroke="none" stroke-width="1" fill="none" fill-rule="evenodd">
        <g id="Artboard" transform="translate(-1179.000000, -9116.000000)">
            <g id="table-loading-xs" transform="translate(1180.000000, 9117.000000)">
                <g id="Group-39">
                    <g id="Group-30" transform="translate(1.000000, 0.000000)">
                        <g id="Rectangle-4">
                            <use fill="black" fill-opacity="1" filter="url(#filter-2)" xlink:href="#path-1"></use>
                            <use fill="#FFFFFF" fill-rule="evenodd" xlink:href="#path-1"></use>
                        </g>
                        <text id="Heading" font-family="ArialMT, Arial" font-size="22" font-weight="normal" fill="#333333">
                            <tspan x="20" y="39">Heading</tspan>
                        </text>
                        <path d="M2.5,52.5 L318.52533,52.5" id="Line" stroke="#CCCCCC" stroke-width="3" stroke-linecap="square"></path>
                    </g>
                    <path d="M0,118.5 L320,118.5" id="Line" stroke="#CCCCCC" stroke-linecap="square"></path>
                    <path d="M0,154.5 L320,154.5" id="Line" stroke="#CCCCCC" stroke-linecap="square"></path>
                    <text id="Label" font-family="ArialMT, Arial" font-size="14" font-weight="normal" line-spacing="20" fill="#333333">
                        <tspan x="21" y="138">Label</tspan>
                    </text>
                    <path d="M230.5,124.5 L230.5,145.5" id="Line" stroke="#CCCCCC" stroke-linecap="square"></path>
                    <text id="Amount" font-family="ArialMT, Arial" font-size="14" font-weight="normal" line-spacing="20" fill="#333333">
                        <tspan x="251.751953" y="139">Amount</tspan>
                    </text>
                    <g id="icon-/-sort" transform="translate(60.000000, 131.000000)" fill="#666666">
                        <path d="M0,0 L6.42857143,9 C6.42857143,9 8.34270513,6.32021281 9.29977199,4.98031922 C10.4855623,3.32021281 12.8571429,0 12.8571429,0 L0,0 Z" id="Page-1"></path>
                    </g>
                    <text id="Some-instructional-t" font-family="ArialMT, Arial" font-size="14" font-weight="normal" line-spacing="20" fill="#333333">
                        <tspan x="21" y="83">Some instructional text goes here.</tspan>
                    </text>
                </g>
                <g id="Group-42" transform="translate(114.000000, 196.000000)">
                    <text id="Loading…" font-family="ArialMT, Arial" font-size="18" font-weight="normal" fill="#333333">
                        <tspan x="0" y="90">Loading…</tspan>
                    </text>
                    <g id="Group-17" transform="translate(14.000000, 0.000000)" fill="#666666">
                        <path d="M33.5,67 C52.0015391,67 67,52.0015391 67,33.5 C67,14.9984609 52.0015391,0 33.5,0 C14.9984609,0 0,14.9984609 0,33.5 C0,52.0015391 14.9984609,67 33.5,67 Z M33.5,62 C49.2401154,62 62,49.2401154 62,33.5 C62,17.7598846 49.2401154,5 33.5,5 C17.7598846,5 5,17.7598846 5,33.5 C5,49.2401154 17.7598846,62 33.5,62 Z" id="Combined-Shape" fill-opacity="0.45"></path>
                        <path d="M35,0.0329822601 C34.5027394,0.0110709304 34.0026626,0 33.5,0 C14.9984609,0 0,14.9984609 0,33.5 C0,34.6819626 0.0612122661,35.8496283 0.18063963,37 L5.21277291,37 C5.07231514,35.8530051 5,34.6849476 5,33.5 C5,17.7598846 17.7598846,5 33.5,5 C34.0031518,5 34.5032583,5.01303854 35,5.03879618 L35,0.0329822601 Z" id="Combined-Shape"></path>
                    </g>
                </g>
            </g>
        </g>
    </g>
</svg>