<?xml version="1.0"?>
<!--Icons from directory ""-->
<svg xmlns="http://www.w3.org/2000/svg" width="16" height="768" viewBox="0 0 16 768"><svg xmlns:xlink="http://www.w3.org/1999/xlink" id="accounts" xml:space="preserve" viewBox="0 0 18 18" version="1.1" y="0" x="0px" enable-background="new 0 0 18 18" width="16" height="16"><g id="accounts-Layer_10">	<path d="m9 0c-5 0-9 4-9 9s4 9 9 9 9-4 9-9-4-9-9-9zm2.8 11.7c-0.1 0.3-0.3 0.6-0.6 0.9-0.2 0.2-0.6 0.4-0.9 0.6-0.1 0-0.3 0.1-0.4 0.1v1.3s0 0.4-0.4 0.4-0.9 0-0.9 0-0.5 0-0.5-0.4 0-1.2 0-1.3c-0.1 0-0.1 0-0.2-0.1-0.4-0.1-0.7-0.3-1-0.5s-0.5-0.6-0.7-0.9c-0.1-0.5-0.2-0.9-0.2-1.4h1.5c0 0.3 0 0.5 0.1 0.7s0.2 0.4 0.3 0.5c0.1 0.1 0.3 0.2 0.5 0.3s0.4 0.1 0.6 0.1h0.4c0.2 0 0.3-0.1 0.4-0.2s0.3-0.2 0.3-0.3c0.1-0.1 0.1-0.3 0.1-0.5s-0.1-0.4-0.2-0.6c-0.1-0.1-0.3-0.3-0.5-0.4 0.1-0.1-0.1-0.2-0.4-0.3-0.2-0.1-0.5-0.1-0.7-0.2-0.3-0.1-0.5-0.2-0.8-0.3s-0.5-0.3-0.7-0.5c-0.2-0.1-0.3-0.4-0.4-0.6-0.1-0.3-0.2-0.6-0.2-1s0.1-0.8 0.2-1.1c0.2-0.3 0.4-0.6 0.6-0.8 0.3-0.3 0.5-0.4 0.9-0.5h0.1v-1.4s0-0.4 0.5-0.4 0.9 0 0.9 0 0.4 0 0.4 0.4 0 1.2 0 1.3h0.1c0.3 0.1 0.6 0.3 0.9 0.5s0.5 0.5 0.6 0.8c0.2 0.3 0.2 0.8 0.2 1.2h-1.5c0-0.3-0.1-0.5-0.1-0.6-0.1 0-0.2-0.2-0.3-0.3s-0.3-0.1-0.4-0.2h-0.6-0.3c-0.2 0-0.3 0.1-0.4 0.2s-0.2 0.2-0.2 0.3c-0.1 0.1-0.1 0.2-0.1 0.4s0 0.3 0.1 0.4c0 0.1 0.1 0.2 0.3 0.3s0.4 0.2 0.6 0.3c0.3 0.1 0.6 0.2 1.1 0.3 0.1 0 0.3 0.1 0.5 0.2s0.5 0.2 0.7 0.4 0.4 0.4 0.6 0.7c0.2 0.3 0.3 0.7 0.3 1.2 0 0.3-0.1 0.7-0.2 1z"/></g></svg><svg xmlns:xlink="http://www.w3.org/1999/xlink" id="add" xml:space="preserve" viewBox="0 0 18 18" version="1.1" y="16" x="0px" enable-background="new 0 0 18 18" width="16" height="16">	<polygon points="7 0 7 7 0 7 0 11 7 11 7 18 11 18 11 11 18 11 18 7 11 7 11 0"/></svg><svg xmlns:xlink="http://www.w3.org/1999/xlink" id="alert-error" xml:space="preserve" viewBox="0 0 18 18" version="1.1" y="32" x="0px" enable-background="new 0 0 18 18" width="16" height="16"><path d="m17.6 14.7l-6.9-13.3c-0.5-0.9-1.1-1.4-1.7-1.4s-1.2 0.5-1.7 1.4l-6.9 13.3c-0.5 1-0.5 1.8-0.2 2.4s1.1 0.9 2.1 0.9h13.4c1 0 1.7-0.3 2.1-0.9 0.3-0.6 0.3-1.5-0.2-2.4zm-8.6 1.3c-0.6 0-1-0.4-1-1s0.4-1 1-1 1 0.4 1 1-0.4 1-1 1zm0.7-4.3h-1.4l-0.3-6.7h2l-0.3 6.7z" fill="#c90202"/></svg><svg xmlns:xlink="http://www.w3.org/1999/xlink" id="alert-fill" xml:space="preserve" viewBox="0 0 18 18" version="1.1" y="48" x="0px" enable-background="new 0 0 18 18" width="16" height="16"><path d="m17.6 14.7l-6.9-13.3c-0.5-0.9-1.1-1.4-1.7-1.4s-1.2 0.5-1.7 1.4l-6.9 13.3c-0.5 1-0.5 1.8-0.2 2.4s1.1 0.9 2.1 0.9h13.4c1 0 1.7-0.3 2.1-0.9 0.3-0.6 0.3-1.5-0.2-2.4zm-8.6 1.3c-0.6 0-1-0.4-1-1s0.4-1 1-1 1 0.4 1 1-0.4 1-1 1zm0.7-4.3h-1.4l-0.3-6.7h2l-0.3 6.7z"/></svg><svg xmlns:xlink="http://www.w3.org/1999/xlink" id="alert-outline" xml:space="preserve" viewBox="0 0 18 18" version="1.1" y="64" x="0px" enable-background="new 0 0 18 18" width="16" height="16"><path d="m8.3 11.7h1.4l0.3-6.7h-2l0.3 6.7zm0.7 2.3c-0.6 0-1 0.4-1 1s0.4 1 1 1 1-0.4 1-1-0.4-1-1-1zm8.6 0.7l-6.9-13.3c-0.5-0.9-1.1-1.4-1.7-1.4s-1.2 0.5-1.7 1.4l-6.9 13.3c-0.5 0.9-0.5 1.8-0.2 2.4 0.4 0.6 1.1 0.9 2.1 0.9h13.3c1 0 1.8-0.3 2.1-0.9 0.4-0.6 0.4-1.5-0.1-2.4zm-1.3 1.5c-0.3 0.5-0.9 0.8-1.8 0.8h-11c-0.8 0-1.5-0.3-1.8-0.8s-0.2-1.2 0.2-2l5.7-11c0.4-0.8 0.9-1.2 1.4-1.2s1 0.4 1.4 1.1l5.7 11c0.4 0.9 0.5 1.6 0.2 2.1z"/></svg><svg xmlns:xlink="http://www.w3.org/1999/xlink" id="alert-warning" xml:space="preserve" viewBox="0 0 18 18" version="1.1" y="80" x="0px" enable-background="new 0 0 18 18" width="16" height="16"><path d="m2.3 18c-1 0-1.8-0.3-2.1-0.9-0.4-0.6-0.3-1.4 0.2-2.4l6.9-13.3c0.5-0.9 1.1-1.4 1.7-1.4s1.2 0.5 1.7 1.4l6.9 13.3c0.5 0.9 0.5 1.8 0.2 2.4-0.4 0.6-1.1 0.9-2.1 0.9h-13.4z" fill="#FEC82A"/><polygon points="8.3 11.7 8 5 10 5 9.7 11.7" fill="#333"/><circle cy="15" cx="9" r="1" fill="#333"/></svg><svg xmlns:xlink="http://www.w3.org/1999/xlink" version="1.1" id="arrow" x="0px" y="96" viewBox="-296 388 18 18" style="enable-background:new -296 388 18 18;" xml:space="preserve" width="16" height="16"><polygon points="-280.5,397 -293.5,406 -293.5,388 "/></svg><svg xmlns:xlink="http://www.w3.org/1999/xlink" id="back" xml:space="preserve" viewBox="0 0 18 18" version="1.1" y="112" x="0px" enable-background="new 0 0 18 18" width="16" height="16"><polyline points="3.5 9 13.1 18 14.5 16.8 6 9 14.5 1.2 13.1 0"/></svg><svg xmlns:xlink="http://www.w3.org/1999/xlink" id="bill-pay" xml:space="preserve" viewBox="0 0 18 18" version="1.1" y="128" x="0px" enable-background="new 0 0 18 18" width="16" height="16">	<path d="m9.4 13.5h-0.8l-8.6-4.5v8.1h18v-8.1l-8.6 4.5zm-6-4.5l7.2-6.8-0.9-0.8c-0.4-0.6-0.9-0.5-0.9-0.5-0.4 0-0.9 0.4-0.9 0.4l-5.4 7.3c0.4 0.5 0.9 0.4 0.9 0.4zm5.6 3.8l8.5-5.4s0.7-1 0-1.8-4.5-3.6-4.5-3.6-0.3-0.1-0.9 0.5-8.1 7.2-8.1 7.2l5 3.1z"/></svg><svg xmlns:xlink="http://www.w3.org/1999/xlink" id="calendar" xml:space="preserve" viewBox="0 0 18 18" version="1.1" y="144" x="0px" enable-background="new 0 0 18 18" width="16" height="16">	<path d="m0 5.1v12.9h18v-12.9h-18zm1.8 1.5h2.1v2.1h-2.1v-2.1zm0 4h2.1v2.1h-2.1v-2.1zm0 3.9h2.1v2.1h-2.1v-2.1zm4-7.9h2.1v2.1h-2.1v-2.1zm0 4h2.1v2.1h-2.1v-2.1zm0 3.9h2.1v2.1h-2.1v-2.1zm4.1-7.9h2.1v2.1h-2.1v-2.1zm0 4h2.1v2.1h-2.1v-2.1zm0 3.9h2.1v2.1h-2.1v-2.1zm3.9-7.9h2.1v2.1h-2.1v-2.1zm0 4h2.1v2.1h-2.1v-2.1zm0 3.9h2.1v2.1h-2.1v-2.1zm-13.8-13.3v2.5h18v-2.5h-1.4v-1.2h-2.3v1.2h-10.6v-1.2h-2.3v1.2h-1.4z"/></svg><svg xmlns:xlink="http://www.w3.org/1999/xlink" id="call" xml:space="preserve" viewBox="0 0 18 18" version="1.1" y="160" x="0px" enable-background="new 0 0 18 18" width="16" height="16"><path d="m7.9 10.3c1.1 1.3 2.7 3.3 3.1 3.4 0.3 0.2 0.2 0.2 0.4 0.1 0.3-0.2 0.5-0.2 0.6-0.7 0-0.2 1.3-1.4 1.3-1.4s0.7-0.5 1-0.2 2.9 2.7 2.9 2.7 0.7 0.6 0.2 1.2c-0.5 0.7-1.5 2-2.2 2.3s-2.8 0.6-4.1-0.2c-1.1-0.6-4.6-3.5-6.2-5.6-1.5-1.9-3.5-4.6-4.1-5.7-0.7-1.4-0.3-3.4 0-4.1s1.6-1.6 2.4-2 1.2 0.2 1.2 0.2 2.2 2.8 2.4 3.1-0.3 1-0.3 1-1.2 1.1-1.3 1.2c-0.5 0.2-0.5 0.2-0.7 0.5-0.1 0.2-0.1 0.1 0.1 0.5 0.1 0.4 2.2 2.4 3.3 3.7z"/></svg><svg xmlns:xlink="http://www.w3.org/1999/xlink" id="check-image" xml:space="preserve" viewBox="0 0 18 18" version="1.1" y="176" x="0px" enable-background="new 0 0 18 18" width="16" height="16"><g id="check-image-Layer_14">	<path d="m0 3.3v11.4h18v-11.4h-18zm16.8 9h-7.8v-1.2h7.8v1.2zm0-2.7h-15.6v-1.2h15.6v1.2zm0-2.7h-15.6v-1.2h15.6v1.2z"/></g></svg><svg viewBox="0 0 18 18" width="16" height="16" id="checkmark" y="192"><path d="m3 7.3l4.2 3.8 7.9-11.1s1.7-0.1 2.4 0.7c0.7 0.9 0.5 2.8 0.5 2.8l-10.7 14.5-7.3-7.2s-0.2-1.9 0.6-2.8 2.4-0.7 2.4-0.7z"/></svg><svg xmlns:xlink="http://www.w3.org/1999/xlink" id="close" xml:space="preserve" viewBox="0 0 18 18" version="1.1" y="208" x="0px" enable-background="new 0 0 18 18" width="16" height="16">	<polygon points="18 2.5 15.5 0 9 6.5 2.5 0 0 2.5 6.5 9 0 15.5 2.5 18 9 11.5 15.5 18 18 15.5 11.5 9"/></svg><svg xmlns:xlink="http://www.w3.org/1999/xlink" id="computer" xml:space="preserve" viewBox="0 0 18 18" version="1.1" y="224" x="0px" enable-background="new 0 0 18 18" width="16" height="16"><path d="m2 0.1v9.7h14v-9.7h-14zm-0.3 11.4l-1.7 6.4h18l-1.7-6.4h-14.6z"/></svg><svg xmlns:xlink="http://www.w3.org/1999/xlink" id="delete" xml:space="preserve" viewBox="0 0 18 18" version="1.1" y="240" x="0px" enable-background="new 0 0 18 18" width="16" height="16">	<path d="m0 9c0 5 4 9 9 9s9-4 9-9-4-9-9-9-9 4-9 9zm6.7-4.2l2.3 2.3 2.3-2.3c0.5-0.5 1.3-0.5 1.8 0.1 0.5 0.5 0.6 1.4 0.1 1.8l-2.3 2.3 2.3 2.3c0.5 0.5 0.5 1.3-0.1 1.8-0.5 0.5-1.4 0.6-1.8 0.1l-2.3-2.3-2.3 2.3c-0.5 0.5-1.3 0.4-1.8-0.1s-0.6-1.4-0.1-1.8l2.3-2.3-2.3-2.3c-0.5-0.5-0.5-1.3 0.1-1.8 0.5-0.6 1.3-0.6 1.8-0.1z"/></svg><svg viewBox="0 0 18 18" width="16" height="16" id="down" y="256"><title>di-icons</title><polyline points="9 14.5 18 4.9 16.8 3.5 9 12 1.2 3.5 0 4.9"/></svg><svg xmlns:xlink="http://www.w3.org/1999/xlink" id="edit" style="enable-background:new 0 0 18 18" xml:space="preserve" viewBox="0 0 18 18" version="1.1" y="272" x="0px" width="16" height="16"><path d="m17.7 4l-1.8 1.8-3.8-3.8 1.9-1.7c0.4-0.4 1-0.4 1.4 0l2.3 2.3c0.2 0.2 0.3 0.5 0.3 0.7 0 0.3-0.1 0.5-0.3 0.7zm-17.7 10.3l11-11.1 3.8 3.8-11.1 11h-3.7v-3.7z"/></svg><svg xmlns:xlink="http://www.w3.org/1999/xlink" id="email" xml:space="preserve" viewBox="0 0 18 18" version="1.1" y="288" x="0px" enable-background="new 0 0 18 18" width="16" height="16">	<path d="m1 2.9l8 6.7 8-6.7h-16zm17 1l-9 8.4-9-8.3v10.5l3.7-4s0.4-0.3 0.8 0 0.2 0.8 0.2 0.8l-3.5 3.7h15.6l-3.5-3.7s-0.2-0.4 0.2-0.8c0.3-0.3 0.8 0 0.8 0l3.7 4v-10.6z"/></svg><svg xmlns:xlink="http://www.w3.org/1999/xlink" id="forward" xml:space="preserve" viewBox="0 0 18 18" version="1.1" y="304" x="0px" enable-background="new 0 0 18 18" width="16" height="16"><polyline points="4.9 0 3.5 1.2 12 9 3.5 16.8 4.9 18 14.5 9"/></svg><svg xmlns:xlink="http://www.w3.org/1999/xlink" id="generic-icon" style="enable-background:new 0 0 17 19" xml:space="preserve" viewBox="0 0 17 19" version="1.1" y="320" x="0px" width="16" height="16"><style type="text/css">	.st0{fill:#FFFFFF;}</style><polygon points="16.7 19 0.6 19 0.6 0 11.9 0 16.7 5.5"/><rect y="4" x="2.4" height="2" class="st0" width="7.8"/><rect y="9" x="2.4" height="2" class="st0" width="11.7"/><rect y="14.1" x="2.4" height="1.9" class="st0" width="11.7"/></svg><svg xmlns:xlink="http://www.w3.org/1999/xlink" id="help-outline" xml:space="preserve" viewBox="0 0 18 18" version="1.1" y="336" x="0px" enable-background="new 0 0 18 18" width="16" height="16">	<path d="m9.8 14.6h-1.5v-2h1.5v2zm-3.7-8.5c0.1-0.4 0.3-0.8 0.6-1.1s0.6-0.5 1-0.7 0.8-0.2 1.3-0.2c0.6 0 1.1 0.1 1.5 0.3s0.7 0.4 1 0.7 0.4 0.5 0.5 0.8 0.2 0.6 0.2 0.8c0 0.4-0.1 0.8-0.2 1.1s-0.2 0.5-0.4 0.7-0.3 0.3-0.5 0.5c-0.2 0.1-0.4 0.3-0.5 0.4-0.2 0.1-0.3 0.3-0.5 0.5-0.1 0.2-0.2 0.4-0.3 0.7v0.5h-1.6v-0.6c0-0.4 0.1-0.7 0.2-1s0.2-0.5 0.3-0.7l0.5-0.5c0.2-0.1 0.3-0.3 0.5-0.4 0.1-0.1 0.2-0.3 0.3-0.4s0.1-0.4 0.1-0.6c0-0.4-0.1-0.7-0.3-0.9-0.1-0.3-0.4-0.4-0.7-0.4-0.2 0-0.4 0-0.6 0.1l-0.5 0.5c-0.1 0.1-0.1 0.3-0.2 0.5 0 0.2-0.1 0.2-0.1 0.4h-1.8c0-0.5 0-0.6 0.2-1z"/>	<path d="m9 0c-5 0-9 4-9 9s4 9 9 9 9-4 9-9-4-9-9-9zm0 17.1c-4.5 0-8.1-3.6-8.1-8.1s3.6-8.1 8.1-8.1 8.1 3.6 8.1 8.1-3.6 8.1-8.1 8.1z"/></svg><svg xmlns:xlink="http://www.w3.org/1999/xlink" id="help" xml:space="preserve" viewBox="0 0 18 18" version="1.1" y="352" x="0px" enable-background="new 0 0 18 18" width="16" height="16">	<path d="m11.7 0.4c-4.7-1.5-9.8 1.1-11.3 5.9-1.5 4.7 1.1 9.8 5.9 11.3 4.7 1.5 9.8-1.1 11.3-5.9s-1.1-9.8-5.9-11.3zm-1.4 14.9h-2.3v-2.4h2.3v2.4zm2.9-7.9c-0.1 0.4-0.3 0.7-0.5 0.9-0.2 0.3-0.4 0.5-0.7 0.6s-0.5 0.4-0.8 0.6-0.4 0.4-0.6 0.6-0.3 0.5-0.3 0.9v0.6h-2.3v-0.8c0-0.5 0.1-0.9 0.3-1.2s0.3-0.6 0.5-0.8l0.6-0.6c0.2-0.2 0.4-0.3 0.6-0.5s0.3-0.4 0.5-0.6c0.1-0.2 0.2-0.5 0.2-0.8 0-0.5-0.1-0.9-0.4-1.2s-0.6-0.4-1.1-0.4c-0.3 0-0.6 0.1-0.8 0.2s-0.4 0.3-0.5 0.5-0.2 0.4-0.3 0.7-0.1 0.6-0.1 0.9h-2.5c0-0.6 0.1-1.2 0.3-1.7s0.5-1 0.8-1.3c0.4-0.4 0.8-0.7 1.3-0.9s1.1-0.3 1.7-0.3c0.8 0 1.5 0.1 2 0.3s1 0.5 1.3 0.8 0.6 0.7 0.7 1.1 0.2 0.7 0.2 1.1c0.1 0.5 0 1-0.1 1.3z"/></svg><svg xmlns:xlink="http://www.w3.org/1999/xlink" id="hide" xml:space="preserve" viewBox="0 0 18 18" version="1.1" y="368" x="0px" enable-background="new 0 0 18 18" width="16" height="16">	<path d="m0 0.4v3.2h18v-3.2h-18zm6.5 10.8v6.4h5.2v-6.4h5.3l-7.9-5.8-7.8 5.8h5.2z"/></svg><svg xmlns:xlink="http://www.w3.org/1999/xlink" id="info" xml:space="preserve" viewBox="0 0 18 18" version="1.1" y="384" x="0px" enable-background="new 0 0 18 18" width="16" height="16">	<path d="m0 9c0 4.9 4.1 9 9 9s9-4.1 9-9-4.1-9-9-9-9 4.1-9 9zm6.1 3.6h1.8v-3.5h-0.8c-0.3 0-0.7-0.4-0.7-0.6v-0.7c0-0.3 0.4-0.6 0.6-0.6h3.6v5.4h1.8v1.9h-6.3v-1.9zm1.6-8.5c0-0.8 0.7-1.4 1.5-1.4 0.7 0 1.4 0.6 1.4 1.4s-0.6 1.3-1.3 1.3-1.6-0.6-1.6-1.3z"/></svg><svg xmlns:xlink="http://www.w3.org/1999/xlink" id="notifications" xml:space="preserve" viewBox="0 0 18 18" version="1.1" y="400" x="0px" enable-background="new 0 0 18 18" width="16" height="16">	<path d="m9 0c-0.3 0-1.2 0.1-1.2 1.5h1.2s0.5 0 1.2 0c0-1.4-0.9-1.5-1.2-1.5z"/>	<path d="m15.3 12.1c-1.2-1-1.7-3.3-1.8-6.3 0-3.1-2.6-3.7-3.3-3.7h-1.2-1.2c-0.7 0-3.3 0.5-3.3 3.7-0.1 3-0.6 5.3-1.8 6.3s-2 1.3-2 2.1 1.1 1.7 3.3 1.7h5 5s3.3-0.8 3.3-1.7c0-0.8-0.7-1.1-2-2.1z"/>	<path d="m9 16.5h-1.8s0 1.5 1.8 1.5 1.8-1.5 1.8-1.5h-1.8z"/></svg><svg xmlns:xlink="http://www.w3.org/1999/xlink" id="page-loader" style="enable-background:new 0 0 67 67" xml:space="preserve" viewBox="0 0 67 67" version="1.1" y="416" x="0px" width="16" height="16"><style type="text/css">	.st0{opacity:0.5;fill:#BBBBBB;enable-background:new    ;}	.st1{fill:#BBBBBB;}</style>	<path class="st0" d="m33.5 67c-18.5 0-33.5-15-33.5-33.5s15-33.5 33.5-33.5 33.5 15 33.5 33.5-15 33.5-33.5 33.5zm0-61.2c-15.3 0-27.7 12.4-27.7 27.7s12.4 27.7 27.7 27.7 27.7-12.4 27.7-27.7-12.4-27.7-27.7-27.7z"/>	<path class="st1" d="m5.8 36.4h-5.8v-2.9c0-18.5 15-33.5 33.5-33.5h2.9v5.8h-2.9c-15.3 0-27.7 12.4-27.7 27.7v2.9z"/></svg><svg xmlns:xlink="http://www.w3.org/1999/xlink" id="pay-people" xml:space="preserve" viewBox="0 0 18 18" version="1.1" y="432" x="0px" enable-background="new 0 0 18 18" width="16" height="16"><path d="m16.2 18h-14.4c-1 0-1.8-0.8-1.8-1.8v-14.4c0-1 0.8-1.8 1.8-1.8h14.4c1 0 1.8 0.8 1.8 1.8v14.4c0 1-0.8 1.8-1.8 1.8zm-7.2-15.8c-2.7 0-5 2.2-5 4.9v0.1 0.1 8c0 0.4 0.3 0.7 0.7 0.7h1.3c0.3 0 0.6-0.3 0.6-0.6v-3.9c0.7 0.4 1.6 0.7 2.5 0.7 2.7 0 4.9-2.2 4.9-4.9s-2.3-5.1-5-5.1zm0 6.8c-1 0-1.8-0.8-1.8-1.8s0.8-1.8 1.8-1.8 1.8 0.8 1.8 1.8-0.8 1.8-1.8 1.8z"/></svg><svg xmlns:xlink="http://www.w3.org/1999/xlink" id="print" xml:space="preserve" viewBox="0 0 18 18" version="1.1" y="448" x="0px" enable-background="new 0 0 18 18" width="16" height="16">	<path d="m17.9 14.2c0 0.2-0.2 0.3-0.3 0.3h-2.4v1.7c0 0.6-0.5 1-1 1h-10.4c-0.6 0-1-0.5-1-1v-1.7h-2.5c-0.2 0-0.3-0.2-0.3-0.3v-4.4c0-1.1 0.9-2.1 2.1-2.1h0.7v-5.9c0-0.6 0.5-1 1-1h7.2c0.6 0 1.4 0.3 1.8 0.7l1.6 1.6c0.4 0.4 0.7 1.2 0.7 1.8v2.8h0.7c1.1 0 2.1 0.9 2.1 2.1v4.4zm-4.1-5.1v-4.2h-1.8c-0.6 0-1-0.5-1-1v-1.7h-6.9v6.9h9.7zm0 6.9v-2.8h-9.7v2.8h9.7zm2-6.9c-0.4 0-0.7 0.3-0.7 0.7s0.3 0.7 0.7 0.7 0.7-0.3 0.7-0.7-0.3-0.7-0.7-0.7z"/></svg><svg xmlns:xlink="http://www.w3.org/1999/xlink" id="recycle" xml:space="preserve" viewBox="0 0 18 18" version="1.1" y="464" x="0px" enable-background="new 0 0 18 18" width="16" height="16">	<path d="m3.1 11.8c-0.6 0-1.1-0.2-1.6-0.4s-0.7-0.6-0.9-0.9c-0.1-0.2-0.1-0.3-0.2-0.4v-0.5c0-0.3 0-0.6 0.1-0.8s0.2-0.5 0.2-0.7c0.1-0.2 0.2-0.3 0.3-0.4l0.2-0.2-1.2-0.7 4.2-0.2 2 3.7-1.3-0.6-0.2 0.2c-0.1 0-0.1 0.1-0.2 0.2l-0.3 0.3c-0.1 0.1-0.2 0.2-0.2 0.3-0.1 0.2-0.2 0.2-0.1 0.4 0 0.2 0.1 0.3 0.2 0.4 0.2 0.1 0.2 0.2 0.3 0.2l-1.3 0.1zm12 0.5c0.4 0 0.8-0.1 1.1-0.2 0.3-0.2 0.7-0.3 0.9-0.6l0.6-0.6c0.1-0.2 0.2-0.2 0.2-0.3-0.1 0.2-0.2 0.5-0.3 0.7s-0.2 0.5-0.5 0.8c-0.1 0.2-0.2 0.4-0.2 0.5-0.1 0.2-0.2 0.4-0.3 0.7-0.2 0.6-0.5 1-0.7 1.3s-0.3 0.7-0.6 1c-0.2 0.3-0.4 0.6-0.7 0.7-0.2 0.2-0.4 0.2-0.7 0.2h-2.1v1.5l-2.2-3.5 2.4-3.5v1.4c2.1-0.1 3.1-0.1 3.1-0.1zm-8.1-12.3h2.4c1.1 0 2 0 2.5 0.1 0.6 0.1 0.9 0.2 1.1 0.5 0 0.1 0.1 0.2 0.2 0.3 0.1 0.2 0.2 0.4 0.3 0.7 0.2 0.2 0.2 0.4 0.3 0.6s0.2 0.2 0.2 0.3l1.3-0.8-1.7 3.9-4.4-0.3 1.2-0.7-1.5-2.7c-0.2-0.4-0.5-0.7-0.8-1-0.3-0.2-0.6-0.4-0.9-0.5s-0.5-0.2-0.8-0.2c-0.1 0-0.3-0.1-0.4-0.1 0.3 0 0.6-0.1 1-0.1zm-5.5 11.8c-0.5-0.3-0.8-0.5-0.9-0.8 0.1 0.1 0.2 0.2 0.2 0.4 0.1 0.2 0.2 0.4 0.4 0.7s0.3 0.7 0.6 1c0.2 0.3 0.3 0.6 0.4 0.7s0.1 0.2 0.1 0.2c0.2 0.3 0.2 0.6 0.4 0.8s0.2 0.5 0.4 0.7 0.3 0.5 0.5 0.7 0.3 0.2 0.5 0.2l4.6-0.1-0.1-4.5c-2.8 0-4.6 0.1-5.7 0.1-0.5 0.1-1 0-1.4-0.1zm13.2-0.2c-0.2-0.3-0.7-1.1-1.4-2.1-0.7-1.1-1.1-1.7-1.2-1.9l3.7-2.2c0 0.1 0.1 0.2 0.2 0.5 0.2 0.2 0.3 0.6 0.5 0.9 0.4 0.7 0.7 1.3 0.9 1.7 0.2 0.3 0.3 0.7 0.4 0.7 0.1 0.1 0.1 0.2 0.1 0.4s-0.1 0.5-0.2 0.7c0 0.1-0.1 0.2-0.2 0.3l-0.6 0.6s-0.5 0.4-0.9 0.6c-0.3 0.2-0.7 0.2-1.1 0.2 0.1 0.1 0-0.1-0.2-0.4zm-8.6-4.9l-3.7-2c0-0.1 0.2-0.3 0.5-0.8 0.1-0.1 0.3-0.4 0.5-0.8s0.4-0.7 0.7-1.1c0.2-0.3 0.3-0.6 0.5-0.7s0.2-0.4 0.2-0.5c0-0.1 0.1-0.2 0.2-0.3s0.4-0.2 0.7-0.2h0.5c0.2 0 0.5 0.1 0.7 0.2 0.3 0.2 0.7 0.3 0.9 0.6 0.3 0.2 0.6 0.6 0.7 1l0.1 0.1c0.2 0 0.3 0.1 0.4 0.3l-2.9 4.2z"/></svg><svg xmlns:xlink="http://www.w3.org/1999/xlink" id="refresh" xml:space="preserve" viewBox="0 0 18 18" version="1.1" y="480" x="0px" enable-background="new 0 0 18 18" width="16" height="16">	<path d="m13.6 10.7h-0.3c-0.7 1.7-2.3 2.9-4.2 2.9-1.5 0-2.9-0.8-3.7-1.9l2.3-0.6-5-2.7-2.7 4.7 2.5-0.7c1.2 2.3 3.7 3.8 6.5 3.8s5.6-2 6.8-4.4l-2.2-1.1zm-9.2-3.3h0.3c0.6-1.7 2.3-2.9 4.2-2.9 1.5 0 2.9 0.8 3.7 1.9l-2.3 0.6 5 2.7 2.7-4.7-2.5 0.7c-1.2-2.3-3.7-3.9-6.5-3.9s-5.6 2-6.8 4.4l2.2 1.2z"/></svg><svg xmlns:xlink="http://www.w3.org/1999/xlink" id="rename" style="enable-background:new 0 0 20 16.9" xml:space="preserve" viewBox="0 0 20 16.9" version="1.1" y="496" x="0px" width="16" height="16"><path d="m8.7 0l5.3 15h-3.2l-1-3.3h-5.5l-1.2 3.3h-3.1l5.4-15h3.3zm0.2 9.2l-1.9-5.5-1.9 5.5h3.8z"/><rect x="15" height="8" width="2"/><rect y="3" x="12" height="2" width="8"/></svg><svg xmlns:xlink="http://www.w3.org/1999/xlink" id="repeat" style="enable-background:new 0 0 18 18" xml:space="preserve" viewBox="0 0 18 18" version="1.1" y="512" x="0px" width="16" height="16"><path d="m18 6.8h-6.8l2.5-2.5c-1.3-1.3-3-2-4.8-2s-3.4 0.7-4.7 1.9c-1.3 1.3-2 3-2 4.8s0.7 3.5 2 4.8c1.3 1.3 3 2 4.8 2s3.5-0.7 4.8-2l0.3-0.3 1.7 1.5c-1.7 1.8-4.1 3-6.8 3-5 0-9-4-9-9s4-9 9-9c2.5 0 4.7 1 6.4 2.6l2.6-2.6v6.8z"/></svg><svg xmlns:xlink="http://www.w3.org/1999/xlink" id="rewards" xml:space="preserve" viewBox="0 0 18 18" version="1.1" y="528" x="0px" enable-background="new 0 0 18 18" width="16" height="16"><path d="m0 6.3l5.4 5-2.3 6.7 5.9-4.5 5.8 4.5-2.2-6.8 5.4-5h-6.8l-2.2-6.2-2.2 6.3h-6.8z"/></svg><svg xmlns:xlink="http://www.w3.org/1999/xlink" id="scheduled" xml:space="preserve" viewBox="0 0 18 18" version="1.1" y="544" x="0px" enable-background="new 0 0 18 18" width="16" height="16"><g fill="#2e6f03">	<path d="m9 0c-5 0-9 4-9 9s4 9 9 9 9-4 9-9-4-9-9-9zm0 17c-4.4 0-8-3.6-8-8s3.6-8 8-8 8 3.6 8 8-3.6 8-8 8z"/>	<polygon points="13.6 12.1 9.5 8.8 9.5 2.6 8.3 2.6 8.3 9.2 8.3 9.2 13 13"/></g></svg><svg xmlns:xlink="http://www.w3.org/1999/xlink" id="search" xml:space="preserve" viewBox="0 0 18 18" version="1.1" y="560" x="0px" enable-background="new 0 0 18 18" width="16" height="16"><path d="m6.6 1.8c2.8 0 5 2.3 5 5 0 2.8-2.3 5-5 5-2.8 0-5-2.3-5-5 0.1-2.9 2.2-5 5-5zm0 11.6c1.4 0 2.7-0.4 3.7-1.1 0 0 0 0.1 0.1 0.1l5.2 5.2c0.3 0.3 0.6 0.3 1 0.3 0.3 0 0.7-0.2 1-0.3 0.5-0.5 0.5-1.3 0-1.8l-5.2-5.2-0.1-0.1c0.7-1 1.1-2.4 1.1-3.7 0-3.8-3-6.8-6.7-6.8s-6.7 3.1-6.7 6.7c-0.1 3.8 2.9 6.7 6.6 6.7z"/></svg><svg xmlns:xlink="http://www.w3.org/1999/xlink" id="security" xml:space="preserve" viewBox="0 0 18 18" version="1.1" y="576" x="0px" enable-background="new 0 0 18 18" width="16" height="16"><path d="m3.9 4.7v3.3h-0.8v10h11.8v-10h-0.8v-3.4c0.2-2.5-2.8-4.6-5.1-4.6s-5.3 2.3-5.1 4.7zm1.5 0.4c0.2-1.4 0.8-3.6 3.6-3.6s3.5 2.3 3.6 3.2v3.4h-7.2v-3zm5.6 11.4h-4l1.2-3.2c-0.7-0.3-1.2-1-1.2-1.8 0-1.1 0.9-2 2-2s2 0.9 2 2c0 0.8-0.5 1.5-1.2 1.8l1.2 3.2z"/></svg><svg xmlns:xlink="http://www.w3.org/1999/xlink" id="settings" xml:space="preserve" viewBox="0 0 18 18" version="1.1" y="592" x="0px" enable-background="new 0 0 18 18" width="16" height="16"><path d="m15.9 10.9l2-0.7c0.1-0.4 0.1-0.8 0.1-1.2 0-0.5 0-0.9-0.1-1.3l-2.1-0.7c-0.6-0.2-0.8-0.8-0.6-1.4l1-2c-0.5-0.7-1.1-1.3-1.8-1.8l-2.1 1c-0.5 0.2-1.2 0-1.4-0.6l-0.8-2.1c-0.4 0-0.7-0.1-1.1-0.1-0.5 0-0.9 0-1.4 0.1l-0.7 2.1c-0.2 0.6-0.8 0.9-1.4 0.6l-2-0.9c-0.7 0.5-1.3 1.1-1.8 1.8l0.9 1.9c0.3 0.5 0 1.2-0.6 1.4l-1.9 0.7c-0.1 0.4-0.1 0.9-0.1 1.3s0 0.9 0.1 1.3l2.1 0.7c0.6 0.2 0.8 0.8 0.6 1.4l-1 2c0.5 0.7 1.1 1.3 1.8 1.8l2.1-1c0.5-0.2 1.2 0 1.4 0.6l0.8 2.2c0.4-0.1 0.7 0 1.1 0 0.5 0 0.9 0 1.4-0.1l0.7-2.1c0.2-0.6 0.8-0.8 1.4-0.6l2 0.9c0.7-0.5 1.3-1.1 1.8-1.8l-0.9-1.9c-0.3-0.7-0.1-1.3 0.5-1.5zm-7.1 1c-1.7 0-3.1-1.3-3.1-3.1s1.4-3.1 3.1-3.1 3.1 1.4 3.1 3.1c0 1.8-1.4 3.1-3.1 3.1z"/></svg><svg xmlns:xlink="http://www.w3.org/1999/xlink" id="show" xml:space="preserve" viewBox="0 0 18 18" version="1.1" y="608" x="0px" enable-background="new 0 0 18 18" width="16" height="16">	<path d="m0 17.3h18v-3.2h-18v3.2zm11.6-10.3v-6.3h-5.1v6.3h-5.3l7.8 5.9 7.8-5.9h-5.2z"/></svg><svg viewBox="0 0 18 18" width="16" height="16" id="small-loader" y="624"><path d="m13.43 1.17l-1.74 3a5.5 5.5 0 1 1 -5.4 0l-1.77-3a9 9 0 1 0 8.91 0z" fill="#ccc"/></svg><svg xmlns:xlink="http://www.w3.org/1999/xlink" id="sort" xml:space="preserve" viewBox="0 0 18 18" version="1.1" y="640" x="0px" enable-background="new 0 0 18 18" width="16" height="16"><polygon points="9 15.6 1 4.4 17 4.4"/></svg><svg xmlns:xlink="http://www.w3.org/1999/xlink" id="stop-payment" style="enable-background:new 0 0 20 20" xml:space="preserve" viewBox="0 0 20 20" version="1.1" y="656" x="0px" width="16" height="16"><style type="text/css">	.st0{fill:#231F20;}</style>	<path class="st0" d="m14.2 0h-8.4l-5.8 5.8v8.3l5.9 5.9h8.2l5.9-5.9v-8.3l-5.8-5.8zm3.8 13.3l-4.8 4.7h-6.5l-4.7-4.7v-6.6l4.6-4.7h6.7l4.7 4.6v6.7z"/>	<path class="st0" d="m12.7 3.5h-5.4l-3.8 3.8v5.4l3.8 3.8h5.3l3.9-3.9v-5.3l-3.8-3.8z"/></svg><svg xmlns:xlink="http://www.w3.org/1999/xlink" id="success" xml:space="preserve" viewBox="0 0 18 18" version="1.1" y="672" x="0px" enable-background="new 0 0 18 18" width="16" height="16"><path d="m3 7.3l4.2 3.8 7.9-11.1s1.7-0.1 2.4 0.7c0.7 0.9 0.5 2.8 0.5 2.8l-10.7 14.5-7.3-7.2s-0.2-1.9 0.6-2.8 2.4-0.7 2.4-0.7z" fill="#2e6f03"/></svg><svg xmlns:xlink="http://www.w3.org/1999/xlink" id="text-mobile-alerts-outline" xml:space="preserve" viewBox="0 0 18 18" version="1.1" y="688" x="0px" enable-background="new 0 0 18 18" width="16" height="16"><path d="m11.7 1c-4.7-1-9.8 0.9-11.3 4.2-1.1 2.4-0.1 5 2.3 6.6-0.5 2.8-1.4 5.4-1.4 5.4l5.6-3.8c4.5 0.8 9.2-1.1 10.7-4.3 1.5-3.4-1.2-7-5.9-8.1zm4 7.9c-1.2 2.4-5.3 3.9-9.1 3.1l-2.8 1.7s0.5-1.4 0.7-2.6c-1.8-1.3-3.3-3-2.3-5.2 1.2-2.6 5.1-4 9.1-3.2 4 0.9 5.6 3.7 4.4 6.2z"/></svg><svg xmlns:xlink="http://www.w3.org/1999/xlink" id="text-mobile-alerts" xml:space="preserve" viewBox="0 0 18 18" version="1.1" y="704" x="0px" enable-background="new 0 0 18 18" width="16" height="16"><path d="m11.6 1.1c-4.6-1-9.6 0.8-11.1 4.2-1 2.4 0 4.9 2.3 6.6-0.5 2.8-1.4 5.3-1.4 5.3l5.5-3.7c4.5 0.8 9.1-1 10.5-4.3 1.6-3.4-1.1-7-5.8-8.1z"/></svg><svg xmlns:xlink="http://www.w3.org/1999/xlink" id="transfer-money" xml:space="preserve" viewBox="0 0 18 18" version="1.1" y="720" x="0px" enable-background="new 0 0 18 18" width="16" height="16"><path d="m0.1 3.5v3.4h11.6v2.3l6.2-3.7-6.2-4.3v2.3h-11.6zm17.9 7.6h-11.8v-2.3l-6.2 4.3 6.2 3.7v-2.3h11.6v-3.4h0.2z"/></svg><svg viewBox="0 0 18 18" width="16" height="16" id="turbo-tax" y="736"><title>di-icons</title><path d="m0.5 9a8.5 8.5 0 1 0 8.5 -8.5 8.52 8.52 0 0 0 -8.5 8.5" fill="#d52b1e"/><path d="m16.12 5.92a10.68 10.68 0 0 0 -1.7 -2.55 26.06 26.06 0 0 0 -6.91 7.54 11.3 11.3 0 0 0 -3.29 -3.61l-1.7 1.7a18.86 18.86 0 0 1 5.1 5.74 30.73 30.73 0 0 1 8.5 -8.82" fill="#fff"/></svg><svg viewBox="0 0 18 18" width="16" height="16" id="up" y="752"><title>di-icons</title><polyline points="9 3.5 0 13.1 1.2 14.5 9 6 16.8 14.5 18 13.1"/></svg></svg>
